<?xml version="1.0" encoding="UTF-8" standalone="no"?>
<!DOCTYPE svg PUBLIC "-//W3C//DTD SVG 1.1//EN" "http://www.w3.org/Graphics/SVG/1.1/DTD/svg11.dtd">
<svg xmlns="http://www.w3.org/2000/svg" version="1.1" viewBox="0 0 225 225" width="225.0pt" height="225.0pt">
<path d="M 0.00 0.00 L 62.50 0.00 L 61.89 0.89 C 58.27 1.01 54.66 1.00 51.04 1.15 C 49.13 0.63 47.62 0.49 45.93 1.70 C 26.78 4.37 9.85 15.45 4.60 34.80 C 3.01 39.15 2.08 43.16 1.65 47.77 C 0.53 52.50 1.15 57.03 0.90 62.10 L 0.00 61.51 L 0.00 0.00 Z" fill="#fcf9fc" />
<path d="M 62.50 0.00 L 75.60 0.00 C 71.52 1.76 66.28 0.84 61.89 0.89 L 62.50 0.00 Z" fill="#ae8bf4" />
<path d="M 75.60 0.00 L 128.67 0.00 C 126.61 3.94 121.82 2.17 118.25 2.46 C 113.65 1.91 110.60 4.64 106.18 5.34 C 97.27 7.32 87.17 11.04 77.99 10.04 C 74.74 9.65 70.28 13.18 75.80 14.59 C 71.59 16.54 67.57 15.76 63.13 16.21 C 61.77 20.84 68.50 17.78 70.97 20.64 C 69.01 21.14 66.38 22.60 64.48 21.44 C 60.63 19.20 55.37 20.00 51.02 20.07 C 47.66 19.58 48.33 26.43 44.98 25.94 C 38.73 26.99 33.38 23.07 30.52 30.57 C 24.75 31.05 23.46 31.34 19.21 35.22 C 16.72 38.23 16.71 31.36 15.11 31.52 C 10.05 31.31 12.74 37.81 11.74 41.05 C 9.47 38.22 10.20 35.32 9.69 31.95 C 6.70 34.04 8.03 41.39 4.60 34.80 C 9.85 15.45 26.78 4.37 45.93 1.70 C 47.87 2.36 49.42 2.66 51.04 1.15 C 54.66 1.00 58.27 1.01 61.89 0.89 C 66.28 0.84 71.52 1.76 75.60 0.00 Z" fill="#6c3dc1" />
<path d="M 128.67 0.00 L 149.67 0.00 C 154.20 1.95 160.03 0.73 164.89 0.89 C 173.40 0.74 182.15 1.94 190.23 4.64 C 186.79 4.90 184.02 6.13 180.84 4.24 C 173.50 1.47 164.07 5.59 156.97 2.02 C 152.85 1.53 148.75 3.63 145.01 3.83 C 142.87 2.90 131.73 1.77 138.91 4.85 C 133.18 4.26 128.53 7.00 123.01 7.04 C 119.08 7.46 113.73 5.55 111.04 9.01 C 106.37 11.61 98.79 11.85 95.30 16.17 C 96.04 17.45 96.97 18.61 97.75 19.87 C 90.96 23.02 77.23 17.95 72.82 25.55 C 69.87 25.83 66.96 25.60 64.03 25.35 C 64.81 27.76 65.55 28.38 64.14 30.72 C 71.34 28.16 76.79 26.90 84.21 29.79 C 72.16 30.00 60.49 31.80 49.99 38.08 C 46.34 38.73 46.32 38.64 43.78 36.08 C 39.99 35.27 41.02 38.38 38.78 39.97 C 36.25 40.52 34.42 37.86 32.09 37.04 C 32.13 38.95 32.47 40.80 32.70 42.68 C 26.34 40.42 22.29 49.91 16.49 47.66 C 16.13 46.82 15.77 45.98 15.43 45.14 C 13.55 49.92 14.02 54.97 11.80 59.73 C 9.77 58.77 9.77 52.35 8.70 50.06 C 4.73 53.05 7.55 62.53 3.34 62.82 C 2.12 57.85 1.96 52.84 1.65 47.77 C 2.08 43.16 3.01 39.15 4.60 34.80 C 8.03 41.39 6.70 34.04 9.69 31.95 C 10.20 35.32 9.47 38.22 11.74 41.05 C 12.74 37.81 10.05 31.31 15.11 31.52 C 16.71 31.36 16.72 38.23 19.21 35.22 C 23.46 31.34 24.75 31.05 30.52 30.57 C 33.38 23.07 38.73 26.99 44.98 25.94 C 48.33 26.43 47.66 19.58 51.02 20.07 C 55.37 20.00 60.63 19.20 64.48 21.44 C 66.38 22.60 69.01 21.14 70.97 20.64 C 68.50 17.78 61.77 20.84 63.13 16.21 C 67.57 15.76 71.59 16.54 75.80 14.59 C 70.28 13.18 74.74 9.65 77.99 10.04 C 87.17 11.04 97.27 7.32 106.18 5.34 C 110.60 4.64 113.65 1.91 118.25 2.46 C 121.82 2.17 126.61 3.94 128.67 0.00 Z" fill="#7a3bb7" />
<path d="M 149.67 0.00 L 165.49 0.00 L 164.89 0.89 C 160.03 0.73 154.20 1.95 149.67 0.00 Z" fill="#c78bf5" />
<path d="M 165.49 0.00 L 225.00 0.00 L 225.00 60.49 L 224.10 59.89 C 223.90 56.29 224.46 52.27 223.26 48.90 C 223.07 43.68 221.98 38.83 220.32 33.90 C 218.12 26.71 213.67 20.20 208.35 14.96 C 202.98 10.27 197.32 6.24 190.23 4.64 C 182.15 1.94 173.40 0.74 164.89 0.89 L 165.49 0.00 Z" fill="#fcf8fc" />
<path d="M 51.04 1.15 C 49.42 2.66 47.87 2.36 45.93 1.70 C 47.62 0.49 49.13 0.63 51.04 1.15 Z" fill="#b79ee8" />
<path d="M 156.97 2.02 C 164.07 5.59 173.50 1.47 180.84 4.24 C 184.02 6.13 186.79 4.90 190.23 4.64 C 197.32 6.24 202.98 10.27 208.35 14.96 C 207.82 17.68 207.28 15.98 205.55 15.51 C 199.28 15.03 192.11 4.03 187.09 9.51 C 191.15 10.33 194.10 12.87 197.79 14.54 C 195.99 17.50 190.82 15.32 188.17 14.79 C 174.27 13.23 159.36 14.02 145.35 14.34 C 141.72 19.76 137.29 17.28 132.02 19.54 C 133.30 19.82 138.51 20.86 134.01 20.99 C 127.54 20.66 122.40 24.13 115.99 24.07 C 105.06 27.96 91.81 24.98 80.16 26.18 C 79.09 28.89 86.26 27.93 87.98 28.97 L 88.03 29.94 C 86.75 29.91 85.48 29.86 84.21 29.79 C 76.79 26.90 71.34 28.16 64.14 30.72 C 65.55 28.38 64.81 27.76 64.03 25.35 C 66.96 25.60 69.87 25.83 72.82 25.55 C 77.23 17.95 90.96 23.02 97.75 19.87 C 96.97 18.61 96.04 17.45 95.30 16.17 C 98.79 11.85 106.37 11.61 111.04 9.01 C 113.73 5.55 119.08 7.46 123.01 7.04 C 128.53 7.00 133.18 4.26 138.91 4.85 C 131.73 1.77 142.87 2.90 145.01 3.83 C 148.75 3.63 152.85 1.53 156.97 2.02 Z" fill="#8738b9" />
<path d="M 205.55 15.51 C 207.28 15.98 207.82 17.68 208.35 14.96 C 213.67 20.20 218.12 26.71 220.32 33.90 C 219.97 35.70 219.78 36.87 218.27 38.03 C 217.68 36.02 218.94 30.21 215.94 30.08 C 213.16 29.22 214.33 33.33 213.66 34.98 C 210.27 31.51 207.87 24.79 202.01 25.95 C 188.51 26.85 174.19 24.64 161.08 25.96 C 158.78 31.11 159.44 30.39 154.08 28.48 C 156.62 27.55 158.32 27.75 154.89 26.24 C 148.15 24.35 142.06 25.52 135.31 26.37 C 133.97 26.72 133.53 27.74 132.74 28.75 C 117.85 29.30 102.89 28.88 87.98 28.97 C 86.26 27.93 79.09 28.89 80.16 26.18 C 91.81 24.98 105.06 27.96 115.99 24.07 C 122.40 24.13 127.54 20.66 134.01 20.99 C 138.51 20.86 133.30 19.82 132.02 19.54 C 137.29 17.28 141.72 19.76 145.35 14.34 C 159.36 14.02 174.27 13.23 188.17 14.79 C 190.82 15.32 195.99 17.50 197.79 14.54 C 194.10 12.87 191.15 10.33 187.09 9.51 C 192.11 4.03 199.28 15.03 205.55 15.51 Z" fill="#9537b4" />
<path d="M 154.89 26.24 C 158.32 27.75 156.62 27.55 154.08 28.48 C 159.44 30.39 158.78 31.11 161.08 25.96 C 174.19 24.64 188.51 26.85 202.01 25.95 C 207.87 24.79 210.27 31.51 213.66 34.98 C 214.33 33.33 213.16 29.22 215.94 30.08 C 218.94 30.21 217.68 36.02 218.27 38.03 C 219.78 36.87 219.97 35.70 220.32 33.90 C 221.98 38.83 223.07 43.68 223.26 48.90 C 219.03 48.73 220.82 45.48 218.51 43.02 C 217.49 45.65 218.33 48.60 214.38 47.84 C 213.78 45.58 214.34 43.53 212.30 41.97 C 211.65 43.36 212.91 48.95 210.35 47.77 C 211.38 38.48 199.01 40.77 193.63 41.65 C 188.38 48.75 186.06 35.90 180.02 36.98 C 176.60 35.95 179.93 40.56 179.93 42.07 C 167.60 31.18 151.98 29.64 136.22 29.82 C 135.06 29.45 133.90 29.10 132.74 28.75 C 133.53 27.74 133.97 26.72 135.31 26.37 C 142.06 25.52 148.15 24.35 154.89 26.24 Z" fill="#a037aa" />
<path d="M 87.98 28.97 C 102.89 28.88 117.85 29.30 132.74 28.75 C 133.90 29.10 135.06 29.45 136.22 29.82 C 120.17 30.17 104.08 29.98 88.03 29.94 L 87.98 28.97 Z" fill="#b56bce" />
<path d="M 84.21 29.79 C 85.48 29.86 86.75 29.91 88.03 29.94 C 104.08 29.98 120.17 30.17 136.22 29.82 C 151.98 29.64 167.60 31.18 179.93 42.07 C 185.98 48.08 189.78 53.87 192.36 62.06 C 194.28 69.68 195.46 77.11 195.01 85.01 C 195.13 103.07 194.70 121.18 195.25 139.23 C 195.30 153.08 193.06 166.48 184.83 177.95 C 182.23 180.11 179.93 182.54 177.63 185.01 C 173.30 188.06 168.65 190.30 163.74 192.23 C 160.48 192.87 157.26 193.68 154.01 194.35 C 151.48 193.65 149.35 193.26 147.01 194.75 C 145.68 194.86 144.35 194.95 143.01 195.03 C 122.01 194.99 101.01 194.96 80.01 195.05 C 77.31 193.28 74.75 194.19 71.76 194.35 C 68.90 193.88 66.07 193.28 63.21 192.80 C 51.59 189.43 42.25 182.18 36.13 171.79 C 35.24 169.46 34.27 167.17 33.11 164.97 C 32.34 161.30 31.38 157.67 30.66 153.99 C 31.32 151.48 31.69 149.35 30.25 147.02 C 30.02 143.76 29.99 140.50 29.83 137.24 C 30.09 120.84 30.14 104.17 29.81 87.78 C 30.14 83.46 29.97 79.17 29.93 74.85 L 30.16 74.08 C 31.44 67.90 32.37 61.93 34.87 56.05 C 38.18 48.62 43.78 43.11 49.99 38.08 C 60.49 31.80 72.16 30.00 84.21 29.79 Z" fill="#fcfafa" />
<path d="M 43.78 36.08 C 46.32 38.64 46.34 38.73 49.99 38.08 C 43.78 43.11 38.18 48.62 34.87 56.05 C 33.86 54.91 33.64 51.72 31.85 53.85 C 29.11 56.58 24.77 56.66 23.06 60.03 C 19.40 65.15 15.24 68.31 9.16 70.00 C 7.76 69.05 7.36 66.57 6.42 65.11 C 4.76 69.43 3.63 73.81 1.37 77.88 L 0.66 76.27 C 1.16 71.53 1.06 66.86 0.90 62.10 C 1.15 57.03 0.53 52.50 1.65 47.77 C 1.96 52.84 2.12 57.85 3.34 62.82 C 7.55 62.53 4.73 53.05 8.70 50.06 C 9.77 52.35 9.77 58.77 11.80 59.73 C 14.02 54.97 13.55 49.92 15.43 45.14 C 15.77 45.98 16.13 46.82 16.49 47.66 C 22.29 49.91 26.34 40.42 32.70 42.68 C 32.47 40.80 32.13 38.95 32.09 37.04 C 34.42 37.86 36.25 40.52 38.78 39.97 C 41.02 38.38 39.99 35.27 43.78 36.08 Z" fill="#873aad" />
<path d="M 180.02 36.98 C 186.06 35.90 188.38 48.75 193.63 41.65 C 199.01 40.77 211.38 38.48 210.35 47.77 C 212.91 48.95 211.65 43.36 212.30 41.97 C 214.34 43.53 213.78 45.58 214.38 47.84 C 218.33 48.60 217.49 45.65 218.51 43.02 C 220.82 45.48 219.03 48.73 223.26 48.90 C 224.46 52.27 223.90 56.29 224.10 59.89 C 224.01 63.94 223.92 67.98 223.97 72.03 C 221.58 69.49 225.00 63.63 220.39 63.58 C 217.14 62.46 216.93 67.99 216.67 69.97 C 215.63 66.50 214.98 63.89 211.01 63.00 C 207.74 62.83 208.92 56.40 205.91 56.06 C 202.03 55.97 198.24 56.69 194.33 56.44 C 192.87 56.81 192.86 60.69 192.36 62.06 C 189.78 53.87 185.98 48.08 179.93 42.07 C 179.93 40.56 176.60 35.95 180.02 36.98 Z" fill="#b0349f" />
<path d="M 113.00 44.00 C 121.30 44.41 130.10 43.11 138.23 44.73 C 121.67 45.18 104.33 45.16 87.77 44.74 C 95.89 43.10 104.71 44.42 113.00 44.00 Z" fill="#f7c5f2" />
<path d="M 77.75 45.28 C 95.14 46.95 113.43 45.53 131.00 46.00 C 136.32 45.77 142.10 46.66 147.25 45.28 C 151.63 45.52 156.01 46.38 160.22 47.62 C 153.81 47.17 150.93 52.79 144.96 48.28 C 146.23 47.76 151.98 48.67 151.77 47.11 C 138.70 46.50 125.55 47.48 112.65 48.62 C 108.96 55.35 102.16 49.81 96.90 52.88 C 94.30 58.04 88.71 55.39 83.99 55.96 C 77.36 56.00 71.99 58.81 67.45 63.49 C 65.19 65.67 63.86 59.75 61.67 61.65 C 55.71 64.71 48.98 68.76 45.77 74.86 C 46.10 68.65 47.75 62.49 51.39 57.38 C 57.75 48.64 67.43 45.96 77.75 45.28 Z" fill="#aa379d" />
<path d="M 77.75 45.28 C 81.09 45.02 84.43 44.99 87.77 44.74 C 104.33 45.16 121.67 45.18 138.23 44.73 C 141.23 44.97 144.24 45.05 147.25 45.28 C 142.10 46.66 136.32 45.77 131.00 46.00 C 113.43 45.53 95.14 46.95 77.75 45.28 Z" fill="#893e85" />
<path d="M 151.77 47.11 C 151.98 48.67 146.23 47.76 144.96 48.28 C 150.93 52.79 153.81 47.17 160.22 47.62 C 167.35 49.40 175.44 57.50 177.33 64.59 C 170.20 62.81 178.21 67.65 174.96 70.86 C 173.72 73.83 172.04 75.80 170.14 71.88 C 168.82 68.14 167.84 71.81 166.01 72.98 C 167.65 67.60 166.90 62.22 161.35 59.66 C 155.19 55.67 146.56 61.11 146.76 68.20 C 142.52 69.41 145.60 65.98 145.90 64.04 C 139.59 66.85 135.47 63.27 129.20 64.14 C 125.98 68.47 119.55 67.47 115.13 65.81 C 107.32 68.45 96.35 66.26 89.79 71.52 C 84.93 70.10 85.27 70.00 81.02 72.55 C 74.54 70.59 66.76 74.79 62.59 79.61 C 58.76 80.09 55.42 80.10 51.82 81.77 C 49.38 82.55 49.36 81.11 48.52 79.34 C 45.10 80.03 46.34 82.26 45.84 84.96 L 44.98 85.05 C 45.07 81.53 44.55 78.12 45.77 74.86 C 48.98 68.76 55.71 64.71 61.67 61.65 C 63.86 59.75 65.19 65.67 67.45 63.49 C 71.99 58.81 77.36 56.00 83.99 55.96 C 88.71 55.39 94.30 58.04 96.90 52.88 C 102.16 49.81 108.96 55.35 112.65 48.62 C 125.55 47.48 138.70 46.50 151.77 47.11 Z" fill="#b73396" />
<path d="M 34.87 56.05 C 32.37 61.93 31.44 67.90 30.16 74.08 C 29.61 72.42 31.26 63.84 28.26 65.18 C 27.69 68.95 28.71 72.71 25.06 75.17 C 24.01 73.85 23.15 72.46 22.16 71.08 C 21.72 73.46 23.04 83.89 18.61 77.66 C 14.33 81.22 8.97 82.95 4.51 86.62 C 1.68 88.21 2.08 88.25 0.00 85.78 L 0.00 75.42 L 0.66 76.27 L 1.37 77.88 C 3.63 73.81 4.76 69.43 6.42 65.11 C 7.36 66.57 7.76 69.05 9.16 70.00 C 15.24 68.31 19.40 65.15 23.06 60.03 C 24.77 56.66 29.11 56.58 31.85 53.85 C 33.64 51.72 33.86 54.91 34.87 56.05 Z" fill="#9c38a8" />
<path d="M 194.33 56.44 C 198.24 56.69 202.03 55.97 205.91 56.06 C 208.92 56.40 207.74 62.83 211.01 63.00 C 214.98 63.89 215.63 66.50 216.67 69.97 C 216.93 67.99 217.14 62.46 220.39 63.58 C 225.00 63.63 221.58 69.49 223.97 72.03 L 225.00 73.60 L 225.00 96.32 C 217.39 96.70 216.88 90.39 210.99 86.01 C 207.56 82.40 208.22 77.48 207.71 72.94 C 206.21 76.15 206.16 79.36 205.80 82.81 C 200.50 79.29 202.76 74.49 200.21 70.19 C 198.96 73.30 200.22 79.52 196.48 80.61 C 195.86 81.88 196.06 83.58 195.92 84.98 L 195.01 85.01 C 195.46 77.11 194.28 69.68 192.36 62.06 C 192.86 60.69 192.87 56.81 194.33 56.44 Z" fill="#bf309a" />
<path d="M 161.35 59.66 C 166.90 62.22 167.65 67.60 166.01 72.98 C 162.02 79.73 152.51 80.11 148.04 73.65 C 147.49 71.86 147.08 70.04 146.76 68.20 C 146.56 61.11 155.19 55.67 161.35 59.66 Z" fill="#faf2f9" />
<path d="M 224.10 59.89 L 225.00 60.49 L 225.00 73.60 L 223.97 72.03 C 223.92 67.98 224.01 63.94 224.10 59.89 Z" fill="#db92cc" />
<path d="M 0.00 61.51 L 0.90 62.10 C 1.06 66.86 1.16 71.53 0.66 76.27 L 0.00 75.42 L 0.00 61.51 Z" fill="#c787e8" />
<path d="M 129.20 64.14 C 135.47 63.27 139.59 66.85 145.90 64.04 C 145.60 65.98 142.52 69.41 146.76 68.20 C 147.08 70.04 147.49 71.86 148.04 73.65 C 142.14 75.47 135.66 68.25 133.53 75.07 C 116.62 66.85 100.20 68.49 85.12 79.54 C 79.52 79.07 80.88 83.75 75.72 83.87 C 66.94 87.56 57.70 87.91 48.64 90.59 C 45.39 91.78 46.16 86.75 45.84 84.96 C 46.34 82.26 45.10 80.03 48.52 79.34 C 49.36 81.11 49.38 82.55 51.82 81.77 C 55.42 80.10 58.76 80.09 62.59 79.61 C 66.76 74.79 74.54 70.59 81.02 72.55 C 85.27 70.00 84.93 70.10 89.79 71.52 C 96.35 66.26 107.32 68.45 115.13 65.81 C 119.55 67.47 125.98 68.47 129.20 64.14 Z" fill="#c2358b" />
<path d="M 177.33 64.59 C 179.77 72.20 180.07 79.86 180.25 87.77 C 180.06 90.80 179.97 93.82 179.98 96.86 C 178.62 96.62 178.15 95.72 177.33 97.32 C 176.45 102.41 177.42 107.83 176.84 113.00 C 175.36 110.64 175.66 106.95 174.68 104.26 C 170.02 103.51 165.09 104.54 160.48 103.67 C 159.84 102.08 160.04 100.81 158.23 100.14 C 157.78 98.21 159.94 94.38 157.78 93.35 C 155.84 93.44 153.62 94.93 151.95 95.95 C 147.91 86.92 141.70 80.47 133.53 75.07 C 135.66 68.25 142.14 75.47 148.04 73.65 C 152.51 80.11 162.02 79.73 166.01 72.98 C 167.84 71.81 168.82 68.14 170.14 71.88 C 172.04 75.80 173.72 73.83 174.96 70.86 C 178.21 67.65 170.20 62.81 177.33 64.59 Z" fill="#d12f87" />
<path d="M 28.26 65.18 C 31.26 63.84 29.61 72.42 30.16 74.08 L 29.93 74.85 C 26.79 77.77 27.53 84.45 26.89 88.46 C 22.74 86.41 18.29 88.49 16.82 92.87 C 15.14 97.90 10.02 94.36 7.64 98.64 C 5.62 102.08 3.65 102.76 0.00 103.93 L 0.00 85.78 C 2.08 88.25 1.68 88.21 4.51 86.62 C 8.97 82.95 14.33 81.22 18.61 77.66 C 23.04 83.89 21.72 73.46 22.16 71.08 C 23.15 72.46 24.01 73.85 25.06 75.17 C 28.71 72.71 27.69 68.95 28.26 65.18 Z" fill="#ab369b" />
<path d="M 133.53 75.07 C 141.70 80.47 147.91 86.92 151.95 95.95 C 154.72 104.10 156.06 112.46 154.37 121.01 C 153.03 126.86 150.66 131.74 147.64 136.86 C 143.81 142.15 139.92 145.42 134.60 149.11 C 129.75 151.39 124.94 153.33 119.81 154.85 C 103.95 156.55 91.63 151.63 80.19 140.91 C 75.01 133.30 71.30 126.42 69.84 117.17 C 69.93 113.52 70.02 109.86 70.15 106.21 C 72.20 95.81 77.20 86.62 85.12 79.54 C 100.20 68.49 116.62 66.85 133.53 75.07 Z" fill="#fbf7f8" />
<path d="M 200.21 70.19 C 202.76 74.49 200.50 79.29 205.80 82.81 C 206.16 79.36 206.21 76.15 207.71 72.94 C 208.22 77.48 207.56 82.40 210.99 86.01 C 216.88 90.39 217.39 96.70 225.00 96.32 L 225.00 145.58 C 222.91 141.83 225.43 134.67 221.77 132.26 C 218.78 131.06 222.13 128.02 218.77 127.71 C 214.29 127.38 217.29 122.66 214.68 120.30 C 212.39 118.11 212.11 116.35 211.54 113.33 C 209.70 111.35 205.61 113.54 204.30 111.72 C 203.48 106.64 204.43 101.30 203.82 96.17 C 201.03 95.45 202.39 98.30 201.98 99.99 C 202.37 109.02 200.46 117.68 200.88 126.77 C 198.55 124.84 201.38 116.23 199.14 112.82 C 196.32 108.50 199.62 99.22 197.12 96.22 C 196.58 101.50 197.76 107.23 196.25 112.23 C 195.69 103.17 196.21 94.06 195.92 84.98 C 196.06 83.58 195.86 81.88 196.48 80.61 C 200.22 79.52 198.96 73.30 200.21 70.19 Z" fill="#cc2e8d" />
<path d="M 29.93 74.85 C 29.97 79.17 30.14 83.46 29.81 87.78 C 29.48 88.47 29.16 89.17 28.87 89.88 C 26.90 95.36 29.56 96.75 22.41 97.41 C 22.55 106.37 12.79 102.75 8.86 108.83 C 6.66 112.18 3.51 112.05 0.00 112.98 L 0.00 103.93 C 3.65 102.76 5.62 102.08 7.64 98.64 C 10.02 94.36 15.14 97.90 16.82 92.87 C 18.29 88.49 22.74 86.41 26.89 88.46 C 27.53 84.45 26.79 77.77 29.93 74.85 Z" fill="#b33a88" />
<path d="M 85.12 79.54 C 77.20 86.62 72.20 95.81 70.15 106.21 C 69.93 102.77 70.63 99.50 70.97 96.11 C 66.11 97.09 67.26 102.58 62.37 102.66 C 57.32 102.88 51.03 106.87 47.15 102.36 C 46.46 107.30 46.28 112.36 45.24 117.23 C 44.59 107.43 45.45 97.55 44.70 87.77 C 44.80 86.86 44.89 85.95 44.98 85.05 L 45.84 84.96 C 46.16 86.75 45.39 91.78 48.64 90.59 C 57.70 87.91 66.94 87.56 75.72 83.87 C 80.88 83.75 79.52 79.07 85.12 79.54 Z" fill="#c63e77" />
<path d="M 140.03 110.98 C 137.80 108.21 138.09 110.67 136.01 112.03 C 132.83 110.95 131.29 108.54 129.11 106.23 C 125.62 109.65 120.61 106.90 116.35 106.59 C 112.44 106.19 110.82 102.83 106.75 103.45 C 101.60 104.03 96.26 102.22 91.64 104.45 C 89.37 105.84 90.38 102.64 89.81 101.34 C 88.77 102.17 87.76 103.03 86.71 103.85 C 88.15 96.79 95.49 89.56 102.10 87.11 C 119.20 79.39 139.27 92.57 140.03 110.98 Z" fill="#d63579" />
<path d="M 195.01 85.01 L 195.92 84.98 C 196.21 94.06 195.69 103.17 196.25 112.23 C 195.84 117.38 195.92 122.59 196.16 127.75 C 195.98 131.75 196.37 135.36 195.25 139.23 C 194.70 121.18 195.13 103.07 195.01 85.01 Z" fill="#cd6e9a" />
<path d="M 29.81 87.78 C 30.14 104.17 30.09 120.84 29.83 137.24 L 28.95 135.96 C 28.94 133.33 29.01 130.70 28.98 128.07 C 29.01 122.37 29.02 116.66 28.99 110.97 C 28.99 103.93 29.08 96.91 28.87 89.88 C 29.16 89.17 29.48 88.47 29.81 87.78 Z" fill="#dc7493" />
<path d="M 44.70 87.77 C 45.45 97.55 44.59 107.43 45.24 117.23 C 45.00 119.89 45.07 122.54 45.19 125.21 C 45.02 128.88 44.96 132.56 44.75 136.23 C 43.12 128.77 44.40 120.63 44.00 113.00 C 44.39 104.69 43.16 95.93 44.70 87.77 Z" fill="#fecdd8" />
<path d="M 180.25 87.77 C 180.84 89.87 181.09 91.81 181.05 94.00 C 180.47 109.25 181.98 125.15 180.27 140.23 C 179.65 125.80 180.19 111.30 179.98 96.86 C 179.97 93.82 180.06 90.80 180.25 87.77 Z" fill="#f7bedb" />
<path d="M 28.87 89.88 C 29.08 96.91 28.99 103.93 28.99 110.97 C 23.98 107.34 23.87 112.87 18.75 112.87 C 17.61 120.48 10.85 118.44 6.79 123.77 C 4.69 126.34 3.56 127.86 0.00 128.19 L 0.00 112.98 C 3.51 112.05 6.66 112.18 8.86 108.83 C 12.79 102.75 22.55 106.37 22.41 97.41 C 29.56 96.75 26.90 95.36 28.87 89.88 Z" fill="#c23e77" />
<path d="M 157.78 93.35 C 159.94 94.38 157.78 98.21 158.23 100.14 C 160.04 100.81 159.84 102.08 160.48 103.67 C 165.09 104.54 170.02 103.51 174.68 104.26 C 175.66 106.95 175.36 110.64 176.84 113.00 C 177.42 107.83 176.45 102.41 177.33 97.32 C 178.15 95.72 178.62 96.62 179.98 96.86 C 180.19 111.30 179.65 125.80 180.27 140.23 C 180.18 141.50 180.09 142.76 180.03 144.03 C 174.57 142.78 176.63 140.77 175.63 136.34 C 170.75 132.35 168.66 127.20 162.14 125.80 C 159.32 123.68 158.35 121.56 154.37 121.01 C 156.06 112.46 154.72 104.10 151.95 95.95 C 153.62 94.93 155.84 93.44 157.78 93.35 Z" fill="#da3179" />
<path d="M 70.97 96.11 C 70.63 99.50 69.93 102.77 70.15 106.21 C 70.02 109.86 69.93 113.52 69.84 117.17 C 69.27 115.89 68.68 114.56 67.94 113.37 C 61.95 115.92 53.72 117.49 47.23 117.66 C 46.37 120.11 45.88 122.70 45.19 125.21 C 45.07 122.54 45.00 119.89 45.24 117.23 C 46.28 112.36 46.46 107.30 47.15 102.36 C 51.03 106.87 57.32 102.88 62.37 102.66 C 67.26 102.58 66.11 97.09 70.97 96.11 Z" fill="#d64167" />
<path d="M 197.12 96.22 C 199.62 99.22 196.32 108.50 199.14 112.82 C 201.38 116.23 198.55 124.84 200.88 126.77 C 200.46 117.68 202.37 109.02 201.98 99.99 C 202.39 98.30 201.03 95.45 203.82 96.17 C 204.43 101.30 203.48 106.64 204.30 111.72 C 205.61 113.54 209.70 111.35 211.54 113.33 C 212.11 116.35 212.39 118.11 214.68 120.30 C 217.29 122.66 214.29 127.38 218.77 127.71 C 222.13 128.02 218.78 131.06 221.77 132.26 C 225.43 134.67 222.91 141.83 225.00 145.58 L 225.00 151.68 C 223.18 155.56 224.17 160.68 224.11 164.89 C 224.13 180.25 221.19 196.75 210.21 208.26 C 209.46 207.49 208.75 206.69 208.09 205.84 C 208.16 199.01 208.59 191.98 207.77 185.19 C 205.08 181.17 200.97 178.38 206.97 174.77 C 205.95 170.02 201.40 161.33 197.03 158.72 C 197.55 149.82 201.24 135.40 196.16 127.75 C 195.92 122.59 195.84 117.38 196.25 112.23 C 197.76 107.23 196.58 101.50 197.12 96.22 Z" fill="#d82f80" />
<path d="M 89.81 101.34 C 90.38 102.64 89.37 105.84 91.64 104.45 C 96.26 102.22 101.60 104.03 106.75 103.45 C 110.82 102.83 112.44 106.19 116.35 106.59 C 120.61 106.90 125.62 109.65 129.11 106.23 C 131.29 108.54 132.83 110.95 136.01 112.03 C 138.09 110.67 137.80 108.21 140.03 110.98 C 140.46 117.73 138.23 125.32 133.33 130.14 C 133.12 127.08 132.00 121.74 128.00 122.01 C 121.28 121.60 117.17 116.24 110.39 115.59 C 104.09 115.12 96.62 110.21 91.31 114.49 C 89.07 112.02 88.35 111.86 84.95 111.89 C 84.80 108.95 85.52 106.49 86.71 103.85 C 87.76 103.03 88.77 102.17 89.81 101.34 Z" fill="#df3a68" />
<path d="M 28.99 110.97 C 29.02 116.66 29.01 122.37 28.98 128.07 C 25.59 126.67 22.92 124.66 19.14 124.58 C 15.07 132.50 8.18 135.07 1.92 140.95 C 1.25 140.25 0.61 139.52 0.00 138.76 L 0.00 128.19 C 3.56 127.86 4.69 126.34 6.79 123.77 C 10.85 118.44 17.61 120.48 18.75 112.87 C 23.87 112.87 23.98 107.34 28.99 110.97 Z" fill="#d44368" />
<path d="M 84.95 111.89 C 88.35 111.86 89.07 112.02 91.31 114.49 C 96.62 110.21 104.09 115.12 110.39 115.59 C 117.17 116.24 121.28 121.60 128.00 122.01 C 132.00 121.74 133.12 127.08 133.33 130.14 C 131.18 132.37 128.88 135.05 126.10 136.46 C 120.55 133.54 127.61 134.78 127.94 132.89 C 126.02 128.37 123.80 134.22 121.08 133.96 C 115.49 125.69 102.73 129.74 94.40 126.67 C 93.87 123.27 93.96 120.62 91.24 118.12 C 90.32 120.88 89.90 121.69 87.18 123.06 C 85.74 119.42 84.68 115.86 84.95 111.89 Z" fill="#e64658" />
<path d="M 67.94 113.37 C 68.68 114.56 69.27 115.89 69.84 117.17 C 71.30 126.42 75.01 133.30 80.19 140.91 C 73.38 139.56 75.26 131.54 69.08 130.98 C 65.50 132.41 65.89 137.86 63.51 131.47 C 57.99 131.93 52.56 132.06 47.24 133.33 C 47.10 139.42 46.41 145.21 45.58 151.23 C 44.49 146.20 45.31 141.40 44.75 136.23 C 44.96 132.56 45.02 128.88 45.19 125.21 C 45.88 122.70 46.37 120.11 47.23 117.66 C 53.72 117.49 61.95 115.92 67.94 113.37 Z" fill="#e65354" />
<path d="M 91.24 118.12 C 93.96 120.62 93.87 123.27 94.40 126.67 C 102.73 129.74 115.49 125.69 121.08 133.96 C 123.80 134.22 126.02 128.37 127.94 132.89 C 127.61 134.78 120.55 133.54 126.10 136.46 C 112.06 144.87 93.19 137.98 87.18 123.06 C 89.90 121.69 90.32 120.88 91.24 118.12 Z" fill="#e75650" />
<path d="M 154.37 121.01 C 158.35 121.56 159.32 123.68 162.14 125.80 C 168.66 127.20 170.75 132.35 175.63 136.34 C 176.63 140.77 174.57 142.78 180.03 144.03 C 179.77 150.11 178.88 156.49 176.56 162.15 C 175.46 158.01 171.69 160.21 170.35 156.67 C 166.77 150.57 164.99 144.27 157.22 142.81 C 155.38 140.00 154.48 137.52 151.24 135.43 C 149.71 137.08 150.09 137.82 147.64 136.86 C 150.66 131.74 153.03 126.86 154.37 121.01 Z" fill="#e03968" />
<path d="M 19.14 124.58 C 22.92 124.66 25.59 126.67 28.98 128.07 C 29.01 130.70 28.94 133.33 28.95 135.96 C 27.83 134.43 27.05 132.74 26.21 131.06 C 26.21 135.39 25.61 138.07 23.54 141.84 C 22.12 139.34 21.85 136.77 19.39 135.13 C 18.48 137.35 18.16 140.67 16.48 142.40 C 10.11 144.83 6.76 150.23 1.12 153.75 C 0.99 150.87 1.17 148.13 0.00 145.41 L 0.00 138.76 C 0.61 139.52 1.25 140.25 1.92 140.95 C 8.18 135.07 15.07 132.50 19.14 124.58 Z" fill="#e34d57" />
<path d="M 196.16 127.75 C 201.24 135.40 197.55 149.82 197.03 158.72 C 201.40 161.33 205.95 170.02 206.97 174.77 C 200.97 178.38 205.08 181.17 207.77 185.19 C 208.59 191.98 208.16 199.01 208.09 205.84 C 208.75 206.69 209.46 207.49 210.21 208.26 C 205.68 213.00 199.55 217.64 193.10 219.20 C 194.28 217.20 203.84 214.43 197.98 212.85 C 195.64 212.28 201.21 209.10 200.23 208.45 C 196.64 205.73 198.38 201.94 198.03 197.99 C 198.77 191.98 193.07 187.25 191.75 182.21 C 191.87 179.29 190.62 177.47 188.86 175.29 C 187.52 176.19 186.24 177.16 184.83 177.95 C 193.06 166.48 195.30 153.08 195.25 139.23 C 196.37 135.36 195.98 131.75 196.16 127.75 Z" fill="#db3670" />
<path d="M 26.21 131.06 C 27.05 132.74 27.83 134.43 28.95 135.96 L 29.83 137.24 C 29.99 140.50 30.02 143.76 30.25 147.02 C 29.96 148.40 29.75 149.78 29.62 151.18 C 29.03 149.03 28.57 146.92 27.35 145.01 C 25.83 149.32 26.05 153.82 24.35 158.05 C 23.83 153.74 23.39 149.43 22.68 145.13 C 18.49 144.35 21.32 157.07 16.91 152.25 C 14.48 154.61 8.86 156.35 9.47 160.25 C 9.30 161.75 9.38 164.35 7.98 165.20 C 6.72 163.61 6.02 161.54 4.97 159.78 C 0.51 162.70 5.00 172.06 1.89 176.52 C -0.31 170.76 2.37 164.85 0.00 159.40 L 0.00 145.41 C 1.17 148.13 0.99 150.87 1.12 153.75 C 6.76 150.23 10.11 144.83 16.48 142.40 C 18.16 140.67 18.48 137.35 19.39 135.13 C 21.85 136.77 22.12 139.34 23.54 141.84 C 25.61 138.07 26.21 135.39 26.21 131.06 Z" fill="#ec5c4c" />
<path d="M 63.51 131.47 C 65.89 137.86 65.50 132.41 69.08 130.98 C 75.26 131.54 73.38 139.56 80.19 140.91 C 91.63 151.63 103.95 156.55 119.81 154.85 C 124.35 154.32 128.27 155.20 132.70 155.69 C 133.10 157.11 132.96 158.96 133.77 160.19 C 140.96 162.55 145.76 171.47 150.95 176.91 C 148.25 178.11 145.33 178.19 142.77 179.79 C 141.25 179.96 139.74 180.12 138.23 180.30 C 132.75 179.80 127.26 180.17 121.77 179.76 C 123.89 179.20 126.02 178.85 128.20 178.64 C 132.03 179.12 135.92 179.16 139.77 178.91 C 138.21 177.08 130.45 178.37 128.56 174.53 C 126.12 168.40 116.60 166.48 112.76 162.26 C 111.18 159.03 108.28 160.45 105.32 159.67 C 103.96 151.97 92.74 155.82 88.42 150.58 C 86.71 147.71 83.30 151.06 80.80 151.35 C 75.53 147.97 65.96 149.47 60.02 150.96 C 54.61 150.61 49.76 153.15 47.09 147.04 C 46.58 151.57 48.33 155.73 47.73 160.26 C 46.73 157.32 46.07 154.29 45.58 151.23 C 46.41 145.21 47.10 139.42 47.24 133.33 C 52.56 132.06 57.99 131.93 63.51 131.47 Z" fill="#f0653e" />
<path d="M 151.24 135.43 C 154.48 137.52 155.38 140.00 157.22 142.81 C 164.99 144.27 166.77 150.57 170.35 156.67 C 171.69 160.21 175.46 158.01 176.56 162.15 C 174.25 168.30 168.54 174.28 162.24 176.36 C 164.03 173.88 165.34 171.19 165.72 168.13 C 163.84 168.32 162.00 168.72 160.12 168.87 C 159.24 166.11 162.43 161.22 158.15 160.88 C 155.49 159.68 152.38 160.65 151.98 157.00 C 149.59 149.60 141.07 149.27 134.60 149.11 C 139.92 145.42 143.81 142.15 147.64 136.86 C 150.09 137.82 149.71 137.08 151.24 135.43 Z" fill="#e64759" />
<path d="M 22.68 145.13 C 23.39 149.43 23.83 153.74 24.35 158.05 C 26.05 153.82 25.83 149.32 27.35 145.01 C 28.57 146.92 29.03 149.03 29.62 151.18 C 29.88 152.14 30.23 153.08 30.66 153.99 C 31.38 157.67 32.34 161.30 33.11 164.97 C 29.63 163.31 30.00 155.49 27.36 155.22 C 26.60 161.92 24.27 165.43 18.02 168.04 C 14.25 168.81 17.75 175.72 14.18 174.83 C 13.44 171.79 15.27 165.90 12.37 164.05 C 11.12 169.76 10.15 175.36 6.31 180.04 C 6.07 178.03 5.95 176.01 5.72 173.99 C 0.76 177.73 8.35 186.61 5.32 192.16 C 3.31 187.13 2.12 181.93 1.89 176.52 C 5.00 172.06 0.51 162.70 4.97 159.78 C 6.02 161.54 6.72 163.61 7.98 165.20 C 9.38 164.35 9.30 161.75 9.47 160.25 C 8.86 156.35 14.48 154.61 16.91 152.25 C 21.32 157.07 18.49 144.35 22.68 145.13 Z" fill="#f2693d" />
<path d="M 30.25 147.02 C 31.69 149.35 31.32 151.48 30.66 153.99 C 30.23 153.08 29.88 152.14 29.62 151.18 C 29.75 149.78 29.96 148.40 30.25 147.02 Z" fill="#f8b7a3" />
<path d="M 47.09 147.04 C 49.76 153.15 54.61 150.61 60.02 150.96 C 65.96 149.47 75.53 147.97 80.80 151.35 C 83.30 151.06 86.71 147.71 88.42 150.58 C 92.74 155.82 103.96 151.97 105.32 159.67 C 108.28 160.45 111.18 159.03 112.76 162.26 C 116.60 166.48 126.12 168.40 128.56 174.53 C 130.45 178.37 138.21 177.08 139.77 178.91 C 135.92 179.16 132.03 179.12 128.20 178.64 C 122.95 177.88 117.59 177.25 112.29 176.87 C 116.80 173.48 108.77 172.35 106.61 171.27 C 102.92 167.99 98.26 167.77 94.55 164.53 C 90.93 163.26 85.99 164.48 82.08 163.88 C 79.16 163.79 79.97 157.56 76.96 158.08 C 71.00 158.12 65.87 156.55 61.18 161.11 C 59.68 162.40 51.67 157.56 55.06 162.00 C 56.75 163.80 52.50 166.62 52.62 169.04 C 50.52 166.47 48.66 163.47 47.73 160.26 C 48.33 155.73 46.58 151.57 47.09 147.04 Z" fill="#f77332" />
<path d="M 134.60 149.11 C 141.07 149.27 149.59 149.60 151.98 157.00 C 152.38 160.65 155.49 159.68 158.15 160.88 C 162.43 161.22 159.24 166.11 160.12 168.87 C 162.00 168.72 163.84 168.32 165.72 168.13 C 165.34 171.19 164.03 173.88 162.24 176.36 C 156.50 179.42 149.16 179.95 142.77 179.79 C 145.33 178.19 148.25 178.11 150.95 176.91 C 145.76 171.47 140.96 162.55 133.77 160.19 C 132.96 158.96 133.10 157.11 132.70 155.69 C 128.27 155.20 124.35 154.32 119.81 154.85 C 124.94 153.33 129.75 151.39 134.60 149.11 Z" fill="#ea584d" />
<path d="M 225.00 151.68 L 225.00 165.49 L 224.11 164.89 C 224.17 160.68 223.18 155.56 225.00 151.68 Z" fill="#ee8ebc" />
<path d="M 27.36 155.22 C 30.00 155.49 29.63 163.31 33.11 164.97 C 34.27 167.17 35.24 169.46 36.13 171.79 C 35.04 175.41 34.68 183.07 29.93 177.05 C 24.97 180.70 19.75 182.31 15.71 186.42 C 14.48 186.30 12.80 184.32 12.54 186.40 C 11.62 190.88 10.08 194.48 7.83 198.44 C 6.70 196.46 5.93 194.35 5.32 192.16 C 8.35 186.61 0.76 177.73 5.72 173.99 C 5.95 176.01 6.07 178.03 6.31 180.04 C 10.15 175.36 11.12 169.76 12.37 164.05 C 15.27 165.90 13.44 171.79 14.18 174.83 C 17.75 175.72 14.25 168.81 18.02 168.04 C 24.27 165.43 26.60 161.92 27.36 155.22 Z" fill="#f8792f" />
<path d="M 76.96 158.08 C 79.97 157.56 79.16 163.79 82.08 163.88 C 85.99 164.48 90.93 163.26 94.55 164.53 C 98.26 167.77 102.92 167.99 106.61 171.27 C 108.77 172.35 116.80 173.48 112.29 176.87 C 117.59 177.25 122.95 177.88 128.20 178.64 C 126.02 178.85 123.89 179.20 121.77 179.76 C 110.47 180.45 99.08 179.55 87.77 180.26 C 84.19 179.96 80.63 179.98 77.04 179.85 C 75.43 178.35 73.87 178.64 71.94 179.27 C 64.24 177.81 57.64 175.37 52.62 169.04 C 52.50 166.62 56.75 163.80 55.06 162.00 C 51.67 157.56 59.68 162.40 61.18 161.11 C 65.87 156.55 71.00 158.12 76.96 158.08 Z" fill="#f97e2a" />
<path d="M 0.00 159.40 C 2.37 164.85 -0.31 170.76 1.89 176.52 C 2.12 181.93 3.31 187.13 5.32 192.16 C 5.93 194.35 6.70 196.46 7.83 198.44 C 9.43 201.50 11.65 204.31 13.78 207.01 C 20.73 215.10 31.31 220.48 41.76 222.28 C 45.56 223.36 49.22 224.20 53.22 223.83 C 55.52 223.95 57.82 224.05 60.12 224.13 L 59.49 225.00 L 0.00 225.00 L 0.00 159.40 Z" fill="#fdfaf5" />
<path d="M 224.11 164.89 L 225.00 165.49 L 225.00 225.00 L 164.50 225.00 L 165.11 224.12 C 168.91 223.97 172.53 224.28 176.27 223.36 C 178.93 223.06 181.57 222.85 184.18 222.19 C 187.26 221.55 190.24 220.52 193.10 219.20 C 199.55 217.64 205.68 213.00 210.21 208.26 C 221.19 196.75 224.13 180.25 224.11 164.89 Z" fill="#fdf8fb" />
<path d="M 36.13 171.79 C 42.25 182.18 51.59 189.43 63.21 192.80 C 56.40 194.03 51.22 189.43 45.85 186.07 C 41.03 184.48 39.92 194.63 35.62 191.42 C 31.63 186.76 32.92 190.93 28.95 191.84 C 22.11 191.44 23.27 198.47 19.01 202.00 C 17.38 203.79 15.56 205.37 13.78 207.01 C 11.65 204.31 9.43 201.50 7.83 198.44 C 10.08 194.48 11.62 190.88 12.54 186.40 C 12.80 184.32 14.48 186.30 15.71 186.42 C 19.75 182.31 24.97 180.70 29.93 177.05 C 34.68 183.07 35.04 175.41 36.13 171.79 Z" fill="#f78a2a" />
<path d="M 188.86 175.29 C 190.62 177.47 191.87 179.29 191.75 182.21 C 193.07 187.25 198.77 191.98 198.03 197.99 C 198.38 201.94 196.64 205.73 200.23 208.45 C 201.21 209.10 195.64 212.28 197.98 212.85 C 203.84 214.43 194.28 217.20 193.10 219.20 C 190.24 220.52 187.26 221.55 184.18 222.19 C 179.17 218.87 187.26 220.71 188.56 217.57 C 192.64 214.78 183.71 217.22 184.23 214.17 C 186.25 212.35 189.56 212.08 191.99 210.86 C 190.55 208.11 187.83 208.06 185.31 206.62 C 184.22 199.92 185.50 194.03 185.49 188.45 C 183.14 183.91 178.97 189.36 177.63 185.01 C 179.93 182.54 182.23 180.11 184.83 177.95 C 186.24 177.16 187.52 176.19 188.86 175.29 Z" fill="#e43e62" />
<path d="M 71.94 179.27 C 73.87 178.64 75.43 178.35 77.04 179.85 C 75.13 180.37 73.60 180.52 71.94 179.27 Z" fill="#fec191" />
<path d="M 87.77 180.26 C 99.08 179.55 110.47 180.45 121.77 179.76 C 127.26 180.17 132.75 179.80 138.23 180.30 C 129.41 181.86 119.98 180.60 111.00 181.00 C 103.37 180.60 95.23 181.88 87.77 180.26 Z" fill="#fad9c9" />
<path d="M 177.63 185.01 C 178.97 189.36 183.14 183.91 185.49 188.45 C 185.50 194.03 184.22 199.92 185.31 206.62 C 187.83 208.06 190.55 208.11 191.99 210.86 C 189.56 212.08 186.25 212.35 184.23 214.17 C 183.71 217.22 192.64 214.78 188.56 217.57 C 187.26 220.71 179.17 218.87 184.18 222.19 C 181.57 222.85 178.93 223.06 176.27 223.36 C 175.58 222.06 174.86 220.75 174.26 219.40 C 177.47 218.93 180.53 220.28 177.25 216.00 C 173.56 221.55 171.45 211.58 172.32 209.29 C 176.15 204.29 172.14 200.41 170.68 195.31 C 169.58 191.77 166.59 192.88 163.74 192.23 C 168.65 190.30 173.30 188.06 177.63 185.01 Z" fill="#e74d55" />
<path d="M 45.85 186.07 C 51.22 189.43 56.40 194.03 63.21 192.80 C 66.07 193.28 68.90 193.88 71.76 194.35 C 74.48 195.02 77.22 195.03 80.01 195.05 C 84.08 196.93 89.34 195.54 93.78 196.23 C 99.42 197.77 105.09 197.84 110.87 198.24 C 112.60 202.52 103.47 200.72 101.00 202.38 C 104.30 204.30 107.94 203.51 111.31 204.67 C 112.62 209.83 113.89 214.25 118.25 217.71 C 121.10 219.32 119.68 222.25 119.94 225.00 L 73.34 225.00 C 69.46 223.18 64.32 224.17 60.12 224.13 C 57.82 224.05 55.52 223.95 53.22 223.83 C 49.40 222.59 45.81 221.71 41.76 222.28 C 31.31 220.48 20.73 215.10 13.78 207.01 C 15.56 205.37 17.38 203.79 19.01 202.00 C 23.27 198.47 22.11 191.44 28.95 191.84 C 32.92 190.93 31.63 186.76 35.62 191.42 C 39.92 194.63 41.03 184.48 45.85 186.07 Z" fill="#fd961f" />
<path d="M 163.74 192.23 C 166.59 192.88 169.58 191.77 170.68 195.31 C 172.14 200.41 176.15 204.29 172.32 209.29 C 171.45 211.58 173.56 221.55 177.25 216.00 C 180.53 220.28 177.47 218.93 174.26 219.40 C 174.86 220.75 175.58 222.06 176.27 223.36 C 172.53 224.28 168.91 223.97 165.11 224.12 C 161.65 224.07 158.21 223.95 154.76 223.66 C 158.31 222.32 163.21 223.82 166.30 222.28 C 168.49 218.25 163.31 217.99 160.65 217.35 C 159.47 213.54 158.70 209.78 159.68 205.83 C 161.03 202.26 153.19 202.69 151.20 201.67 C 151.26 198.63 159.41 198.62 159.53 197.13 C 155.60 194.66 147.78 196.62 142.99 195.98 L 143.01 195.03 C 144.35 194.95 145.68 194.86 147.01 194.75 C 149.53 195.36 151.64 195.61 154.01 194.35 C 157.26 193.68 160.48 192.87 163.74 192.23 Z" fill="#ec5d47" />
<path d="M 71.76 194.35 C 74.75 194.19 77.31 193.28 80.01 195.05 C 77.22 195.03 74.48 195.02 71.76 194.35 Z" fill="#ffdc95" />
<path d="M 154.01 194.35 C 151.64 195.61 149.53 195.36 147.01 194.75 C 149.35 193.26 151.48 193.65 154.01 194.35 Z" fill="#feb8ab" />
<path d="M 80.01 195.05 C 101.01 194.96 122.01 194.99 143.01 195.03 L 142.99 195.98 C 137.91 196.02 132.85 195.88 127.77 196.25 C 116.52 195.80 105.04 195.89 93.78 196.23 C 89.34 195.54 84.08 196.93 80.01 195.05 Z" fill="#ec9f7c" />
<path d="M 93.78 196.23 C 105.04 195.89 116.52 195.80 127.77 196.25 C 132.76 197.76 138.49 196.57 143.76 197.12 C 143.41 198.91 136.01 197.53 133.96 198.24 C 137.27 202.03 142.09 197.57 144.19 200.99 C 142.42 204.17 133.91 201.79 134.16 205.63 C 136.60 206.47 143.56 206.01 142.88 210.01 C 142.58 214.91 147.07 217.65 147.80 222.61 C 145.92 223.38 144.07 222.27 144.49 225.00 L 119.94 225.00 C 119.68 222.25 121.10 219.32 118.25 217.71 C 113.89 214.25 112.62 209.83 111.31 204.67 C 107.94 203.51 104.30 204.30 101.00 202.38 C 103.47 200.72 112.60 202.52 110.87 198.24 C 105.09 197.84 99.42 197.77 93.78 196.23 Z" fill="#f97f2a" />
<path d="M 127.77 196.25 C 132.85 195.88 137.91 196.02 142.99 195.98 C 147.78 196.62 155.60 194.66 159.53 197.13 C 159.41 198.62 151.26 198.63 151.20 201.67 C 153.19 202.69 161.03 202.26 159.68 205.83 C 158.70 209.78 159.47 213.54 160.65 217.35 C 163.31 217.99 168.49 218.25 166.30 222.28 C 163.21 223.82 158.31 222.32 154.76 223.66 C 153.29 224.02 151.86 224.50 150.42 225.00 L 144.49 225.00 C 144.07 222.27 145.92 223.38 147.80 222.61 C 147.07 217.65 142.58 214.91 142.88 210.01 C 143.56 206.01 136.60 206.47 134.16 205.63 C 133.91 201.79 142.42 204.17 144.19 200.99 C 142.09 197.57 137.27 202.03 133.96 198.24 C 136.01 197.53 143.41 198.91 143.76 197.12 C 138.49 196.57 132.76 197.76 127.77 196.25 Z" fill="#f46b38" />
<path d="M 41.76 222.28 C 45.81 221.71 49.40 222.59 53.22 223.83 C 49.22 224.20 45.56 223.36 41.76 222.28 Z" fill="#f1ad65" />
<path d="M 60.12 224.13 C 64.32 224.17 69.46 223.18 73.34 225.00 L 59.49 225.00 L 60.12 224.13 Z" fill="#ffc788" />
<path d="M 154.76 223.66 C 158.21 223.95 161.65 224.07 165.11 224.12 L 164.50 225.00 L 150.42 225.00 C 151.86 224.50 153.29 224.02 154.76 223.66 Z" fill="#fdab95" />
</svg>