<?xml version="1.0" encoding="UTF-8" standalone="no"?>
<!DOCTYPE svg PUBLIC "-//W3C//DTD SVG 1.1//EN" "http://www.w3.org/Graphics/SVG/1.1/DTD/svg11.dtd">
<svg xmlns="http://www.w3.org/2000/svg" version="1.1" viewBox="0 0 150 150" width="150.0pt" height="150.0pt">
<path d="M 0.00 0.00 L 150.00 0.00 L 150.00 50.87 C 146.66 50.29 144.06 50.11 141.72 47.30 C 141.01 47.56 140.31 47.83 139.61 48.11 C 132.01 40.47 124.31 32.93 116.76 25.24 C 115.16 23.59 113.49 22.01 111.63 20.64 C 111.86 23.11 113.55 24.25 115.12 25.88 C 117.88 28.56 120.53 31.35 123.31 34.01 C 122.55 35.31 121.83 36.64 121.10 37.96 C 123.57 39.84 126.09 41.61 128.69 43.29 C 128.28 43.68 127.86 44.06 127.44 44.45 C 123.62 44.04 119.82 44.03 115.99 43.99 C 112.70 44.03 110.24 41.97 107.01 41.84 C 104.63 41.72 102.71 42.65 100.47 43.25 C 97.95 43.99 95.56 44.11 93.30 45.23 L 92.86 45.43 C 89.57 48.17 86.76 51.49 83.64 54.42 C 80.72 52.34 78.68 49.61 75.98 47.27 C 73.48 49.26 71.32 51.57 69.20 53.94 C 68.61 54.24 67.98 54.49 67.33 54.68 C 64.58 51.38 61.48 48.30 58.25 45.47 C 56.95 46.68 55.69 47.94 54.44 49.21 C 51.05 49.07 48.87 49.54 45.84 50.94 C 42.68 52.58 39.80 50.70 36.14 51.29 C 30.70 52.09 25.20 52.12 19.79 51.09 C 23.73 46.30 28.11 41.83 32.98 37.99 C 31.20 37.40 29.43 36.79 27.63 36.27 C 31.41 32.50 35.15 28.69 38.97 24.96 C 40.21 23.58 41.62 22.73 41.37 20.62 C 37.99 23.43 34.99 26.78 31.83 29.88 C 21.22 40.39 10.81 51.09 0.00 61.40 L 0.00 0.00 Z" fill="#000000" />
<path d="M 41.37 20.62 C 41.62 22.73 40.21 23.58 38.97 24.96 C 35.15 28.69 31.41 32.50 27.63 36.27 C 20.78 42.91 14.20 49.83 7.36 56.49 C 4.90 58.90 2.55 61.42 0.00 63.75 L 0.00 61.40 C 10.81 51.09 21.22 40.39 31.83 29.88 C 34.99 26.78 37.99 23.43 41.37 20.62 Z" fill="#85707d" />
<path d="M 111.63 20.64 C 113.49 22.01 115.16 23.59 116.76 25.24 C 124.31 32.93 132.01 40.47 139.61 48.11 C 142.93 51.74 146.59 55.01 150.00 58.55 L 150.00 60.58 C 149.21 59.89 148.43 59.19 147.65 58.49 C 144.81 55.71 142.20 52.70 139.27 50.01 C 133.91 44.71 128.68 39.28 123.31 34.01 C 120.53 31.35 117.88 28.56 115.12 25.88 C 113.55 24.25 111.86 23.11 111.63 20.64 Z" fill="#907587" />
<path d="M 123.31 34.01 C 128.68 39.28 133.91 44.71 139.27 50.01 C 138.13 51.02 137.03 52.08 135.93 53.14 C 130.14 53.33 124.59 52.62 118.85 53.82 C 115.18 54.61 111.64 53.37 108.00 54.17 C 105.63 54.65 103.64 54.78 101.31 53.93 C 98.64 51.11 95.36 48.54 93.30 45.23 C 95.56 44.11 97.95 43.99 100.47 43.25 C 102.71 42.65 104.63 41.72 107.01 41.84 C 110.24 41.97 112.70 44.03 115.99 43.99 C 119.82 44.03 123.62 44.04 127.44 44.45 C 127.86 44.06 128.28 43.68 128.69 43.29 C 126.09 41.61 123.57 39.84 121.10 37.96 C 121.83 36.64 122.55 35.31 123.31 34.01 Z" fill="#10080f" />
<path d="M 27.63 36.27 C 29.43 36.79 31.20 37.40 32.98 37.99 C 28.11 41.83 23.73 46.30 19.79 51.09 C 25.20 52.12 30.70 52.09 36.14 51.29 C 39.80 50.70 42.68 52.58 45.84 50.94 C 48.87 49.54 51.05 49.07 54.44 49.21 C 51.74 52.01 48.96 54.72 46.16 57.42 C 46.90 58.20 47.65 58.96 48.41 59.72 C 47.84 60.27 47.26 60.82 46.68 61.36 C 45.85 60.46 45.04 59.37 43.99 58.73 C 42.64 58.72 41.33 59.64 40.11 60.17 C 37.03 59.73 34.13 59.58 31.04 60.01 C 23.60 56.52 15.21 60.75 7.36 56.49 C 14.20 49.83 20.78 42.91 27.63 36.27 Z" fill="#0e070c" />
<path d="M 36.51 36.29 C 40.03 35.26 44.60 36.05 48.33 35.82 L 48.42 37.24 C 45.00 37.20 41.58 37.19 38.16 37.23 C 38.11 40.99 38.18 44.66 37.92 48.38 C 37.32 47.91 36.86 47.40 36.52 46.83 C 36.18 43.37 36.25 39.75 36.51 36.29 Z" fill="#b8b8b8" />
<path d="M 92.86 45.43 L 93.30 45.23 C 95.36 48.54 98.64 51.11 101.31 53.93 C 102.07 54.68 102.82 55.42 103.58 56.17 C 101.50 57.05 99.53 57.62 97.29 57.92 C 96.57 58.44 95.85 58.96 95.13 59.49 C 92.09 59.64 89.05 60.17 86.01 60.15 C 83.85 59.56 83.48 57.16 82.65 55.40 C 82.98 55.08 83.31 54.75 83.64 54.42 C 86.76 51.49 89.57 48.17 92.86 45.43 Z" fill="#fbf5fb" />
<path d="M 58.25 45.47 C 61.48 48.30 64.58 51.38 67.33 54.68 C 68.77 56.64 70.24 58.57 71.74 60.49 C 67.51 61.25 63.56 61.13 59.83 63.68 C 57.17 62.60 54.61 61.37 52.07 60.04 L 51.39 62.53 L 51.05 62.21 C 50.16 61.39 49.28 60.56 48.41 59.72 C 47.65 58.96 46.90 58.20 46.16 57.42 C 48.96 54.72 51.74 52.01 54.44 49.21 C 55.69 47.94 56.95 46.68 58.25 45.47 Z" fill="#fdf4fc" />
<path d="M 75.98 47.27 C 78.68 49.61 80.72 52.34 83.64 54.42 C 83.31 54.75 82.98 55.08 82.65 55.40 C 80.61 57.34 78.81 59.31 77.83 62.00 L 78.92 62.40 C 77.46 62.43 75.99 62.50 74.52 62.64 C 72.80 59.86 69.74 57.20 69.20 53.94 C 71.32 51.57 73.48 49.26 75.98 47.27 Z" fill="#f75ef6" />
<path d="M 141.72 47.30 C 144.06 50.11 146.66 50.29 150.00 50.87 L 150.00 58.55 C 146.59 55.01 142.93 51.74 139.61 48.11 C 140.31 47.83 141.01 47.56 141.72 47.30 Z" fill="#22091a" />
<path d="M 139.27 50.01 C 142.20 52.70 144.81 55.71 147.65 58.49 C 142.35 59.00 135.86 58.55 131.06 61.02 C 129.12 61.85 127.33 63.14 125.13 62.67 C 121.58 61.62 119.00 58.79 115.01 58.68 C 110.80 58.62 106.59 59.47 102.38 59.71 C 103.19 58.93 103.99 58.14 104.80 57.35 C 104.39 56.95 103.98 56.56 103.58 56.17 C 102.82 55.42 102.07 54.68 101.31 53.93 C 103.64 54.78 105.63 54.65 108.00 54.17 C 111.64 53.37 115.18 54.61 118.85 53.82 C 124.59 52.62 130.14 53.33 135.93 53.14 C 137.03 52.08 138.13 51.02 139.27 50.01 Z" fill="#291125" />
<path d="M 67.33 54.68 C 67.98 54.49 68.61 54.24 69.20 53.94 C 69.74 57.20 72.80 59.86 74.52 62.64 C 71.99 63.48 69.48 64.24 66.82 64.50 C 65.90 64.57 65.11 65.02 64.45 65.84 C 64.11 65.26 63.76 64.70 63.41 64.14 C 62.45 66.75 61.65 69.45 60.80 72.10 C 57.70 68.88 54.57 65.68 51.39 62.53 L 52.07 60.04 C 54.61 61.37 57.17 62.60 59.83 63.68 C 63.56 61.13 67.51 61.25 71.74 60.49 C 70.24 58.57 68.77 56.64 67.33 54.68 Z" fill="#fcd3f6" />
<path d="M 7.36 56.49 C 15.21 60.75 23.60 56.52 31.04 60.01 C 34.13 59.58 37.03 59.73 40.11 60.17 C 41.33 59.64 42.64 58.72 43.99 58.73 C 45.04 59.37 45.85 60.46 46.68 61.36 C 47.26 60.82 47.84 60.27 48.41 59.72 C 49.28 60.56 50.16 61.39 51.05 62.21 C 49.84 62.81 48.67 63.47 47.50 64.13 C 46.95 63.55 46.41 62.97 45.86 62.40 C 44.69 62.92 43.53 63.45 42.37 64.00 C 41.98 63.93 41.60 63.86 41.21 63.79 C 40.27 63.61 39.32 63.44 38.37 63.27 C 38.36 64.37 38.35 65.46 38.34 66.56 C 37.65 66.51 36.97 66.48 36.29 66.45 C 35.02 67.43 33.83 68.49 32.63 69.55 C 30.29 68.50 27.94 67.46 25.58 66.47 C 25.57 65.42 25.56 64.38 25.55 63.34 C 24.59 63.46 23.63 63.60 22.67 63.75 C 21.74 64.27 20.82 64.80 19.91 65.34 C 16.68 62.39 12.04 63.62 7.98 63.49 C 5.16 63.45 3.02 65.37 2.65 68.15 C 2.39 71.24 2.34 74.45 2.72 77.53 C 3.21 80.08 5.36 81.85 7.98 81.71 C 12.36 81.48 18.01 83.25 20.69 78.72 C 21.32 79.82 21.98 80.90 22.64 81.98 C 23.61 81.84 24.57 81.68 25.53 81.51 C 27.63 80.58 29.77 79.20 31.99 78.62 C 35.31 79.88 36.63 83.01 40.59 83.21 C 44.83 84.40 50.45 81.81 53.82 84.70 C 53.04 85.48 52.26 86.25 51.46 87.01 C 50.92 86.37 50.38 85.73 49.85 85.09 C 49.38 85.58 48.92 86.06 48.46 86.54 C 43.96 86.96 39.82 85.47 35.37 85.50 C 35.17 84.83 34.97 84.15 34.77 83.47 C 29.32 84.07 23.99 85.33 18.57 86.13 C 13.81 86.80 9.51 85.96 4.82 85.39 C 4.59 85.11 4.37 84.84 4.15 84.56 C 3.45 84.48 2.75 84.40 2.05 84.31 C 1.33 83.49 0.66 82.63 0.00 81.75 L 0.00 63.75 C 2.55 61.42 4.90 58.90 7.36 56.49 Z" fill="#371530" />
<path d="M 82.65 55.40 C 83.48 57.16 83.85 59.56 86.01 60.15 C 89.05 60.17 92.09 59.64 95.13 59.49 C 95.85 58.96 96.57 58.44 97.29 57.92 C 99.53 57.62 101.50 57.05 103.58 56.17 C 103.98 56.56 104.39 56.95 104.80 57.35 C 103.99 58.14 103.19 58.93 102.38 59.71 C 100.16 61.88 97.93 64.02 95.79 66.28 C 93.12 69.02 90.25 71.55 87.37 74.08 C 89.90 77.23 92.82 79.97 95.72 82.77 C 98.29 85.32 100.86 87.87 103.36 90.49 C 102.39 90.85 101.42 91.22 100.46 91.59 C 96.88 89.72 93.65 88.48 91.68 84.67 C 89.36 85.12 86.56 86.00 84.21 85.47 C 82.76 84.93 81.56 83.64 80.34 82.71 C 79.85 82.91 79.35 83.11 78.86 83.31 C 75.32 81.28 71.60 84.94 68.10 86.02 C 64.62 84.14 61.21 84.45 57.42 84.57 C 56.78 83.95 56.14 83.34 55.50 82.73 C 56.29 81.78 57.11 80.90 58.06 80.12 L 59.14 79.46 C 61.03 80.56 63.02 81.99 65.16 82.51 C 67.23 82.75 69.38 82.59 71.46 82.52 C 73.78 80.30 75.44 78.04 79.00 78.22 C 81.48 77.89 82.59 79.23 84.38 80.65 L 84.91 80.81 L 86.78 80.69 C 87.08 77.19 87.20 73.67 87.36 70.16 C 87.81 70.39 88.26 70.63 88.70 70.86 C 89.23 70.14 89.78 69.44 90.31 68.72 C 88.94 66.85 87.67 64.70 85.91 63.17 C 83.92 62.16 81.11 62.60 78.92 62.40 L 77.83 62.00 C 78.81 59.31 80.61 57.34 82.65 55.40 Z" fill="#fddafa" />
<path d="M 115.01 58.68 C 119.00 58.79 121.58 61.62 125.13 62.67 C 127.33 63.14 129.12 61.85 131.06 61.02 C 135.86 58.55 142.35 59.00 147.65 58.49 C 148.43 59.19 149.21 59.89 150.00 60.58 L 150.00 63.66 C 144.72 63.77 139.29 63.28 134.05 63.94 C 131.73 64.24 131.72 67.85 130.90 69.53 C 128.49 69.93 126.34 70.89 124.12 71.85 C 123.94 70.81 123.75 69.77 123.57 68.73 C 122.98 68.69 122.40 68.66 121.81 68.63 C 121.98 67.53 122.15 66.43 122.32 65.33 L 121.10 64.74 C 118.47 63.31 115.88 63.68 113.00 63.61 C 109.31 63.70 105.54 63.43 101.88 63.88 C 98.91 64.44 99.53 67.46 98.91 69.75 C 103.84 69.86 108.75 69.83 113.68 69.82 C 113.72 70.33 113.75 70.84 113.79 71.35 C 108.98 71.31 104.19 71.26 99.39 71.57 L 99.21 70.09 C 97.98 69.12 96.72 68.20 95.49 67.22 L 95.79 66.28 C 97.93 64.02 100.16 61.88 102.38 59.71 C 106.59 59.47 110.80 58.62 115.01 58.68 Z" fill="#5c1d4e" />
<path d="M 51.05 62.21 L 51.39 62.53 C 54.57 65.68 57.70 68.88 60.80 72.10 C 61.87 73.39 62.81 74.76 63.78 76.12 C 59.94 71.81 55.80 67.82 51.75 63.72 C 50.82 63.70 49.89 63.75 48.97 63.86 C 48.30 69.18 48.66 74.73 48.71 80.09 C 48.62 81.85 50.18 82.40 51.48 81.32 C 51.59 76.90 51.44 72.48 51.55 68.05 C 54.02 71.06 56.69 73.87 59.43 76.63 C 58.03 75.34 56.64 74.04 55.22 72.78 C 54.35 72.03 53.46 71.30 52.55 70.59 C 52.04 72.95 50.99 75.48 51.98 77.86 C 52.53 79.18 53.82 80.20 54.73 81.29 C 55.85 80.91 56.95 80.52 58.06 80.12 C 57.11 80.90 56.29 81.78 55.50 82.73 C 54.95 83.39 54.40 84.06 53.82 84.70 C 50.45 81.81 44.83 84.40 40.59 83.21 C 36.63 83.01 35.31 79.88 31.99 78.62 C 29.77 79.20 27.63 80.58 25.53 81.51 C 25.54 79.08 25.57 76.64 25.60 74.21 C 29.87 74.01 34.13 73.99 38.40 74.28 C 38.36 76.83 38.35 79.38 38.37 81.93 L 41.14 81.36 C 41.43 75.51 41.18 69.64 41.21 63.79 C 41.60 63.86 41.98 63.93 42.37 64.00 C 43.53 63.45 44.69 62.92 45.86 62.40 C 46.41 62.97 46.95 63.55 47.50 64.13 C 48.67 63.47 49.84 62.81 51.05 62.21 Z" fill="#5f1e4f" />
<path d="M 78.92 62.40 C 81.11 62.60 83.92 62.16 85.91 63.17 C 87.67 64.70 88.94 66.85 90.31 68.72 C 89.78 69.44 89.23 70.14 88.70 70.86 C 88.26 70.63 87.81 70.39 87.36 70.16 C 87.54 67.46 87.38 65.49 84.74 64.19 C 81.37 63.19 77.44 63.36 73.96 63.72 C 71.70 63.99 69.85 65.60 69.76 67.96 C 69.55 72.30 69.34 76.76 69.86 81.08 L 71.13 81.90 C 71.98 80.09 72.07 78.26 72.35 76.30 C 76.51 76.40 80.66 76.42 84.81 76.34 C 84.85 77.83 84.88 79.32 84.91 80.81 L 84.38 80.65 C 82.59 79.23 81.48 77.89 79.00 78.22 C 75.44 78.04 73.78 80.30 71.46 82.52 C 69.38 82.59 67.23 82.75 65.16 82.51 C 63.02 81.99 61.03 80.56 59.14 79.46 C 59.51 78.78 59.87 78.08 60.22 77.38 C 61.65 78.39 64.93 82.95 66.65 81.06 C 66.99 75.56 66.59 70.01 66.82 64.50 C 69.48 64.24 71.99 63.48 74.52 62.64 C 75.99 62.50 77.46 62.43 78.92 62.40 Z" fill="#e39dd7" />
<path d="M 7.98 63.49 C 12.04 63.62 16.68 62.39 19.91 65.34 C 20.33 66.46 20.69 67.60 21.06 68.74 C 20.17 68.75 19.27 68.77 18.37 68.79 C 17.99 68.02 17.60 67.25 17.22 66.48 C 13.49 66.19 9.77 66.21 6.03 66.41 C 5.25 70.23 4.94 74.57 5.92 78.37 C 9.50 79.30 13.55 78.82 17.22 78.73 C 17.61 77.97 18.00 77.22 18.39 76.47 C 19.17 76.41 19.96 76.35 20.74 76.30 C 20.72 77.11 20.70 77.91 20.69 78.72 C 18.01 83.25 12.36 81.48 7.98 81.71 C 5.36 81.85 3.21 80.08 2.72 77.53 C 2.34 74.45 2.39 71.24 2.65 68.15 C 3.02 65.37 5.16 63.45 7.98 63.49 Z" fill="#ffeeff" />
<path d="M 25.55 63.34 C 25.56 64.38 25.57 65.42 25.58 66.47 C 25.59 68.08 25.60 69.69 25.61 71.30 C 29.84 71.28 34.06 71.28 38.29 71.31 C 38.31 69.72 38.33 68.14 38.34 66.56 C 38.35 65.46 38.36 64.37 38.37 63.27 C 39.32 63.44 40.27 63.61 41.21 63.79 C 41.18 69.64 41.43 75.51 41.14 81.36 L 38.37 81.93 C 38.35 79.38 38.36 76.83 38.40 74.28 C 34.13 73.99 29.87 74.01 25.60 74.21 C 25.57 76.64 25.54 79.08 25.53 81.51 C 24.57 81.68 23.61 81.84 22.64 81.98 C 22.73 75.90 22.67 69.83 22.67 63.75 C 23.63 63.60 24.59 63.46 25.55 63.34 Z" fill="#fff0ff" />
<path d="M 22.67 63.75 C 22.67 69.83 22.73 75.90 22.64 81.98 C 21.98 80.90 21.32 79.82 20.69 78.72 C 20.70 77.91 20.72 77.11 20.74 76.30 C 19.96 76.35 19.17 76.41 18.39 76.47 C 18.00 77.22 17.61 77.97 17.22 78.73 C 13.55 78.82 9.50 79.30 5.92 78.37 C 4.94 74.57 5.25 70.23 6.03 66.41 C 9.77 66.21 13.49 66.19 17.22 66.48 C 17.60 67.25 17.99 68.02 18.37 68.79 C 19.27 68.77 20.17 68.75 21.06 68.74 C 20.69 67.60 20.33 66.46 19.91 65.34 C 20.82 64.80 21.74 64.27 22.67 63.75 Z" fill="#5a1d48" />
<path d="M 43.90 63.91 L 46.24 63.34 C 46.72 69.51 46.39 75.75 46.43 81.93 L 43.62 81.39 C 43.52 75.66 43.04 69.56 43.90 63.91 Z" fill="#ffefff" />
<path d="M 48.97 63.86 C 49.89 63.75 50.82 63.70 51.75 63.72 C 55.80 67.82 59.94 71.81 63.78 76.12 C 64.03 76.44 64.29 76.76 64.54 77.07 C 64.60 73.32 64.67 69.59 64.45 65.84 C 65.11 65.02 65.90 64.57 66.82 64.50 C 66.59 70.01 66.99 75.56 66.65 81.06 C 64.93 82.95 61.65 78.39 60.22 77.38 L 59.43 76.63 C 56.69 73.87 54.02 71.06 51.55 68.05 C 51.44 72.48 51.59 76.90 51.48 81.32 C 50.18 82.40 48.62 81.85 48.71 80.09 C 48.66 74.73 48.30 69.18 48.97 63.86 Z" fill="#fff7ff" />
<path d="M 63.41 64.14 C 63.76 64.70 64.11 65.26 64.45 65.84 C 64.67 69.59 64.60 73.32 64.54 77.07 C 64.29 76.76 64.03 76.44 63.78 76.12 C 62.81 74.76 61.87 73.39 60.80 72.10 C 61.65 69.45 62.45 66.75 63.41 64.14 Z" fill="#e6a2e4" />
<path d="M 73.96 63.72 C 77.44 63.36 81.37 63.19 84.74 64.19 C 87.38 65.49 87.54 67.46 87.36 70.16 C 87.20 73.67 87.08 77.19 86.78 80.69 L 84.91 80.81 C 84.88 79.32 84.85 77.83 84.81 76.34 C 80.66 76.42 76.51 76.40 72.35 76.30 C 72.07 78.26 71.98 80.09 71.13 81.90 L 69.86 81.08 C 69.34 76.76 69.55 72.30 69.76 67.96 C 69.85 65.60 71.70 63.99 73.96 63.72 Z" fill="#feeafc" />
<path d="M 101.88 63.88 C 105.54 63.43 109.31 63.70 113.00 63.61 C 115.88 63.68 118.47 63.31 121.10 64.74 C 120.67 68.51 120.75 72.79 119.34 76.35 C 117.82 78.13 114.15 77.32 112.00 77.52 C 109.37 77.70 105.70 76.81 103.55 78.55 C 108.67 79.00 113.75 78.48 118.85 79.40 C 118.76 81.40 118.61 83.40 118.35 85.39 C 111.99 84.93 105.47 85.69 99.15 84.96 C 96.26 84.40 97.49 80.93 97.45 78.85 C 98.15 76.44 98.82 74.02 99.39 71.57 C 104.19 71.26 108.98 71.31 113.79 71.35 C 113.75 70.84 113.72 70.33 113.68 69.82 C 108.75 69.83 103.84 69.86 98.91 69.75 C 99.53 67.46 98.91 64.44 101.88 63.88 Z" fill="#fefafd" />
<path d="M 134.05 63.94 C 139.29 63.28 144.72 63.77 150.00 63.66 L 150.00 77.11 C 145.81 77.40 141.49 76.93 137.34 77.47 C 136.78 77.90 136.23 78.36 135.70 78.83 C 140.50 79.30 145.17 79.10 150.00 79.21 L 150.00 85.36 L 149.72 85.34 C 143.27 84.84 136.51 85.94 130.17 84.71 L 129.64 84.02 C 129.64 80.38 129.91 76.54 131.01 73.06 C 131.37 72.30 131.87 71.85 132.49 71.71 C 137.21 70.61 142.88 72.46 147.26 70.42 C 141.88 69.31 136.39 70.09 130.90 69.53 C 131.72 67.85 131.73 64.24 134.05 63.94 Z" fill="#fef9fe" />
<path d="M 121.10 64.74 L 122.32 65.33 C 122.15 66.43 121.98 67.53 121.81 68.63 C 122.40 68.66 122.98 68.69 123.57 68.73 C 123.75 69.77 123.94 70.81 124.12 71.85 C 126.34 70.89 128.49 69.93 130.90 69.53 C 136.39 70.09 141.88 69.31 147.26 70.42 C 142.88 72.46 137.21 70.61 132.49 71.71 C 131.87 71.85 131.37 72.30 131.01 73.06 C 129.91 76.54 129.64 80.38 129.64 84.02 L 130.17 84.71 C 129.49 84.58 128.81 84.47 128.12 84.37 C 128.29 82.42 128.46 80.47 128.61 78.52 C 126.67 78.92 124.73 79.32 122.79 79.75 C 122.41 81.61 122.01 83.47 121.55 85.32 C 121.19 86.03 120.81 86.73 120.42 87.43 L 119.78 87.71 C 119.29 86.94 118.82 86.17 118.35 85.39 C 118.61 83.40 118.76 81.40 118.85 79.40 C 113.75 78.48 108.67 79.00 103.55 78.55 C 105.70 76.81 109.37 77.70 112.00 77.52 C 114.15 77.32 117.82 78.13 119.34 76.35 C 120.75 72.79 120.67 68.51 121.10 64.74 Z" fill="#731f65" />
<path d="M 36.29 66.45 C 36.97 66.48 37.65 66.51 38.34 66.56 C 38.33 68.14 38.31 69.72 38.29 71.31 C 34.06 71.28 29.84 71.28 25.61 71.30 C 25.60 69.69 25.59 68.08 25.58 66.47 C 27.94 67.46 30.29 68.50 32.63 69.55 C 33.83 68.49 35.02 67.43 36.29 66.45 Z" fill="#632451" />
<path d="M 73.25 66.28 C 76.64 65.82 82.04 65.08 84.96 67.12 C 85.52 69.31 85.27 71.81 85.23 74.06 C 80.78 74.23 76.34 74.19 71.90 74.02 C 72.15 72.00 71.02 67.26 73.25 66.28 Z" fill="#f9b5f0" />
<path d="M 95.79 66.28 L 95.49 67.22 C 96.72 68.20 97.98 69.12 99.21 70.09 L 99.39 71.57 C 98.82 74.02 98.15 76.44 97.45 78.85 C 96.92 80.17 96.31 81.47 95.72 82.77 C 92.82 79.97 89.90 77.23 87.37 74.08 C 90.25 71.55 93.12 69.02 95.79 66.28 Z" fill="#fb55f9" />
<path d="M 17.84 71.57 C 17.01 73.02 16.90 74.57 15.11 75.08 C 13.01 75.72 11.04 76.57 9.31 74.68 C 7.95 73.55 7.84 71.38 9.56 70.54 C 11.91 68.30 15.30 70.91 17.84 71.57 Z" fill="#361539" />
<path d="M 52.55 70.59 C 53.46 71.30 54.35 72.03 55.22 72.78 C 56.64 74.04 58.03 75.34 59.43 76.63 L 60.22 77.38 C 59.87 78.08 59.51 78.78 59.14 79.46 L 58.06 80.12 C 56.95 80.52 55.85 80.91 54.73 81.29 C 53.82 80.20 52.53 79.18 51.98 77.86 C 50.99 75.48 52.04 72.95 52.55 70.59 Z" fill="#f459f4" />
<path d="M 137.34 77.47 C 141.49 76.93 145.81 77.40 150.00 77.11 L 150.00 79.21 C 145.17 79.10 140.50 79.30 135.70 78.83 C 136.23 78.36 136.78 77.90 137.34 77.47 Z" fill="#a06e9b" />
<path d="M 97.45 78.85 C 97.49 80.93 96.26 84.40 99.15 84.96 C 105.47 85.69 111.99 84.93 118.35 85.39 C 118.82 86.17 119.29 86.94 119.78 87.71 C 114.60 90.09 109.40 89.05 104.11 90.24 L 103.36 90.49 C 100.86 87.87 98.29 85.32 95.72 82.77 C 96.31 81.47 96.92 80.17 97.45 78.85 Z" fill="#59204e" />
<path d="M 128.61 78.52 C 128.46 80.47 128.29 82.42 128.12 84.37 C 125.94 84.84 123.78 85.20 121.55 85.32 C 122.01 83.47 122.41 81.61 122.79 79.75 C 124.73 79.32 126.67 78.92 128.61 78.52 Z" fill="#fef6fa" />
<path d="M 0.00 81.75 C 0.66 82.63 1.33 83.49 2.05 84.31 C 2.75 84.40 3.45 84.48 4.15 84.56 C 4.37 84.84 4.59 85.11 4.82 85.39 C 9.51 85.96 13.81 86.80 18.57 86.13 C 23.99 85.33 29.32 84.07 34.77 83.47 C 34.97 84.15 35.17 84.83 35.37 85.50 C 39.82 85.47 43.96 86.96 48.46 86.54 C 48.92 86.06 49.38 85.58 49.85 85.09 C 50.38 85.73 50.92 86.37 51.46 87.01 C 49.67 88.68 47.92 90.38 46.14 92.06 C 47.25 93.23 48.36 94.40 49.47 95.56 C 47.31 95.60 45.33 95.41 43.25 94.80 C 39.18 93.65 34.99 94.19 30.84 93.27 C 25.83 92.51 21.01 91.01 16.79 94.82 C 14.52 96.26 17.88 99.03 18.23 100.83 C 18.21 101.69 18.16 102.55 18.07 103.40 C 11.94 97.53 6.02 91.44 0.00 85.45 L 0.00 81.75 Z" fill="#0f080e" />
<path d="M 78.86 83.31 C 79.35 83.11 79.85 82.91 80.34 82.71 C 81.56 83.64 82.76 84.93 84.21 85.47 C 86.56 86.00 89.36 85.12 91.68 84.67 C 93.65 88.48 96.88 89.72 100.46 91.59 C 101.42 91.22 102.39 90.85 103.36 90.49 L 104.11 90.24 C 104.58 91.62 104.39 92.80 103.52 93.76 C 100.75 96.23 98.15 98.93 95.55 101.59 C 94.69 102.47 93.84 103.35 92.98 104.24 C 89.83 101.11 86.70 97.95 83.54 94.83 C 81.10 92.49 78.98 89.77 76.40 87.59 C 75.79 87.36 75.20 87.37 74.62 87.63 C 72.05 89.82 69.93 92.55 67.51 94.93 C 64.34 97.99 61.27 101.16 58.10 104.24 C 55.27 101.31 52.33 98.47 49.47 95.56 C 48.36 94.40 47.25 93.23 46.14 92.06 C 47.92 90.38 49.67 88.68 51.46 87.01 C 52.26 86.25 53.04 85.48 53.82 84.70 C 54.40 84.06 54.95 83.39 55.50 82.73 C 56.14 83.34 56.78 83.95 57.42 84.57 C 61.21 84.45 64.62 84.14 68.10 86.02 C 71.60 84.94 75.32 81.28 78.86 83.31 Z" fill="#fdf5fc" />
<path d="M 128.12 84.37 C 128.81 84.47 129.49 84.58 130.17 84.71 C 136.51 85.94 143.27 84.84 149.72 85.34 C 149.34 86.47 148.82 87.43 148.16 88.24 C 144.15 89.21 140.44 89.80 136.29 89.11 C 130.51 89.69 125.92 89.43 120.42 87.43 C 120.81 86.73 121.19 86.03 121.55 85.32 C 123.78 85.20 125.94 84.84 128.12 84.37 Z" fill="#5a1f4f" />
<path d="M 0.00 85.45 C 6.02 91.44 11.94 97.53 18.07 103.40 C 23.68 109.29 29.57 114.91 35.27 120.71 C 37.48 122.95 40.10 125.15 41.87 127.73 C 40.41 128.88 38.65 126.21 37.58 125.41 C 25.15 112.77 12.51 100.35 0.00 87.79 L 0.00 85.45 Z" fill="#897481" />
<path d="M 149.72 85.34 L 150.00 85.36 L 150.00 88.52 C 147.24 91.44 144.36 94.26 141.50 97.09 C 140.59 96.22 139.67 95.35 138.76 94.48 C 137.72 95.48 136.69 96.57 135.52 97.43 C 134.01 97.49 132.46 97.18 130.96 96.98 C 130.15 97.42 129.33 97.87 128.51 98.32 C 127.98 97.77 127.45 97.21 126.91 96.65 C 122.08 96.32 116.97 98.69 112.94 96.04 C 110.07 94.69 106.63 94.33 103.52 93.76 C 104.39 92.80 104.58 91.62 104.11 90.24 C 109.40 89.05 114.60 90.09 119.78 87.71 L 120.42 87.43 C 125.92 89.43 130.51 89.69 136.29 89.11 C 140.44 89.80 144.15 89.21 148.16 88.24 C 148.82 87.43 149.34 86.47 149.72 85.34 Z" fill="#2d1227" />
<path d="M 74.62 87.63 C 75.20 87.37 75.79 87.36 76.40 87.59 C 78.98 89.77 81.10 92.49 83.54 94.83 C 80.85 97.12 78.43 99.66 75.96 102.18 C 73.15 99.81 70.73 97.04 67.92 94.68 L 67.51 94.93 C 69.93 92.55 72.05 89.82 74.62 87.63 Z" fill="#f95ef6" />
<path d="M 0.00 87.79 C 12.51 100.35 25.15 112.77 37.58 125.41 C 38.65 126.21 40.41 128.88 41.87 127.73 C 40.10 125.15 37.48 122.95 35.27 120.71 C 29.57 114.91 23.68 109.29 18.07 103.40 C 18.16 102.55 18.21 101.69 18.23 100.83 C 17.88 99.03 14.52 96.26 16.79 94.82 C 21.01 91.01 25.83 92.51 30.84 93.27 C 34.99 94.19 39.18 93.65 43.25 94.80 C 45.33 95.41 47.31 95.60 49.47 95.56 C 52.33 98.47 55.27 101.31 58.10 104.24 C 61.27 101.16 64.34 97.99 67.51 94.93 L 67.92 94.68 C 70.73 97.04 73.15 99.81 75.96 102.18 C 78.43 99.66 80.85 97.12 83.54 94.83 C 86.70 97.95 89.83 101.11 92.98 104.24 C 93.84 103.35 94.69 102.47 95.55 101.59 C 96.23 101.98 96.92 102.37 97.60 102.76 C 98.47 101.61 99.35 100.45 100.22 99.30 C 100.81 100.55 101.39 101.81 101.98 103.06 C 102.97 102.57 103.95 102.07 104.94 101.58 C 107.23 101.91 109.52 102.24 111.81 102.56 C 112.05 105.68 112.19 108.80 112.24 111.93 C 108.96 112.05 105.59 111.80 102.33 112.20 L 102.45 113.65 C 106.29 114.19 110.30 113.91 114.17 113.88 C 114.45 110.09 114.47 106.30 114.60 102.51 C 116.57 104.78 116.05 108.72 116.54 111.57 C 116.80 110.11 117.03 108.65 117.27 107.18 C 118.30 107.33 119.36 107.46 120.36 107.70 C 121.24 109.48 121.24 111.78 121.54 113.73 C 120.45 114.91 119.36 116.09 118.28 117.27 C 118.60 117.99 118.92 118.71 119.23 119.43 C 116.28 122.48 113.10 124.56 111.39 128.53 C 112.87 127.66 114.25 126.70 115.44 125.46 C 120.06 120.73 124.78 116.11 129.42 111.41 C 130.55 110.21 131.74 109.62 133.28 109.12 C 133.17 108.76 133.06 108.40 132.94 108.04 C 133.82 108.24 134.70 108.43 135.59 108.63 C 136.38 107.32 136.76 105.13 138.40 104.74 C 141.81 103.49 145.04 102.15 148.13 100.23 C 148.76 100.99 149.39 101.75 150.00 102.52 L 150.00 150.00 L 0.00 150.00 L 0.00 87.79 Z" fill="#000000" />
<path d="M 150.00 88.52 L 150.00 91.07 C 144.16 96.55 138.46 102.24 132.94 108.04 C 133.06 108.40 133.17 108.76 133.28 109.12 C 131.74 109.62 130.55 110.21 129.42 111.41 C 124.78 116.11 120.06 120.73 115.44 125.46 C 114.25 126.70 112.87 127.66 111.39 128.53 C 113.10 124.56 116.28 122.48 119.23 119.43 C 126.79 112.11 133.98 104.44 141.50 97.09 C 144.36 94.26 147.24 91.44 150.00 88.52 Z" fill="#8b6c80" />
<path d="M 150.00 91.07 L 150.00 102.52 C 149.39 101.75 148.76 100.99 148.13 100.23 C 145.04 102.15 141.81 103.49 138.40 104.74 C 136.76 105.13 136.38 107.32 135.59 108.63 C 134.70 108.43 133.82 108.24 132.94 108.04 C 138.46 102.24 144.16 96.55 150.00 91.07 Z" fill="#160711" />
<path d="M 103.52 93.76 C 106.63 94.33 110.07 94.69 112.94 96.04 C 116.97 98.69 122.08 96.32 126.91 96.65 C 127.45 97.21 127.98 97.77 128.51 98.32 C 129.33 97.87 130.15 97.42 130.96 96.98 C 132.46 97.18 134.01 97.49 135.52 97.43 C 136.69 96.57 137.72 95.48 138.76 94.48 C 139.67 95.35 140.59 96.22 141.50 97.09 C 133.98 104.44 126.79 112.11 119.23 119.43 C 118.92 118.71 118.60 117.99 118.28 117.27 C 119.36 116.09 120.45 114.91 121.54 113.73 C 121.24 111.78 121.24 109.48 120.36 107.70 C 119.36 107.46 118.30 107.33 117.27 107.18 C 117.03 108.65 116.80 110.11 116.54 111.57 C 116.05 108.72 116.57 104.78 114.60 102.51 C 114.07 102.12 113.53 101.73 112.98 101.35 C 112.92 104.87 113.02 108.38 112.96 111.90 L 112.24 111.93 C 112.19 108.80 112.05 105.68 111.81 102.56 C 109.52 102.24 107.23 101.91 104.94 101.58 C 103.95 102.07 102.97 102.57 101.98 103.06 C 101.39 101.81 100.81 100.55 100.22 99.30 C 99.35 100.45 98.47 101.61 97.60 102.76 C 96.92 102.37 96.23 101.98 95.55 101.59 C 98.15 98.93 100.75 96.23 103.52 93.76 Z" fill="#120810" />
<path d="M 112.98 101.35 C 113.53 101.73 114.07 102.12 114.60 102.51 C 114.47 106.30 114.45 110.09 114.17 113.88 C 110.30 113.91 106.29 114.19 102.45 113.65 L 102.33 112.20 C 105.59 111.80 108.96 112.05 112.24 111.93 L 112.96 111.90 C 113.02 108.38 112.92 104.87 112.98 101.35 Z" fill="#8a888a" />
</svg>