<?xml version="1.0" encoding="UTF-8" standalone="no"?>
<!DOCTYPE svg PUBLIC "-//W3C//DTD SVG 1.1//EN" "http://www.w3.org/Graphics/SVG/1.1/DTD/svg11.dtd">
<svg xmlns="http://www.w3.org/2000/svg" version="1.1" viewBox="0 0 1024 1024" width="1024.0pt" height="1024.0pt">
<path d="M 0.00 0.00 L 201.07 0.00 L 201.70 0.71 L 202.23 1.32 C 202.82 2.02 203.40 2.71 203.98 3.41 C 202.97 3.97 201.94 4.61 200.84 4.98 C 198.57 5.05 196.15 4.31 193.89 4.63 C 191.45 4.92 191.83 7.56 191.33 9.40 C 190.90 14.32 189.41 19.39 185.72 22.86 C 184.02 23.65 181.75 23.38 179.91 23.54 C 179.22 26.50 178.87 29.51 178.42 32.51 C 177.99 35.55 175.99 38.22 174.85 41.16 C 174.13 42.81 173.69 44.75 172.66 46.22 C 169.12 48.41 166.29 45.97 163.03 44.59 C 159.51 48.33 157.11 52.66 154.70 57.14 C 153.45 59.07 151.66 62.45 148.96 62.16 C 144.73 62.07 140.59 61.53 136.35 62.06 C 128.87 62.99 121.45 62.45 113.95 62.76 C 103.28 63.22 92.61 62.34 81.93 62.79 C 77.37 63.03 72.74 62.51 68.20 63.00 C 67.40 63.60 66.95 64.30 66.87 65.12 C 66.26 69.33 66.64 73.75 66.62 78.00 C 66.65 94.00 66.55 110.00 66.64 126.00 C 66.73 133.04 65.46 139.96 65.55 147.00 C 65.61 155.67 65.62 164.33 65.54 173.00 C 65.40 179.20 66.59 185.06 65.96 191.22 C 65.15 198.22 66.19 204.98 66.12 212.00 C 66.16 232.67 66.39 253.33 66.27 274.00 C 66.17 281.07 66.89 287.88 65.82 294.92 C 65.06 299.43 66.19 303.49 66.34 307.99 C 66.68 332.02 66.19 355.98 65.81 380.00 C 66.38 391.33 65.93 402.65 66.16 414.00 C 65.55 443.99 65.79 473.98 65.62 504.00 C 65.56 509.02 66.22 513.97 66.55 518.97 C 67.18 528.09 64.73 536.85 65.86 546.01 C 66.82 553.42 65.54 560.59 65.65 568.00 C 65.73 575.83 65.29 583.54 66.14 591.35 C 67.02 600.14 66.13 608.63 66.41 617.46 C 66.59 623.64 65.64 629.75 65.84 635.93 C 66.05 643.30 65.36 650.63 65.55 658.00 C 65.63 664.70 66.76 671.29 66.66 678.00 C 66.53 694.65 66.63 711.34 66.63 727.98 C 66.68 731.25 65.64 733.91 64.03 736.70 C 62.64 734.79 61.05 733.46 61.11 730.90 C 61.24 725.50 65.04 720.86 64.23 714.97 C 63.39 709.83 60.64 704.77 56.63 701.41 C 55.35 700.10 53.33 698.90 53.22 696.94 C 52.37 690.58 54.07 683.53 52.86 677.20 C 52.56 676.04 52.18 674.47 50.80 674.22 C 47.76 673.33 44.41 673.25 41.39 672.29 C 38.44 671.18 35.94 669.12 32.95 668.03 C 30.03 666.87 26.68 666.39 23.93 664.89 C 22.48 663.70 21.44 661.91 20.31 660.42 C 18.33 657.67 16.16 655.56 14.57 652.59 C 13.38 650.46 12.41 648.00 10.88 646.11 C 8.46 643.25 4.67 641.65 2.19 638.96 C 0.91 637.12 0.48 634.59 0.00 632.45 L 0.00 0.00 Z" fill="#cdf0f5" />
<path d="M 201.07 0.00 L 539.27 0.00 C 535.35 10.27 534.04 21.04 534.08 31.98 C 534.39 36.09 536.18 39.88 536.46 44.04 C 536.83 50.28 537.15 56.24 535.76 62.37 C 549.80 63.16 563.93 62.38 578.00 62.68 C 632.24 62.61 686.77 62.63 741.02 62.64 C 756.00 61.77 771.27 63.32 786.17 61.94 C 793.66 60.69 801.01 61.51 808.52 61.37 C 823.32 60.74 838.09 62.32 852.91 61.73 C 859.97 61.35 866.95 62.04 874.00 62.08 C 892.46 62.13 911.18 62.71 929.64 61.90 C 932.09 61.84 934.53 61.98 936.97 62.11 C 943.79 62.55 950.60 61.95 957.42 62.56 C 958.02 70.05 957.71 77.50 957.66 85.00 C 957.69 110.67 957.76 136.33 957.96 162.00 C 958.07 168.60 957.59 174.78 959.32 181.24 C 959.94 179.30 960.50 177.35 961.02 175.38 C 963.10 174.72 965.19 174.08 967.27 173.43 C 967.60 171.39 967.95 169.36 968.32 167.33 C 969.25 167.22 970.17 167.11 971.10 167.00 C 971.10 169.96 971.61 172.50 972.57 175.30 C 970.54 175.68 968.53 176.10 966.52 176.58 C 970.66 177.84 974.59 178.50 977.82 181.62 C 978.08 179.74 978.11 177.64 978.85 175.88 C 979.84 174.18 981.49 172.79 982.87 171.39 C 983.35 172.74 983.84 174.08 984.34 175.42 C 985.60 172.97 986.57 170.44 987.39 167.81 C 988.07 170.87 988.33 173.82 988.30 176.96 C 990.45 177.34 992.61 177.64 994.78 177.89 C 994.65 173.29 994.37 168.76 995.01 164.19 C 996.51 164.72 998.20 165.15 999.53 166.03 C 1000.61 168.73 1000.73 171.89 1001.19 174.76 C 1001.72 173.90 1002.25 173.05 1002.78 172.20 C 1004.20 171.60 1006.00 171.17 1007.13 170.10 C 1007.21 168.75 1007.09 167.37 1007.01 166.02 C 1008.96 165.59 1011.21 165.24 1012.95 164.22 C 1013.76 160.88 1013.77 157.33 1014.25 153.92 C 1016.87 158.68 1017.27 163.72 1017.54 169.03 C 1019.36 169.39 1021.12 169.69 1022.82 170.44 C 1022.76 173.15 1022.19 175.95 1021.68 178.62 C 1022.46 179.44 1023.24 180.26 1024.00 181.10 L 1024.00 239.85 C 1021.39 240.78 1018.78 241.67 1016.14 242.50 C 1014.29 240.11 1012.47 237.71 1010.79 235.20 C 1012.18 230.61 1010.85 225.57 1011.89 220.81 C 1009.35 223.79 1007.12 226.62 1006.98 230.72 C 1006.88 235.39 1007.77 240.67 1010.49 244.56 C 1011.71 247.00 1014.54 245.04 1016.45 244.74 C 1014.82 246.55 1012.64 248.65 1011.97 251.04 C 1012.92 253.85 1014.13 256.54 1014.74 259.46 C 1013.38 259.20 1012.02 258.93 1010.66 258.65 C 1011.27 260.74 1011.88 262.83 1012.47 264.92 C 1014.02 263.60 1015.58 262.30 1017.17 261.05 C 1016.37 262.58 1015.85 265.15 1014.06 265.78 C 1012.75 266.45 1011.33 266.98 1009.96 267.52 C 1011.75 272.05 1012.16 274.81 1011.60 279.63 C 1014.56 282.79 1016.22 286.54 1019.80 289.11 C 1020.01 291.42 1020.13 293.75 1020.22 296.07 C 1018.93 295.00 1017.64 293.92 1016.35 292.84 C 1015.05 294.51 1013.76 296.19 1012.47 297.86 C 1011.89 296.81 1011.30 295.75 1010.71 294.70 C 1009.24 296.43 1008.26 298.18 1007.42 300.29 C 1011.59 299.41 1014.42 300.36 1018.16 302.10 C 1017.38 303.80 1016.75 306.19 1015.21 307.31 C 1012.57 308.83 1008.82 308.09 1006.10 309.28 C 1003.66 312.31 1007.76 318.05 1005.60 321.35 C 1004.05 323.41 1001.15 324.57 998.72 325.21 C 996.34 325.95 994.53 324.47 992.42 323.58 C 991.74 326.52 990.93 329.42 990.26 332.36 C 989.45 335.72 990.03 338.82 990.02 342.33 C 992.39 341.92 994.95 341.31 997.34 341.53 C 998.71 342.38 999.50 344.27 1000.45 345.57 C 1004.15 345.76 1005.89 348.05 1008.73 350.00 C 1011.04 351.04 1013.67 351.33 1016.04 352.27 C 1016.53 349.71 1017.13 347.20 1018.25 344.83 C 1020.24 340.58 1021.56 336.13 1024.00 332.09 L 1024.00 489.73 C 1022.35 488.55 1020.39 487.54 1018.98 486.06 C 1017.31 483.07 1016.60 479.44 1015.61 476.17 C 1014.88 478.02 1014.36 480.46 1012.87 481.83 C 1011.02 483.63 1009.11 485.35 1007.39 487.29 C 1006.70 485.80 1006.01 484.33 1005.30 482.85 C 1002.51 485.29 1000.04 487.86 997.85 490.85 C 996.49 487.84 995.80 486.60 992.54 485.43 C 993.01 487.48 993.54 489.52 994.10 491.55 C 992.60 490.79 991.10 490.04 989.59 489.30 C 991.41 491.50 993.51 493.52 995.12 495.86 C 995.39 501.06 993.83 506.40 993.64 511.64 C 994.34 511.24 995.03 510.83 995.73 510.43 C 997.17 514.73 998.63 519.02 1000.13 523.30 C 998.45 523.91 996.76 524.52 995.07 525.11 C 994.33 522.98 993.60 520.85 992.87 518.72 C 991.82 518.97 990.78 519.22 989.73 519.47 C 988.91 518.46 988.00 517.46 987.37 516.32 C 987.47 514.35 988.28 512.36 988.08 510.28 C 987.85 508.01 987.26 505.76 986.78 503.53 C 987.65 503.11 988.53 502.69 989.40 502.28 C 989.58 501.53 989.76 500.78 989.94 500.03 C 986.55 500.54 982.97 500.86 979.70 501.91 C 976.63 502.75 974.89 505.96 973.08 508.34 C 975.03 508.89 976.99 509.40 978.95 509.91 C 977.10 510.80 975.26 511.70 973.41 512.61 C 973.89 514.28 974.37 515.95 974.85 517.63 C 973.79 517.28 972.73 516.93 971.68 516.58 C 969.42 523.40 971.69 529.31 974.33 535.61 C 972.20 534.24 970.01 533.03 967.68 532.01 C 967.51 533.47 967.33 534.93 967.15 536.39 C 965.35 534.68 964.03 532.99 962.84 530.82 C 964.06 530.56 965.28 530.30 966.50 530.05 C 965.82 529.02 965.14 527.99 964.46 526.97 C 964.89 525.19 965.31 523.41 965.70 521.63 C 963.91 522.73 961.49 523.48 960.78 525.67 C 959.27 529.55 959.98 533.14 961.07 536.99 C 961.85 539.47 960.51 541.88 960.73 544.39 C 961.26 546.16 962.22 547.84 963.06 549.48 C 961.98 551.93 960.64 554.47 960.11 557.10 C 959.76 560.31 960.76 563.55 960.37 566.81 C 959.93 570.56 958.87 574.05 958.95 577.89 C 959.04 582.43 959.79 586.77 959.20 591.34 C 958.53 596.45 957.93 601.55 957.86 606.72 C 957.65 612.52 958.52 618.24 958.23 624.04 C 957.55 634.67 957.93 645.34 957.66 656.00 C 958.08 671.25 957.09 686.47 957.78 701.72 C 957.46 719.15 957.58 736.57 957.61 753.99 C 958.25 766.02 957.04 777.98 957.87 790.01 C 958.31 796.05 957.54 801.96 957.57 808.00 C 957.71 830.33 957.56 852.67 957.59 875.00 C 957.59 882.35 957.39 889.68 957.88 897.02 C 958.36 904.06 957.53 910.98 957.63 918.00 C 957.65 921.94 958.74 925.75 958.23 929.54 C 957.85 932.69 957.48 935.82 957.54 939.01 C 957.72 946.69 956.97 954.01 959.04 961.54 C 943.03 961.82 927.01 961.39 911.00 961.84 C 902.29 962.20 893.99 961.33 885.37 963.21 C 881.48 964.13 876.68 964.14 873.19 966.18 C 870.86 968.02 872.79 971.11 873.26 973.39 C 874.38 971.93 875.29 970.43 876.11 968.78 C 879.87 968.89 884.00 968.51 887.63 969.58 C 890.81 971.17 892.52 975.48 895.23 977.79 C 896.74 978.20 898.50 977.84 900.04 977.73 C 900.11 981.51 902.60 983.49 905.20 985.83 C 907.26 987.58 909.58 988.58 912.01 989.70 C 912.79 988.02 913.47 986.18 914.56 984.68 C 915.87 984.29 917.40 984.52 918.75 984.50 C 918.71 987.43 918.47 990.28 918.03 993.18 C 916.20 993.05 914.37 992.92 912.54 992.80 C 913.43 996.60 914.60 1000.04 913.70 1003.97 C 909.94 1002.19 906.15 1000.50 902.23 999.11 C 901.31 1002.67 901.03 1005.47 901.60 1009.06 C 902.19 1012.13 899.59 1015.59 902.03 1017.86 C 903.89 1019.86 907.78 1019.84 910.30 1020.46 C 910.65 1021.64 911.02 1022.82 911.40 1024.00 L 259.85 1024.00 C 260.22 1021.44 261.29 1017.82 260.23 1015.34 C 258.47 1014.59 256.32 1014.34 254.66 1013.37 C 253.60 1012.51 252.66 1011.42 251.74 1010.40 C 253.24 1009.72 254.84 1009.09 256.22 1008.18 C 257.18 1003.74 256.98 999.01 257.35 994.49 C 259.20 995.36 261.05 996.21 262.91 997.06 C 263.62 996.52 264.32 995.98 265.03 995.45 C 263.25 993.83 260.88 992.18 259.78 990.00 C 258.93 988.04 260.39 985.64 261.08 983.80 C 261.44 985.56 261.77 987.33 262.10 989.10 C 263.82 987.66 266.16 986.18 267.18 984.14 C 267.89 981.64 267.31 978.68 267.15 976.12 C 267.95 977.30 268.76 978.49 269.57 979.67 C 269.94 978.62 270.31 977.57 270.69 976.52 C 271.29 976.27 271.90 976.02 272.51 975.77 C 272.47 977.51 272.43 979.26 272.39 981.00 C 275.96 978.79 280.56 976.26 282.64 972.47 C 283.65 970.80 283.07 968.67 282.92 966.84 C 284.55 966.35 286.17 965.87 287.80 965.39 C 287.46 964.39 287.12 963.38 286.78 962.38 C 277.20 961.80 267.60 962.44 258.02 962.04 C 250.68 961.14 243.38 961.31 236.00 961.38 C 218.01 961.11 199.95 961.80 182.00 961.03 C 173.67 960.65 165.39 961.61 157.05 961.19 C 141.02 960.59 125.03 961.37 109.00 961.02 C 99.74 961.53 90.48 960.79 81.23 961.31 C 77.79 961.44 74.71 962.91 71.36 963.37 C 68.43 961.95 66.80 957.83 65.31 955.10 C 64.28 956.21 63.23 957.32 62.18 958.42 C 61.94 956.32 61.64 954.10 61.74 951.98 C 61.74 947.63 66.96 946.64 66.57 942.09 C 66.80 924.74 66.08 907.36 66.54 890.00 C 66.65 886.41 66.44 882.83 66.08 879.26 C 62.45 882.38 58.74 885.30 54.54 887.62 C 50.80 889.65 48.04 892.66 45.29 895.84 C 41.37 892.17 37.84 888.35 35.56 883.43 C 32.04 877.29 30.69 870.76 26.04 865.94 C 22.02 861.63 17.87 857.42 13.92 853.04 C 10.55 849.28 8.17 844.93 5.01 840.96 C 3.04 838.19 0.67 835.85 1.82 832.13 C 3.86 827.39 8.80 824.11 11.41 819.56 C 13.68 815.54 15.78 811.50 18.67 807.87 C 18.41 806.99 18.15 806.10 17.89 805.21 C 16.25 805.69 14.27 806.00 12.86 807.00 C 10.54 809.26 9.44 812.91 7.52 815.53 C 6.26 816.91 4.29 817.60 3.01 818.97 C 1.67 821.02 0.83 823.43 0.00 825.72 L 0.00 632.45 C 0.48 634.59 0.91 637.12 2.19 638.96 C 4.67 641.65 8.46 643.25 10.88 646.11 C 12.41 648.00 13.38 650.46 14.57 652.59 C 16.16 655.56 18.33 657.67 20.31 660.42 C 21.44 661.91 22.48 663.70 23.93 664.89 C 26.68 666.39 30.03 666.87 32.95 668.03 C 35.94 669.12 38.44 671.18 41.39 672.29 C 44.41 673.25 47.76 673.33 50.80 674.22 C 52.18 674.47 52.56 676.04 52.86 677.20 C 54.07 683.53 52.37 690.58 53.22 696.94 C 53.33 698.90 55.35 700.10 56.63 701.41 C 60.64 704.77 63.39 709.83 64.23 714.97 C 65.04 720.86 61.24 725.50 61.11 730.90 C 61.05 733.46 62.64 734.79 64.03 736.70 C 65.64 733.91 66.68 731.25 66.63 727.98 C 66.63 711.34 66.53 694.65 66.66 678.00 C 66.76 671.29 65.63 664.70 65.55 658.00 C 65.36 650.63 66.05 643.30 65.84 635.93 C 65.64 629.75 66.59 623.64 66.41 617.46 C 66.13 608.63 67.02 600.14 66.14 591.35 C 65.29 583.54 65.73 575.83 65.65 568.00 C 65.54 560.59 66.82 553.42 65.86 546.01 C 64.73 536.85 67.18 528.09 66.55 518.97 C 66.22 513.97 65.56 509.02 65.62 504.00 C 65.79 473.98 65.55 443.99 66.16 414.00 C 65.93 402.65 66.38 391.33 65.81 380.00 C 66.19 355.98 66.68 332.02 66.34 307.99 C 66.19 303.49 65.06 299.43 65.82 294.92 C 66.89 287.88 66.17 281.07 66.27 274.00 C 66.39 253.33 66.16 232.67 66.12 212.00 C 66.19 204.98 65.15 198.22 65.96 191.22 C 66.59 185.06 65.40 179.20 65.54 173.00 C 65.62 164.33 65.61 155.67 65.55 147.00 C 65.46 139.96 66.73 133.04 66.64 126.00 C 66.55 110.00 66.65 94.00 66.62 78.00 C 66.64 73.75 66.26 69.33 66.87 65.12 C 66.95 64.30 67.40 63.60 68.20 63.00 C 72.74 62.51 77.37 63.03 81.93 62.79 C 92.61 62.34 103.28 63.22 113.95 62.76 C 121.45 62.45 128.87 62.99 136.35 62.06 C 140.59 61.53 144.73 62.07 148.96 62.16 C 151.66 62.45 153.45 59.07 154.70 57.14 C 157.11 52.66 159.51 48.33 163.03 44.59 C 166.29 45.97 169.12 48.41 172.66 46.22 C 173.69 44.75 174.13 42.81 174.85 41.16 C 175.99 38.22 177.99 35.55 178.42 32.51 C 178.87 29.51 179.22 26.50 179.91 23.54 C 181.75 23.38 184.02 23.65 185.72 22.86 C 189.41 19.39 190.90 14.32 191.33 9.40 C 191.83 7.56 191.45 4.92 193.89 4.63 C 196.15 4.31 198.57 5.05 200.84 4.98 C 201.94 4.61 202.97 3.97 203.98 3.41 C 203.40 2.71 202.82 2.02 202.23 1.32 L 201.70 0.71 L 201.07 0.00 Z" fill="#fdfefe" />
<path d="M 539.27 0.00 L 1024.00 0.00 L 1024.00 181.10 C 1023.24 180.26 1022.46 179.44 1021.68 178.62 C 1022.19 175.95 1022.76 173.15 1022.82 170.44 C 1021.12 169.69 1019.36 169.39 1017.54 169.03 C 1017.27 163.72 1016.87 158.68 1014.25 153.92 C 1013.77 157.33 1013.76 160.88 1012.95 164.22 C 1011.21 165.24 1008.96 165.59 1007.01 166.02 C 1007.09 167.37 1007.21 168.75 1007.13 170.10 C 1006.00 171.17 1004.20 171.60 1002.78 172.20 C 1002.25 173.05 1001.72 173.90 1001.19 174.76 C 1000.73 171.89 1000.61 168.73 999.53 166.03 C 998.20 165.15 996.51 164.72 995.01 164.19 C 994.37 168.76 994.65 173.29 994.78 177.89 C 992.61 177.64 990.45 177.34 988.30 176.96 C 988.33 173.82 988.07 170.87 987.39 167.81 C 986.57 170.44 985.60 172.97 984.34 175.42 C 983.84 174.08 983.35 172.74 982.87 171.39 C 981.49 172.79 979.84 174.18 978.85 175.88 C 978.11 177.64 978.08 179.74 977.82 181.62 C 974.59 178.50 970.66 177.84 966.52 176.58 C 968.53 176.10 970.54 175.68 972.57 175.30 C 971.61 172.50 971.10 169.96 971.10 167.00 C 970.17 167.11 969.25 167.22 968.32 167.33 C 967.95 169.36 967.60 171.39 967.27 173.43 C 965.19 174.08 963.10 174.72 961.02 175.38 C 960.50 177.35 959.94 179.30 959.32 181.24 C 957.59 174.78 958.07 168.60 957.96 162.00 C 957.76 136.33 957.69 110.67 957.66 85.00 C 957.71 77.50 958.02 70.05 957.42 62.56 C 950.60 61.95 943.79 62.55 936.97 62.11 C 934.53 61.98 932.09 61.84 929.64 61.90 C 911.18 62.71 892.46 62.13 874.00 62.08 C 866.95 62.04 859.97 61.35 852.91 61.73 C 838.09 62.32 823.32 60.74 808.52 61.37 C 801.01 61.51 793.66 60.69 786.17 61.94 C 771.27 63.32 756.00 61.77 741.02 62.64 C 686.77 62.63 632.24 62.61 578.00 62.68 C 563.93 62.38 549.80 63.16 535.76 62.37 C 537.15 56.24 536.83 50.28 536.46 44.04 C 536.18 39.88 534.39 36.09 534.08 31.98 C 534.04 21.04 535.35 10.27 539.27 0.00 Z" fill="#cdf0f5" />
<path d="M 472.99 151.25 C 490.27 151.18 507.81 150.56 525.00 152.32 C 536.77 153.09 548.60 155.77 560.25 157.75 C 571.50 159.77 582.59 162.85 593.33 166.74 C 597.81 168.39 602.92 169.49 606.98 172.03 C 610.54 174.20 611.08 178.97 610.61 182.73 C 610.24 184.75 609.33 187.06 606.90 187.02 C 600.29 187.52 593.10 184.07 586.93 181.96 C 577.22 178.76 567.82 175.27 557.70 173.52 C 550.91 172.43 544.18 171.01 537.42 169.81 C 522.99 168.07 508.57 166.83 494.05 166.37 C 478.71 166.05 464.07 168.75 448.84 169.87 C 435.92 171.86 422.46 174.69 409.85 178.13 C 401.05 181.31 392.14 182.74 383.74 186.83 C 375.23 190.91 366.30 193.64 357.99 198.05 C 355.10 199.57 352.14 200.94 349.20 202.36 C 343.56 205.08 338.66 208.99 333.17 212.19 C 325.07 216.95 317.11 221.90 309.78 227.81 C 300.20 234.81 290.93 242.12 282.63 250.63 C 273.91 258.66 265.53 266.96 258.59 276.61 C 252.98 282.46 248.34 288.97 243.51 295.44 C 240.32 299.88 238.23 304.84 235.16 309.34 C 233.14 312.30 230.89 315.00 229.18 318.17 C 223.47 329.42 216.49 339.42 212.51 351.56 C 211.07 356.34 209.30 360.61 206.87 364.97 C 201.17 375.65 198.58 388.73 195.09 400.16 C 193.21 406.24 192.94 412.51 191.35 418.63 C 188.68 428.13 187.56 438.26 187.87 448.11 C 193.86 444.72 197.65 439.02 203.75 435.86 C 210.36 431.94 216.78 427.96 223.92 425.02 C 240.59 416.60 258.83 415.71 277.12 416.89 C 285.75 417.49 292.99 420.86 301.45 422.77 C 309.17 424.67 313.73 429.62 320.87 433.13 C 326.11 435.68 330.52 439.30 334.69 443.32 C 339.20 447.36 341.97 453.70 344.91 458.97 C 347.97 464.61 347.46 470.43 349.58 476.35 C 353.75 473.24 356.91 469.25 360.60 465.66 C 362.92 463.25 365.95 463.76 369.02 463.44 C 375.60 463.19 382.81 461.88 388.51 458.44 C 395.23 453.77 396.71 446.36 398.89 439.02 C 403.56 423.92 406.23 408.13 409.59 392.69 C 413.85 372.16 417.37 351.48 421.68 330.95 C 423.21 321.71 425.70 312.64 426.79 303.34 C 414.11 303.26 400.62 306.68 390.42 314.45 C 382.86 319.58 377.22 327.29 373.82 335.69 C 371.39 341.69 371.06 347.76 370.02 354.05 C 369.61 355.75 369.44 357.86 367.76 358.84 C 364.63 360.89 360.67 361.93 357.21 363.34 C 352.23 365.16 348.25 368.44 342.94 369.52 C 342.64 365.89 342.68 362.37 343.72 358.85 C 347.24 346.16 350.44 333.45 359.29 323.26 C 364.13 317.98 369.39 312.18 375.57 308.52 C 380.45 305.51 385.55 302.89 390.91 300.86 C 398.31 298.07 405.50 295.34 413.34 294.09 C 420.51 292.95 427.79 292.38 435.01 291.56 C 440.38 290.98 445.59 290.13 451.00 289.85 C 459.59 289.39 467.95 290.06 476.58 290.45 C 483.98 290.78 491.08 292.04 498.35 293.37 C 506.06 294.75 513.25 297.88 519.82 302.11 C 524.85 305.29 528.50 310.75 530.93 316.08 C 534.29 323.87 533.20 332.26 531.40 340.28 C 530.01 346.47 526.39 350.80 523.12 356.07 C 521.06 359.34 518.58 362.17 515.48 364.50 C 509.14 369.27 502.91 373.71 495.58 376.82 C 489.50 379.62 483.10 381.41 476.87 383.83 C 481.37 386.36 486.20 388.05 490.93 390.09 C 501.78 394.89 511.52 400.83 517.83 411.22 C 521.35 417.73 524.66 425.47 523.11 433.00 C 520.97 443.06 516.22 452.70 509.48 460.48 C 503.80 466.37 496.50 470.88 489.08 474.23 C 482.98 476.99 476.96 480.55 470.66 482.61 C 459.09 486.23 447.18 488.25 435.12 489.35 C 423.17 490.27 411.08 488.46 398.96 488.57 C 388.59 488.70 378.36 487.15 368.00 487.31 C 361.14 487.44 354.16 485.90 347.36 486.58 C 344.47 486.74 342.80 490.17 341.15 492.17 C 337.78 497.03 333.36 500.19 328.76 503.76 C 325.83 505.99 322.80 507.97 319.28 509.13 C 309.47 512.39 298.39 514.35 288.08 513.11 C 278.91 511.11 270.55 505.49 265.35 497.64 C 262.23 493.55 261.56 488.38 262.54 483.42 C 263.32 480.04 265.61 476.86 269.07 475.90 C 273.37 474.63 277.93 475.81 281.28 478.72 C 287.14 483.50 289.23 491.62 295.10 495.89 C 299.18 498.61 304.99 500.49 309.83 498.91 C 314.31 497.53 318.48 494.93 322.36 492.35 C 326.72 489.49 329.92 484.89 332.02 480.19 C 334.97 473.23 334.22 465.26 330.00 458.99 C 322.68 448.19 311.25 440.06 299.00 435.76 C 295.10 434.32 290.76 432.50 286.59 432.37 C 284.31 432.17 282.96 434.08 281.41 435.43 C 277.77 439.18 273.72 442.33 269.30 445.11 C 265.42 447.50 261.63 450.80 257.35 452.17 C 251.64 454.11 245.94 454.58 240.20 456.19 C 236.73 457.14 233.61 458.33 229.97 458.55 C 226.45 458.84 222.69 458.43 219.24 459.20 C 216.84 459.96 214.84 462.33 213.04 464.02 C 218.72 464.51 224.28 465.21 229.79 466.75 C 230.56 465.98 231.34 465.20 232.11 464.42 C 232.45 467.16 233.83 471.57 231.69 473.74 C 229.28 476.06 225.27 476.89 222.26 478.25 C 217.23 480.22 214.24 483.92 209.79 486.71 C 207.32 488.30 204.58 489.54 202.20 491.25 C 199.73 493.05 198.09 495.84 195.97 498.04 C 193.97 500.10 191.13 501.29 189.15 503.32 C 187.71 505.32 187.95 508.38 188.06 510.72 C 188.42 515.02 188.61 519.38 189.31 523.64 C 190.52 529.92 194.18 535.86 198.61 540.39 C 201.71 543.53 204.68 547.13 208.25 549.72 C 214.20 553.80 219.91 558.00 226.73 560.58 C 234.00 564.22 241.71 566.50 249.49 568.74 C 255.14 570.29 261.36 570.40 267.23 570.89 C 275.11 571.55 283.13 571.44 291.04 571.23 C 297.60 571.12 303.46 568.97 309.93 568.13 C 316.46 567.22 322.60 565.09 327.35 560.35 C 331.99 555.63 337.47 552.64 342.97 549.09 C 354.28 541.58 367.13 538.67 378.84 531.84 C 382.97 529.40 387.41 528.06 392.09 527.15 C 398.26 525.98 403.87 523.20 410.06 522.23 C 415.15 521.39 420.34 521.14 425.47 520.49 C 431.45 519.78 436.91 518.51 442.99 518.87 C 448.02 519.16 453.03 519.32 458.08 519.33 C 465.40 519.33 472.30 520.52 479.56 521.57 C 497.27 523.97 514.68 529.41 530.61 537.49 C 537.99 541.65 545.40 544.59 551.98 550.04 C 557.70 554.82 564.21 557.16 569.14 562.85 C 573.62 567.94 579.24 571.28 584.30 575.68 C 588.63 579.41 592.91 582.97 596.82 587.14 C 598.93 589.39 601.13 591.54 603.50 593.52 C 615.34 603.90 626.86 614.17 639.56 623.46 C 645.89 628.48 652.80 631.45 659.98 635.02 C 666.12 637.86 671.43 641.16 677.97 643.03 C 683.24 644.55 688.58 645.80 693.85 647.35 C 701.72 649.74 709.51 649.46 718.00 650.03 C 724.38 650.36 729.52 648.14 735.57 646.60 C 741.16 645.00 747.17 643.25 752.09 640.08 C 756.58 636.85 759.13 630.50 761.88 625.81 C 765.71 619.33 768.24 612.30 771.59 605.59 C 776.88 595.66 780.32 584.71 784.19 574.16 C 787.37 562.87 790.64 551.50 793.09 540.03 C 794.58 530.26 797.09 520.69 797.81 510.88 C 798.51 501.23 799.62 491.70 799.35 482.00 C 799.13 467.50 800.02 451.95 797.34 437.71 C 795.94 430.03 796.01 422.41 793.93 414.83 C 791.45 405.76 790.29 396.48 787.28 387.54 C 784.56 377.96 781.43 368.77 777.26 359.71 C 770.13 341.65 761.33 324.51 750.69 308.27 C 748.15 303.91 744.27 299.67 742.87 294.81 C 742.29 292.80 743.48 290.93 745.36 290.22 C 748.35 289.22 751.80 289.30 754.86 289.94 C 758.51 290.77 760.56 293.62 762.47 296.59 C 767.30 304.68 772.32 312.66 777.20 320.72 C 781.14 327.30 783.81 334.61 787.25 341.62 C 790.63 348.53 793.71 355.56 796.02 362.91 C 798.83 372.20 802.67 380.76 804.52 390.29 C 805.91 397.37 808.52 404.04 809.67 411.15 C 810.67 417.20 811.45 423.26 812.69 429.27 C 813.84 434.76 814.78 440.23 814.62 445.86 C 814.38 453.63 815.86 461.24 815.76 469.00 C 815.70 476.66 815.64 484.33 815.77 491.99 C 816.08 499.70 814.71 507.11 813.66 514.69 C 812.54 525.97 810.25 537.01 808.23 548.15 C 807.19 554.75 804.92 560.93 803.36 567.40 C 801.78 574.16 798.88 580.41 796.95 587.07 C 794.82 594.25 791.35 600.69 788.52 607.57 C 786.01 613.65 783.30 619.65 780.41 625.55 C 777.84 630.87 774.37 635.57 772.00 640.98 C 770.40 644.33 768.96 648.56 765.82 650.78 C 762.09 653.53 757.41 653.47 753.00 653.93 C 746.88 654.39 741.09 656.25 735.00 656.95 C 725.42 658.17 715.71 658.79 706.05 658.62 C 694.01 657.91 682.08 655.22 670.45 652.31 C 665.93 651.08 662.57 648.55 658.31 646.73 C 654.54 645.11 650.68 643.90 647.08 641.88 C 640.71 638.28 634.35 634.84 628.40 630.55 C 622.12 626.24 616.64 620.99 610.47 616.52 C 605.66 613.03 601.02 609.38 596.78 605.22 C 591.98 600.55 586.59 596.72 581.35 592.59 C 573.84 586.42 567.68 578.98 559.54 573.49 C 553.71 569.49 549.29 564.39 543.09 560.96 C 537.96 558.14 533.06 554.95 527.99 552.02 C 519.08 546.95 509.80 544.32 500.31 540.66 C 492.54 537.67 484.73 536.83 476.64 535.18 C 466.20 533.03 455.63 533.01 444.96 532.73 C 429.32 532.28 414.45 535.64 399.50 539.83 C 396.25 540.73 393.20 542.11 390.20 543.61 C 391.35 543.75 392.51 543.89 393.67 544.02 C 388.51 546.54 384.67 549.53 380.98 553.93 C 377.09 558.65 372.89 562.59 369.97 568.04 C 366.93 573.70 362.19 578.48 360.36 584.40 C 358.26 590.22 363.49 597.44 361.26 603.32 C 359.63 607.08 355.33 611.13 350.89 610.12 C 346.97 609.58 342.39 608.48 339.87 605.15 C 337.78 602.52 336.67 599.38 338.06 596.13 C 339.99 591.04 345.09 588.98 347.76 584.90 C 349.70 580.95 350.42 576.65 352.96 572.93 C 355.93 568.56 357.68 563.89 358.86 558.77 C 353.58 560.97 349.27 564.44 344.51 567.52 C 338.17 571.61 332.53 576.91 326.72 581.73 C 321.35 586.16 317.44 591.66 312.80 596.77 C 309.65 600.31 306.88 604.21 303.95 607.95 C 300.42 612.41 298.79 617.32 296.18 622.28 C 293.73 627.04 290.96 632.56 290.87 638.01 C 290.76 640.76 292.65 641.94 294.44 643.61 C 297.93 646.47 301.04 649.68 304.66 652.36 C 310.05 656.18 313.97 661.33 318.66 666.32 C 323.80 672.37 329.62 677.34 333.97 684.04 C 338.16 689.71 340.98 696.17 342.96 702.90 C 344.45 706.70 340.13 710.76 336.46 710.38 C 332.70 709.92 329.01 708.04 325.63 706.41 C 319.66 703.53 315.32 698.77 309.61 695.35 C 304.35 692.20 300.14 687.98 295.96 683.57 C 294.92 684.46 293.87 685.35 292.83 686.23 C 298.46 698.34 309.55 708.35 320.66 715.43 C 325.97 719.56 331.88 722.71 337.32 726.65 C 341.11 729.30 345.50 731.21 349.60 733.47 C 354.33 736.06 359.42 737.45 364.32 739.71 C 370.63 742.62 377.16 743.20 383.72 745.47 C 386.89 746.40 390.48 747.98 393.82 747.75 C 398.48 746.54 401.94 742.90 407.09 742.31 C 413.86 741.52 421.88 742.37 427.54 746.49 C 431.89 749.38 432.03 756.74 427.90 759.86 C 424.88 762.22 420.81 763.34 417.02 763.51 C 411.53 763.66 406.94 761.84 401.89 760.05 C 398.04 758.64 394.10 758.27 390.09 757.65 C 386.30 757.07 382.68 755.84 378.89 755.29 C 374.82 754.65 371.12 754.78 367.41 752.70 C 363.51 750.53 359.69 748.89 355.33 747.85 C 354.66 748.65 353.99 749.45 353.32 750.24 C 357.74 753.70 362.93 755.48 367.64 758.41 C 370.62 760.23 373.66 761.93 376.92 763.19 C 383.77 765.77 390.54 768.48 397.57 770.56 C 402.66 772.24 407.58 774.01 413.00 774.31 C 419.22 774.70 425.35 775.70 431.52 776.53 C 438.94 777.51 446.28 776.50 453.44 774.51 C 455.24 773.95 457.52 773.25 458.78 771.78 C 460.39 769.64 460.65 766.75 460.02 764.21 C 458.47 757.99 453.30 752.46 451.82 746.25 C 451.15 743.75 452.60 741.89 453.92 739.95 C 455.98 737.23 458.54 734.22 461.68 732.76 C 466.76 730.58 472.74 730.74 477.58 733.48 C 483.28 736.58 489.09 741.32 491.10 747.72 C 492.61 752.84 492.44 758.79 490.83 763.88 C 488.93 770.07 482.39 774.55 477.75 778.79 C 472.73 783.50 466.77 783.10 460.41 784.50 C 451.74 786.33 442.93 786.32 434.14 785.49 C 426.61 784.73 419.39 782.64 411.78 782.39 C 407.48 782.26 403.53 780.95 399.57 779.36 C 393.76 777.06 387.59 776.42 381.80 774.05 C 378.09 772.59 374.86 770.92 370.73 771.62 C 372.50 776.14 375.40 780.02 377.36 784.43 C 380.28 791.87 383.16 798.56 381.58 806.78 C 381.01 810.07 379.10 813.64 375.26 813.40 C 373.13 812.20 371.48 809.90 370.01 807.99 C 366.11 802.58 361.90 797.41 358.03 791.99 C 354.87 787.76 352.03 783.51 350.67 778.34 C 348.93 772.67 349.45 767.00 348.34 761.29 C 347.99 758.56 344.61 756.87 342.58 755.43 C 334.99 750.82 327.59 746.00 320.93 740.09 C 318.17 737.61 316.08 736.61 312.43 735.93 C 312.22 740.88 312.45 745.71 310.48 750.35 C 309.19 753.61 307.16 756.28 305.10 759.07 C 307.03 752.85 310.50 746.48 310.46 739.95 C 310.46 736.35 310.52 732.86 311.51 729.36 C 313.99 731.24 316.38 733.20 318.73 735.25 C 326.77 742.34 335.73 748.53 345.01 753.89 C 346.83 755.00 348.87 756.13 350.36 757.68 C 351.55 759.73 351.26 762.72 351.43 765.03 C 351.35 771.31 353.67 777.22 356.21 782.85 C 357.55 785.89 359.61 788.20 362.14 790.30 C 361.06 782.94 357.44 776.69 355.76 769.53 C 355.08 766.75 354.62 763.93 354.19 761.09 C 360.55 771.47 366.66 782.08 371.95 793.04 C 374.05 797.18 374.45 801.43 374.49 805.99 C 374.41 807.92 375.83 808.85 376.87 810.28 C 379.00 805.09 379.05 800.93 377.52 795.58 C 375.12 786.00 369.70 777.06 363.59 769.40 C 361.76 767.12 360.24 764.68 358.90 762.09 C 365.02 763.38 370.02 767.03 376.04 768.58 C 381.35 770.04 386.65 771.72 392.05 772.84 C 385.26 768.48 378.01 767.09 370.56 763.60 C 361.94 759.58 353.57 755.84 345.80 750.29 C 338.94 745.37 331.97 741.01 325.83 735.18 C 321.15 730.77 316.07 727.76 313.82 721.46 C 320.22 723.16 324.80 727.95 330.87 731.16 C 349.92 742.75 370.35 751.23 392.55 754.36 C 395.92 754.82 399.63 755.17 402.80 756.43 C 406.33 757.77 409.21 759.57 413.10 759.78 C 416.40 759.94 420.40 760.04 423.40 758.47 C 425.59 757.37 427.00 755.38 427.47 752.99 C 426.73 750.17 424.49 748.95 422.00 747.88 C 417.58 746.14 412.69 745.20 407.95 745.56 C 403.81 745.80 400.47 750.44 396.99 751.35 C 393.10 751.61 389.03 750.58 385.22 749.83 C 360.93 744.64 337.97 732.56 318.16 717.80 C 310.83 711.77 303.37 707.12 296.91 700.08 C 293.35 696.21 291.15 690.74 289.22 685.90 C 285.48 676.17 282.99 666.47 285.11 655.99 C 287.59 661.03 289.23 666.18 292.12 670.86 C 296.41 677.75 301.32 684.13 307.65 689.27 C 302.51 680.39 296.61 672.27 292.33 662.86 C 290.15 657.97 287.87 653.03 286.32 647.90 C 285.69 645.91 285.74 643.96 286.10 641.92 C 287.47 633.04 290.32 624.45 294.69 616.59 C 305.01 596.83 320.88 580.00 338.80 566.90 C 347.75 560.75 356.18 554.75 366.10 550.21 C 368.63 549.03 371.31 548.50 374.05 548.10 C 372.22 551.49 369.87 554.49 367.39 557.43 C 361.45 564.59 356.53 572.54 353.18 581.24 C 352.13 583.78 351.34 586.63 349.80 588.90 C 347.62 591.48 343.74 593.03 341.86 595.88 C 341.00 597.86 341.05 600.37 341.58 602.43 C 345.16 607.02 353.52 608.09 357.44 603.35 C 359.99 599.46 358.16 596.45 356.35 592.82 C 354.55 589.72 355.72 586.85 356.85 583.77 C 362.49 570.25 371.30 557.97 381.89 547.88 C 385.88 544.04 389.49 540.09 394.86 538.19 C 411.87 532.61 430.05 529.07 448.00 529.49 C 486.08 528.40 524.22 541.51 554.28 564.76 C 574.67 579.72 592.06 597.37 611.83 613.22 C 623.63 622.26 634.68 631.15 648.00 638.03 C 664.22 646.45 681.64 653.21 700.00 654.65 C 717.07 657.38 734.37 653.87 751.19 650.81 C 754.91 650.37 758.72 650.45 762.47 650.37 C 770.43 636.34 778.40 622.53 784.90 607.72 C 797.63 578.48 806.40 547.63 810.24 515.95 C 810.98 506.75 812.60 498.11 812.51 489.00 C 812.51 479.33 812.66 469.66 812.42 460.00 C 811.05 435.32 806.78 410.90 800.11 387.12 C 795.50 372.30 791.10 357.88 784.33 343.84 C 779.52 333.51 774.29 323.41 768.76 313.45 C 765.59 307.63 762.38 302.06 758.27 296.83 C 756.82 295.07 755.21 293.16 752.87 292.67 C 750.54 292.16 748.42 293.16 746.20 293.78 C 749.45 301.65 755.06 308.01 759.25 315.61 C 764.15 324.57 769.35 333.12 773.46 342.45 C 778.58 353.09 782.83 364.10 786.56 375.29 C 792.19 391.02 796.18 407.40 798.87 423.88 C 801.06 436.21 801.89 448.65 803.24 461.09 C 803.53 471.01 803.47 481.06 803.28 490.99 C 801.54 509.59 799.88 527.62 795.61 545.86 C 788.83 574.96 778.29 603.57 763.44 629.54 C 761.14 633.63 759.24 638.58 755.98 641.98 C 752.93 644.72 748.41 646.03 744.63 647.47 C 733.14 651.27 721.24 654.75 709.03 652.94 C 686.41 651.00 664.87 643.18 645.53 631.44 C 641.35 628.59 637.25 625.62 633.00 622.87 C 625.75 618.12 619.70 612.39 613.17 606.77 C 605.88 600.80 598.99 594.33 592.04 587.96 C 585.34 580.90 577.76 574.93 570.38 568.63 C 564.42 563.45 558.00 558.93 551.63 554.29 C 530.66 539.57 506.57 529.76 481.35 525.32 C 475.29 524.29 469.18 523.17 463.05 522.67 C 448.61 522.00 434.19 522.32 419.88 524.44 C 404.59 526.96 389.60 531.12 375.29 537.08 C 360.62 542.80 346.87 550.97 333.98 559.95 C 327.43 565.30 320.60 569.65 314.90 575.88 C 308.32 582.45 302.05 589.18 296.81 596.90 C 291.09 604.40 287.09 612.75 283.09 621.23 C 280.32 627.26 275.28 630.29 270.14 634.08 C 262.72 639.41 254.79 643.20 247.08 648.01 C 251.16 647.44 255.14 646.55 258.92 644.90 C 265.36 642.31 270.80 638.25 277.04 635.30 C 276.28 642.62 272.49 648.30 268.08 653.94 C 263.45 659.73 260.54 666.06 255.35 671.33 C 249.91 676.89 243.73 682.23 236.86 685.93 C 235.11 686.78 233.27 687.81 231.26 687.38 C 226.89 686.50 223.16 684.87 218.56 685.51 C 215.14 685.92 210.37 687.50 209.49 691.30 C 209.05 695.31 213.64 698.32 217.21 698.57 C 221.05 698.87 225.34 699.14 229.06 698.02 C 233.09 696.05 235.17 691.44 239.23 689.23 C 247.49 684.35 255.12 678.71 261.50 671.48 C 265.98 666.54 269.24 660.81 274.09 656.17 C 276.86 665.45 277.24 674.80 281.12 683.87 C 281.98 686.41 283.99 689.60 283.45 692.31 C 280.20 695.17 276.24 697.12 272.97 700.00 C 266.28 705.76 261.05 712.78 260.96 721.99 C 264.97 716.73 267.78 711.04 272.12 706.12 C 275.69 702.08 279.46 698.25 283.81 695.04 C 284.47 695.36 285.13 695.67 285.79 695.99 C 283.20 704.75 279.45 713.21 275.38 721.37 C 271.85 727.97 268.73 734.10 261.55 737.34 C 262.15 738.29 262.75 739.24 263.35 740.19 C 265.45 739.39 267.47 738.73 269.20 737.21 C 274.82 732.28 279.35 726.16 282.39 719.32 C 285.31 713.03 286.01 706.83 288.09 700.05 C 291.23 703.02 293.53 706.53 295.83 710.15 C 298.50 714.36 302.28 717.48 303.40 722.28 C 305.01 729.23 306.23 736.63 304.67 743.68 C 303.54 749.82 300.61 755.00 297.07 760.04 C 295.98 761.52 294.78 763.13 293.29 764.21 C 288.63 765.37 281.89 763.67 277.43 766.47 C 275.41 767.81 272.64 770.70 273.70 773.35 C 275.41 777.04 279.40 778.26 283.11 778.92 C 287.64 779.72 292.60 779.52 295.85 775.84 C 298.72 773.29 296.30 768.60 297.71 765.61 C 299.58 762.98 302.50 760.93 305.10 759.07 C 302.87 762.45 301.21 766.06 300.52 770.08 C 299.81 772.79 299.68 776.51 297.10 778.15 C 290.12 783.25 280.07 781.60 273.62 776.46 C 270.09 773.29 271.76 768.64 275.02 766.03 C 280.25 761.40 286.08 763.56 292.01 761.80 C 296.25 758.69 299.40 753.38 301.53 748.63 C 306.36 734.27 301.77 716.33 289.55 706.97 C 287.46 712.37 285.75 717.73 282.75 722.73 C 278.08 730.85 272.46 738.45 263.96 742.87 C 261.95 740.57 259.97 738.63 259.23 735.55 C 256.78 724.43 259.34 712.44 266.68 703.66 C 270.92 698.46 276.18 695.51 281.57 691.69 C 280.46 687.47 279.07 683.35 277.62 679.23 C 275.50 673.27 274.68 667.11 272.90 661.04 C 267.72 665.61 264.28 671.55 259.29 676.28 C 253.13 682.09 246.86 687.58 239.21 691.37 C 235.07 693.39 234.60 698.28 230.58 700.78 C 227.00 703.18 222.50 702.98 218.40 702.52 C 214.73 701.96 210.55 700.93 208.52 697.49 C 206.95 694.88 205.45 691.09 207.16 688.20 C 209.16 684.29 214.01 682.82 218.01 682.03 C 222.96 681.05 227.97 683.74 232.83 683.66 C 236.33 683.48 239.48 680.16 241.91 677.90 C 245.76 674.04 250.09 670.79 254.20 667.22 C 258.50 663.54 260.98 658.24 264.61 653.61 C 266.70 651.01 267.62 648.21 268.22 644.97 C 260.12 648.64 250.44 652.98 241.66 648.91 C 243.28 646.72 244.77 644.64 247.25 643.35 C 251.85 640.88 256.68 639.00 261.10 636.14 C 264.80 633.86 267.69 630.82 271.15 628.25 C 273.90 626.16 276.62 624.56 278.56 621.60 C 282.21 615.94 283.82 609.28 287.62 603.62 C 291.74 596.83 297.21 592.30 299.99 584.75 C 293.76 584.57 287.62 585.96 282.32 589.31 C 279.76 591.02 277.15 591.53 274.14 591.77 C 268.74 592.23 264.16 594.75 258.85 595.60 C 245.47 597.76 232.50 597.58 219.01 597.81 C 214.97 597.90 211.01 597.63 207.04 596.86 C 201.77 595.81 197.11 595.94 192.25 593.77 C 185.54 590.63 177.40 590.60 170.00 589.67 C 164.75 588.95 159.77 590.20 154.57 590.25 C 151.46 590.28 149.08 589.12 146.66 587.30 C 150.99 582.25 156.69 579.93 161.93 576.08 C 156.00 569.86 148.64 565.48 142.82 559.17 C 139.43 555.56 136.65 551.21 133.88 547.11 C 131.92 544.11 130.15 540.82 130.58 537.12 C 130.54 534.35 135.10 534.19 136.99 533.26 C 138.11 526.57 133.47 522.38 133.37 515.91 C 133.36 512.66 134.15 508.85 136.32 506.34 C 137.73 504.59 140.78 504.94 142.72 505.37 C 146.11 506.16 148.20 509.15 150.38 511.59 C 154.02 516.02 158.85 519.11 162.60 523.46 C 165.15 526.36 167.45 528.10 171.17 529.30 C 169.89 523.91 167.67 519.00 166.78 513.51 C 165.47 505.30 164.29 497.45 166.47 489.25 C 168.66 481.21 168.65 473.24 169.45 465.01 C 170.25 456.37 170.40 447.71 171.51 439.09 C 172.32 432.69 171.94 426.41 173.43 420.32 C 175.75 410.77 177.23 401.01 179.72 391.49 C 181.02 386.89 182.72 382.42 183.90 377.78 C 186.04 369.09 190.23 361.35 192.90 352.81 C 194.72 346.87 197.75 341.57 200.06 335.83 C 201.74 331.71 204.47 328.23 206.22 324.15 C 207.59 320.96 209.04 317.85 211.00 314.97 C 215.11 308.85 218.48 302.41 222.26 296.11 C 224.62 292.18 227.70 289.05 230.37 285.36 C 232.35 282.63 234.30 279.91 236.61 277.44 C 242.73 270.92 248.13 263.76 254.14 257.14 C 256.70 254.35 259.21 251.54 261.68 248.68 C 267.40 241.96 274.43 236.98 280.79 230.73 C 286.24 225.35 292.60 221.32 298.50 216.49 C 302.97 212.87 307.92 209.94 312.44 206.38 C 320.23 200.08 329.74 195.35 338.46 190.39 C 344.28 187.03 350.48 184.48 356.33 181.19 C 359.21 179.57 362.17 178.16 365.29 177.06 C 373.27 174.25 381.12 171.07 388.92 167.81 C 394.59 165.44 400.28 164.62 406.15 162.96 C 415.71 160.45 424.95 157.23 434.75 155.73 C 447.19 152.84 460.21 151.81 472.99 151.25 Z" fill="#cdf0f5" />
<path d="M 477.96 154.46 C 490.94 154.40 504.10 153.83 517.01 155.29 C 525.54 155.76 533.96 156.53 542.36 158.15 C 552.94 160.12 563.13 161.45 573.44 164.39 C 584.54 167.69 596.42 170.31 606.69 175.75 C 606.62 178.41 606.55 181.08 606.43 183.74 C 600.57 183.40 595.83 180.74 590.42 178.89 C 566.73 171.48 541.81 165.94 517.02 164.22 C 505.78 162.98 494.31 163.65 483.00 163.49 C 472.34 163.28 462.11 165.00 451.47 165.96 C 414.88 171.15 378.49 182.26 346.12 200.26 C 334.09 206.48 322.59 213.78 311.69 221.80 C 298.35 231.15 285.89 241.84 274.52 253.52 C 270.18 257.85 265.78 262.06 261.83 266.76 C 255.26 274.47 248.39 282.22 242.59 290.52 C 238.05 296.97 233.52 303.44 229.24 310.06 C 222.30 321.43 216.17 333.21 210.34 345.18 C 200.30 367.45 192.81 390.82 188.07 414.79 C 186.18 423.11 184.96 431.38 184.24 439.88 C 183.69 446.66 181.84 452.33 183.32 459.07 C 187.20 456.34 190.14 452.79 193.47 449.47 C 204.51 439.03 217.40 430.66 231.71 425.46 C 242.16 421.56 252.92 420.19 264.00 419.67 C 278.04 420.08 291.80 422.44 304.70 428.17 C 318.97 434.74 331.67 443.37 340.18 456.89 C 343.82 462.99 346.32 470.36 344.57 477.49 C 342.38 487.74 334.99 495.84 326.55 501.60 C 318.92 506.35 309.79 508.97 300.92 510.08 C 293.23 511.14 285.32 509.16 278.48 505.67 C 273.27 503.02 269.21 498.32 266.83 493.04 C 265.21 489.43 264.70 484.55 267.15 481.18 C 269.43 478.55 273.14 478.07 276.13 479.84 C 282.68 483.42 285.38 491.36 290.41 496.59 C 294.80 501.62 302.30 504.64 308.87 502.77 C 316.62 501.05 323.50 496.64 329.05 491.06 C 334.72 485.21 338.44 476.69 337.32 468.46 C 336.19 460.77 331.71 454.12 326.28 448.74 C 318.14 440.81 307.64 435.03 297.02 431.17 C 291.31 429.03 285.54 428.62 279.63 427.48 C 272.63 425.99 265.17 426.33 258.06 426.62 C 242.60 428.49 228.03 434.44 215.30 443.36 C 202.56 451.97 191.81 462.95 184.95 476.82 C 182.54 481.92 182.09 487.50 182.78 493.05 C 183.17 494.79 183.10 496.45 184.91 497.33 C 189.81 493.44 193.77 488.54 198.87 484.84 C 205.37 480.00 213.04 475.38 221.13 474.02 C 215.97 478.44 209.72 481.14 204.33 485.31 C 197.96 490.13 191.44 495.13 185.96 500.95 C 182.60 504.65 183.97 508.55 184.23 513.02 C 185.00 520.91 184.87 529.63 189.85 536.27 C 195.22 543.67 201.77 550.36 209.26 555.62 C 220.91 563.77 233.76 568.09 247.35 571.76 C 257.90 574.26 268.28 574.47 279.00 575.28 C 284.15 575.56 289.19 575.02 294.32 574.92 C 283.31 578.42 270.51 577.64 259.06 577.55 C 242.97 576.32 226.98 572.04 212.04 566.01 C 200.24 560.99 189.56 554.35 179.31 546.69 C 168.71 539.27 159.61 530.60 150.30 521.69 C 147.87 519.36 145.81 518.09 142.51 517.19 C 142.53 519.98 142.58 522.66 143.74 525.25 C 146.48 531.60 150.83 537.48 155.18 542.82 C 157.09 545.18 158.70 547.71 160.12 550.39 C 153.81 549.36 148.37 546.04 142.05 545.11 C 143.24 547.46 144.50 549.75 146.21 551.78 C 152.06 558.70 159.01 564.47 166.58 569.42 C 171.81 572.87 177.58 574.60 182.31 578.88 C 177.48 579.76 172.79 579.26 168.81 582.44 C 174.37 584.01 180.07 584.27 185.69 585.52 C 189.69 586.38 193.65 587.65 197.65 588.64 C 213.44 592.35 229.64 593.47 245.81 592.13 C 255.20 590.91 264.25 590.51 273.26 587.32 C 277.39 586.78 281.39 586.10 285.17 584.27 C 287.08 584.08 288.99 583.96 290.90 583.89 C 280.36 587.48 269.95 590.90 258.88 592.29 C 252.57 593.02 246.25 593.74 239.92 594.32 C 232.61 594.63 225.27 594.49 217.96 594.41 C 205.73 594.08 194.40 590.78 182.63 587.92 C 172.67 585.30 163.44 586.94 152.83 586.43 C 157.82 582.08 163.68 580.12 169.59 577.42 C 169.60 576.72 169.60 576.02 169.61 575.32 C 164.36 571.51 158.79 568.38 153.78 564.23 C 147.07 558.92 141.30 552.47 136.74 545.24 C 135.27 542.88 134.63 540.30 133.97 537.64 C 138.29 538.73 142.55 540.04 146.93 540.92 C 143.71 532.96 138.58 527.12 137.44 518.45 C 136.85 514.68 137.59 511.27 139.00 507.77 C 144.94 510.94 148.90 515.76 153.66 520.33 C 161.03 527.34 168.51 534.21 176.37 540.66 C 182.19 545.72 188.29 549.96 195.05 553.68 C 190.98 548.78 186.73 544.07 183.10 538.82 C 180.32 534.71 176.39 531.25 174.69 526.76 C 173.26 523.16 171.83 519.54 170.59 515.87 C 168.36 509.37 168.44 501.88 168.73 495.07 C 169.05 489.71 171.45 485.19 172.25 480.00 C 172.73 476.11 172.45 472.08 172.58 468.16 C 172.65 464.08 173.29 460.06 173.44 455.98 C 174.51 433.06 178.59 410.54 184.57 388.42 C 188.54 374.25 193.51 360.45 199.66 347.08 C 202.79 338.38 207.09 330.34 211.28 322.14 C 214.44 315.78 218.70 310.19 222.12 303.97 C 225.15 298.52 228.70 293.43 232.54 288.52 C 237.45 282.36 241.57 275.68 246.76 269.73 C 252.47 262.15 259.40 255.75 265.56 248.55 C 274.17 240.16 283.25 232.20 292.47 224.48 C 299.52 218.54 307.39 214.22 314.87 208.78 C 323.78 202.84 332.83 196.97 342.40 192.14 C 373.44 175.48 406.95 163.80 441.81 158.39 C 453.66 156.07 465.93 155.46 477.96 154.46 Z" fill="#13abe6" />
<path d="M 634.95 156.06 C 638.34 156.24 641.42 159.00 643.91 161.09 C 649.09 165.34 652.75 170.79 657.51 175.48 C 661.98 181.01 664.24 188.20 668.12 194.20 C 670.99 193.12 673.41 191.64 675.84 189.79 C 679.62 186.84 685.00 186.74 689.49 184.63 C 695.42 182.14 698.20 176.31 704.61 174.64 C 706.54 174.07 708.56 174.68 709.29 176.67 C 710.22 179.78 709.28 183.62 708.78 186.76 C 707.18 194.73 707.58 202.68 707.55 210.98 C 707.67 213.92 707.52 217.46 708.81 220.17 C 710.49 221.83 713.79 221.84 716.01 222.14 C 724.86 222.61 733.60 224.98 740.92 230.11 C 745.04 233.02 749.56 235.39 753.51 238.52 C 756.49 240.85 758.25 243.91 760.10 247.12 C 754.52 253.57 746.80 253.18 739.50 256.43 C 735.29 258.23 733.12 261.83 729.26 264.08 C 726.42 265.71 723.38 266.93 720.50 268.50 C 714.60 271.59 709.45 275.24 702.88 276.77 C 697.48 278.04 691.82 279.14 686.27 278.45 C 682.41 277.98 678.47 277.15 674.74 276.03 C 669.60 274.45 665.69 271.53 660.91 269.24 C 658.04 267.82 654.83 266.57 652.21 264.76 C 648.26 262.01 645.88 257.99 641.89 255.17 C 639.45 253.35 636.51 251.93 634.75 249.43 C 630.27 243.01 626.29 236.51 624.48 228.79 C 622.77 221.24 621.98 213.29 622.69 205.56 C 623.30 198.73 626.09 192.94 627.48 186.30 C 628.43 181.67 629.72 177.10 630.52 172.44 C 631.24 168.28 630.19 164.00 630.91 159.89 C 631.45 158.16 632.78 155.65 634.95 156.06 Z" fill="#cdf0f5" />
<path d="M 633.62 157.94 C 638.92 160.97 642.97 165.38 646.52 170.28 C 644.58 170.77 642.51 171.49 640.50 171.51 C 638.85 171.45 637.19 170.36 635.72 169.69 C 634.69 175.41 633.91 181.21 632.56 186.87 C 629.24 194.55 627.48 202.72 626.57 211.01 C 625.91 218.02 627.63 224.69 630.41 231.06 C 632.86 237.75 636.87 245.84 643.38 249.37 C 642.45 244.54 640.93 239.94 640.27 235.05 C 639.46 230.01 639.33 225.03 639.28 219.93 C 639.50 224.17 639.81 228.35 640.99 232.46 C 644.05 227.48 645.44 222.06 648.03 216.85 C 649.74 214.92 651.35 212.92 652.91 210.87 C 654.00 211.22 655.10 211.58 656.19 211.92 C 655.59 212.49 655.00 213.07 654.43 213.66 C 650.44 217.39 647.95 221.29 646.15 226.44 C 644.80 230.48 642.96 235.43 643.84 239.70 C 645.59 247.26 648.52 254.28 655.04 258.92 C 657.16 256.78 659.12 254.56 661.00 252.21 C 659.69 254.90 658.45 257.62 657.25 260.36 C 659.75 261.52 662.40 262.82 665.12 263.32 C 668.66 263.91 671.90 263.04 675.35 262.89 C 677.91 262.97 680.63 263.91 683.34 263.70 C 685.55 263.51 687.79 262.83 689.94 262.28 C 686.98 263.46 683.97 264.79 680.87 265.56 C 676.57 266.69 672.41 265.72 668.25 267.60 C 674.28 272.15 681.55 273.75 688.99 273.71 C 695.64 273.93 701.50 271.93 707.99 271.06 C 695.28 277.43 678.72 276.79 666.68 269.13 C 663.49 267.25 660.11 265.72 656.93 263.82 C 653.80 261.95 651.67 259.40 648.98 257.02 C 646.46 254.77 643.64 253.08 641.10 250.89 C 632.85 243.57 627.73 233.47 625.90 222.66 C 625.14 217.59 624.18 212.76 625.10 207.68 C 626.86 197.18 630.54 186.65 632.71 176.23 C 634.06 170.16 633.38 164.35 633.62 157.94 Z" fill="#13abe6" />
<path d="M 705.44 178.37 C 706.44 185.25 703.95 191.13 701.11 197.21 C 700.55 196.08 700.00 194.94 699.45 193.81 C 698.42 194.38 697.40 194.95 696.37 195.53 C 695.30 193.61 693.56 191.51 693.29 189.29 C 693.12 187.82 694.09 187.01 694.98 186.00 C 697.99 182.95 701.72 180.47 705.44 178.37 Z" fill="#13abe6" />
<path d="M 636.54 181.72 C 637.08 182.75 637.61 183.79 638.13 184.83 C 639.35 184.11 640.57 183.38 641.78 182.65 C 643.14 185.65 643.02 189.03 646.95 189.58 C 647.22 186.76 647.43 183.94 647.59 181.11 C 649.12 184.30 650.90 187.08 653.57 189.45 C 654.30 188.09 655.02 186.73 655.74 185.37 C 657.57 190.26 660.05 196.29 659.31 201.56 C 658.35 205.05 654.94 207.92 652.91 210.87 C 651.35 212.92 649.74 214.92 648.03 216.85 C 645.37 219.35 643.13 221.94 641.01 224.91 C 641.29 220.14 642.22 215.47 642.74 210.73 C 643.02 208.21 641.94 206.31 641.07 204.04 C 639.65 206.47 638.48 208.89 638.25 211.75 C 637.26 221.92 637.64 231.95 638.69 242.08 C 635.75 238.47 633.82 234.32 630.41 231.06 C 627.63 224.69 625.91 218.02 626.57 211.01 C 627.48 202.72 629.24 194.55 632.56 186.87 C 633.83 185.11 635.16 183.39 636.54 181.72 Z" fill="#fdfefe" />
<path d="M 682.06 196.66 C 681.58 198.76 681.38 200.74 681.40 202.89 C 683.81 202.33 686.22 201.74 688.62 201.13 C 686.83 204.72 685.23 208.35 683.77 212.07 C 684.85 212.58 685.93 213.09 687.02 213.60 C 689.49 210.95 691.91 208.25 694.30 205.51 C 694.88 205.75 695.46 205.98 696.05 206.22 C 695.95 209.41 696.19 212.42 696.97 215.53 C 699.01 213.72 700.62 211.71 702.09 209.41 C 703.15 217.41 700.33 224.01 698.39 231.59 C 696.66 237.83 693.59 243.05 690.43 248.64 C 687.57 253.75 682.81 257.91 677.42 260.15 C 671.91 261.75 665.91 262.40 661.33 258.23 C 665.39 248.05 671.92 239.71 677.53 230.44 C 679.13 227.68 679.47 226.41 678.54 223.27 C 675.83 225.79 673.53 228.50 671.57 231.65 C 667.97 237.40 664.03 242.90 660.69 248.82 C 659.30 251.03 657.73 253.94 655.41 255.26 C 653.20 256.14 652.55 253.97 651.37 252.59 C 647.57 246.77 645.50 239.35 646.49 232.42 C 647.58 225.28 652.83 220.71 654.43 213.66 C 655.00 213.07 655.59 212.49 656.19 211.92 C 661.92 206.83 668.30 202.05 674.65 197.76 C 677.03 196.11 679.36 196.63 682.06 196.66 Z" fill="#fdfefe" />
<path d="M 641.07 204.04 C 641.94 206.31 643.02 208.21 642.74 210.73 C 642.22 215.47 641.29 220.14 641.01 224.91 C 643.13 221.94 645.37 219.35 648.03 216.85 C 645.44 222.06 644.05 227.48 640.99 232.46 C 639.81 228.35 639.50 224.17 639.28 219.93 C 639.33 225.03 639.46 230.01 640.27 235.05 C 640.93 239.94 642.45 244.54 643.38 249.37 C 636.87 245.84 632.86 237.75 630.41 231.06 C 633.82 234.32 635.75 238.47 638.69 242.08 C 637.64 231.95 637.26 221.92 638.25 211.75 C 638.48 208.89 639.65 206.47 641.07 204.04 Z" fill="#cdf0f5" />
<path d="M 1011.89 220.81 C 1010.85 225.57 1012.18 230.61 1010.79 235.20 C 1012.47 237.71 1014.29 240.11 1016.14 242.50 C 1018.78 241.67 1021.39 240.78 1024.00 239.85 L 1024.00 332.09 C 1021.56 336.13 1020.24 340.58 1018.25 344.83 C 1017.13 347.20 1016.53 349.71 1016.04 352.27 C 1013.67 351.33 1011.04 351.04 1008.73 350.00 C 1005.89 348.05 1004.15 345.76 1000.45 345.57 C 999.50 344.27 998.71 342.38 997.34 341.53 C 994.95 341.31 992.39 341.92 990.02 342.33 C 990.03 338.82 989.45 335.72 990.26 332.36 C 990.93 329.42 991.74 326.52 992.42 323.58 C 994.53 324.47 996.34 325.95 998.72 325.21 C 1001.15 324.57 1004.05 323.41 1005.60 321.35 C 1007.76 318.05 1003.66 312.31 1006.10 309.28 C 1008.82 308.09 1012.57 308.83 1015.21 307.31 C 1016.75 306.19 1017.38 303.80 1018.16 302.10 C 1014.42 300.36 1011.59 299.41 1007.42 300.29 C 1008.26 298.18 1009.24 296.43 1010.71 294.70 C 1011.30 295.75 1011.89 296.81 1012.47 297.86 C 1013.76 296.19 1015.05 294.51 1016.35 292.84 C 1017.64 293.92 1018.93 295.00 1020.22 296.07 C 1020.13 293.75 1020.01 291.42 1019.80 289.11 C 1016.22 286.54 1014.56 282.79 1011.60 279.63 C 1012.16 274.81 1011.75 272.05 1009.96 267.52 C 1011.33 266.98 1012.75 266.45 1014.06 265.78 C 1015.85 265.15 1016.37 262.58 1017.17 261.05 C 1015.58 262.30 1014.02 263.60 1012.47 264.92 C 1011.88 262.83 1011.27 260.74 1010.66 258.65 C 1012.02 258.93 1013.38 259.20 1014.74 259.46 C 1014.13 256.54 1012.92 253.85 1011.97 251.04 C 1012.64 248.65 1014.82 246.55 1016.45 244.74 C 1014.54 245.04 1011.71 247.00 1010.49 244.56 C 1007.77 240.67 1006.88 235.39 1006.98 230.72 C 1007.12 226.62 1009.35 223.79 1011.89 220.81 Z" fill="#cdf0f5" />
<path d="M 729.40 232.04 C 728.40 233.46 727.41 234.90 726.41 236.33 C 729.91 238.10 733.50 239.66 737.06 241.30 C 731.68 242.23 726.45 242.58 721.47 245.07 C 723.25 246.33 725.05 247.56 726.86 248.77 C 726.75 251.69 727.10 254.79 726.50 257.65 C 723.31 260.99 718.81 263.25 714.94 265.73 C 707.69 270.27 700.05 270.59 691.78 271.72 C 686.99 272.35 682.51 271.26 678.03 269.67 C 683.80 266.46 689.93 265.29 695.36 261.47 C 698.13 259.70 700.33 257.39 702.28 254.77 C 696.06 255.81 690.99 259.11 685.01 260.88 C 688.22 256.46 692.16 252.70 695.25 248.18 C 698.36 243.67 701.78 239.85 703.83 234.68 C 705.11 232.23 705.43 229.39 708.61 228.84 C 715.52 227.32 722.96 229.61 729.40 232.04 Z" fill="#fdfefe" />
<path d="M 745.60 237.84 C 749.96 239.49 753.49 242.83 756.17 246.59 C 752.73 248.07 749.04 249.55 745.36 250.24 C 743.16 250.74 741.35 249.62 739.31 248.92 C 740.20 247.59 741.01 245.94 742.26 244.93 C 743.94 243.96 745.88 243.42 747.68 242.73 C 745.15 241.11 742.60 239.54 740.08 237.92 C 741.88 237.82 743.81 237.52 745.60 237.84 Z" fill="#13abe6" />
<path d="M 441.14 292.44 C 452.77 292.15 464.41 292.19 476.04 292.38 C 480.91 292.41 485.63 293.24 490.45 293.82 C 499.32 295.14 509.44 296.96 517.19 301.70 C 523.77 306.08 529.71 312.97 530.57 321.11 C 530.90 326.28 530.92 331.62 530.36 336.77 C 529.07 343.35 526.48 349.90 522.16 355.09 C 518.40 359.65 513.96 363.67 509.24 367.23 C 502.87 371.72 495.46 375.00 488.20 377.77 C 482.86 379.85 477.33 381.19 472.11 383.60 C 477.54 386.67 483.64 387.76 489.17 390.63 C 498.13 395.13 506.66 400.01 513.39 407.60 C 518.35 413.23 521.84 420.33 521.60 427.98 C 521.96 435.23 519.65 441.86 516.43 448.24 C 513.28 454.22 507.83 459.32 502.83 463.81 C 496.65 469.31 489.66 472.95 482.28 476.55 C 472.03 481.45 461.15 484.34 449.93 485.94 C 436.09 487.75 421.87 488.07 407.98 486.68 C 401.28 486.44 394.65 486.84 387.98 485.83 C 379.63 485.34 371.32 485.98 363.00 484.77 C 357.25 484.07 350.64 485.83 345.78 482.65 C 349.30 478.53 353.25 474.91 357.01 471.02 C 358.90 469.13 361.01 466.95 363.45 465.82 C 367.39 465.03 371.49 465.61 375.46 464.74 C 383.14 463.58 390.91 460.12 394.88 453.10 C 401.37 441.95 404.09 427.81 406.65 415.27 C 408.75 405.87 410.26 396.36 412.29 386.95 C 418.20 358.58 423.73 330.12 429.45 301.71 C 416.49 300.93 403.04 304.44 391.97 311.21 C 381.63 317.18 373.98 327.82 370.73 339.23 C 369.01 344.68 369.74 350.11 368.80 355.90 C 360.80 360.10 352.81 364.68 344.35 367.89 C 344.69 355.70 348.54 343.35 354.48 332.73 C 361.93 318.43 376.51 307.83 391.25 302.00 C 406.80 295.85 424.56 293.60 441.14 292.44 Z" fill="#201f20" />
<path d="M 752.87 292.67 C 755.21 293.16 756.82 295.07 758.27 296.83 C 762.38 302.06 765.59 307.63 768.76 313.45 C 774.29 323.41 779.52 333.51 784.33 343.84 C 791.10 357.88 795.50 372.30 800.11 387.12 C 806.78 410.90 811.05 435.32 812.42 460.00 C 812.66 469.66 812.51 479.33 812.51 489.00 C 812.60 498.11 810.98 506.75 810.24 515.95 C 806.40 547.63 797.63 578.48 784.90 607.72 C 778.40 622.53 770.43 636.34 762.47 650.37 C 758.72 650.45 754.91 650.37 751.19 650.81 C 734.37 653.87 717.07 657.38 700.00 654.65 C 681.64 653.21 664.22 646.45 648.00 638.03 C 634.68 631.15 623.63 622.26 611.83 613.22 C 592.06 597.37 574.67 579.72 554.28 564.76 C 524.22 541.51 486.08 528.40 448.00 529.49 C 430.05 529.07 411.87 532.61 394.86 538.19 C 389.49 540.09 385.88 544.04 381.89 547.88 C 371.30 557.97 362.49 570.25 356.85 583.77 C 355.72 586.85 354.55 589.72 356.35 592.82 C 358.16 596.45 359.99 599.46 357.44 603.35 C 353.52 608.09 345.16 607.02 341.58 602.43 C 341.05 600.37 341.00 597.86 341.86 595.88 C 343.74 593.03 347.62 591.48 349.80 588.90 C 351.34 586.63 352.13 583.78 353.18 581.24 C 356.53 572.54 361.45 564.59 367.39 557.43 C 369.87 554.49 372.22 551.49 374.05 548.10 C 371.31 548.50 368.63 549.03 366.10 550.21 C 356.18 554.75 347.75 560.75 338.80 566.90 C 320.88 580.00 305.01 596.83 294.69 616.59 C 290.32 624.45 287.47 633.04 286.10 641.92 C 285.74 643.96 285.69 645.91 286.32 647.90 C 287.87 653.03 290.15 657.97 292.33 662.86 C 296.61 672.27 302.51 680.39 307.65 689.27 C 301.32 684.13 296.41 677.75 292.12 670.86 C 289.23 666.18 287.59 661.03 285.11 655.99 C 282.99 666.47 285.48 676.17 289.22 685.90 C 291.15 690.74 293.35 696.21 296.91 700.08 C 303.37 707.12 310.83 711.77 318.16 717.80 C 337.97 732.56 360.93 744.64 385.22 749.83 C 389.03 750.58 393.10 751.61 396.99 751.35 C 400.47 750.44 403.81 745.80 407.95 745.56 C 412.69 745.20 417.58 746.14 422.00 747.88 C 424.49 748.95 426.73 750.17 427.47 752.99 C 427.00 755.38 425.59 757.37 423.40 758.47 C 420.40 760.04 416.40 759.94 413.10 759.78 C 409.21 759.57 406.33 757.77 402.80 756.43 C 399.63 755.17 395.92 754.82 392.55 754.36 C 370.35 751.23 349.92 742.75 330.87 731.16 C 324.80 727.95 320.22 723.16 313.82 721.46 C 316.07 727.76 321.15 730.77 325.83 735.18 C 331.97 741.01 338.94 745.37 345.80 750.29 C 353.57 755.84 361.94 759.58 370.56 763.60 C 378.01 767.09 385.26 768.48 392.05 772.84 C 386.65 771.72 381.35 770.04 376.04 768.58 C 370.02 767.03 365.02 763.38 358.90 762.09 C 360.24 764.68 361.76 767.12 363.59 769.40 C 369.70 777.06 375.12 786.00 377.52 795.58 C 379.05 800.93 379.00 805.09 376.87 810.28 C 375.83 808.85 374.41 807.92 374.49 805.99 C 374.45 801.43 374.05 797.18 371.95 793.04 C 366.66 782.08 360.55 771.47 354.19 761.09 C 354.62 763.93 355.08 766.75 355.76 769.53 C 357.44 776.69 361.06 782.94 362.14 790.30 C 359.61 788.20 357.55 785.89 356.21 782.85 C 353.67 777.22 351.35 771.31 351.43 765.03 C 351.26 762.72 351.55 759.73 350.36 757.68 C 348.87 756.13 346.83 755.00 345.01 753.89 C 335.73 748.53 326.77 742.34 318.73 735.25 C 316.38 733.20 313.99 731.24 311.51 729.36 C 310.52 732.86 310.46 736.35 310.46 739.95 C 310.50 746.48 307.03 752.85 305.10 759.07 C 302.50 760.93 299.58 762.98 297.71 765.61 C 296.30 768.60 298.72 773.29 295.85 775.84 C 292.60 779.52 287.64 779.72 283.11 778.92 C 279.40 778.26 275.41 777.04 273.70 773.35 C 272.64 770.70 275.41 767.81 277.43 766.47 C 281.89 763.67 288.63 765.37 293.29 764.21 C 294.78 763.13 295.98 761.52 297.07 760.04 C 300.61 755.00 303.54 749.82 304.67 743.68 C 306.23 736.63 305.01 729.23 303.40 722.28 C 302.28 717.48 298.50 714.36 295.83 710.15 C 293.53 706.53 291.23 703.02 288.09 700.05 C 286.01 706.83 285.31 713.03 282.39 719.32 C 279.35 726.16 274.82 732.28 269.20 737.21 C 267.47 738.73 265.45 739.39 263.35 740.19 C 262.75 739.24 262.15 738.29 261.55 737.34 C 268.73 734.10 271.85 727.97 275.38 721.37 C 279.45 713.21 283.20 704.75 285.79 695.99 C 285.13 695.67 284.47 695.36 283.81 695.04 C 279.46 698.25 275.69 702.08 272.12 706.12 C 267.78 711.04 264.97 716.73 260.96 721.99 C 261.05 712.78 266.28 705.76 272.97 700.00 C 276.24 697.12 280.20 695.17 283.45 692.31 C 283.99 689.60 281.98 686.41 281.12 683.87 C 277.24 674.80 276.86 665.45 274.09 656.17 C 269.24 660.81 265.98 666.54 261.50 671.48 C 255.12 678.71 247.49 684.35 239.23 689.23 C 235.17 691.44 233.09 696.05 229.06 698.02 C 225.34 699.14 221.05 698.87 217.21 698.57 C 213.64 698.32 209.05 695.31 209.49 691.30 C 210.37 687.50 215.14 685.92 218.56 685.51 C 223.16 684.87 226.89 686.50 231.26 687.38 C 233.27 687.81 235.11 686.78 236.86 685.93 C 243.73 682.23 249.91 676.89 255.35 671.33 C 260.54 666.06 263.45 659.73 268.08 653.94 C 272.49 648.30 276.28 642.62 277.04 635.30 C 270.80 638.25 265.36 642.31 258.92 644.90 C 255.14 646.55 251.16 647.44 247.08 648.01 C 254.79 643.20 262.72 639.41 270.14 634.08 C 275.28 630.29 280.32 627.26 283.09 621.23 C 287.09 612.75 291.09 604.40 296.81 596.90 C 302.05 589.18 308.32 582.45 314.90 575.88 C 320.60 569.65 327.43 565.30 333.98 559.95 C 346.87 550.97 360.62 542.80 375.29 537.08 C 389.60 531.12 404.59 526.96 419.88 524.44 C 434.19 522.32 448.61 522.00 463.05 522.67 C 469.18 523.17 475.29 524.29 481.35 525.32 C 506.57 529.76 530.66 539.57 551.63 554.29 C 558.00 558.93 564.42 563.45 570.38 568.63 C 577.76 574.93 585.34 580.90 592.04 587.96 C 598.99 594.33 605.88 600.80 613.17 606.77 C 619.70 612.39 625.75 618.12 633.00 622.87 C 637.25 625.62 641.35 628.59 645.53 631.44 C 664.87 643.18 686.41 651.00 709.03 652.94 C 721.24 654.75 733.14 651.27 744.63 647.47 C 748.41 646.03 752.93 644.72 755.98 641.98 C 759.24 638.58 761.14 633.63 763.44 629.54 C 778.29 603.57 788.83 574.96 795.61 545.86 C 799.88 527.62 801.54 509.59 803.28 490.99 C 803.47 481.06 803.53 471.01 803.24 461.09 C 801.89 448.65 801.06 436.21 798.87 423.88 C 796.18 407.40 792.19 391.02 786.56 375.29 C 782.83 364.10 778.58 353.09 773.46 342.45 C 769.35 333.12 764.15 324.57 759.25 315.61 C 755.06 308.01 749.45 301.65 746.20 293.78 C 748.42 293.16 750.54 292.16 752.87 292.67 Z" fill="#13abe6" />
<path d="M 456.60 300.61 C 460.25 299.79 464.28 300.30 468.01 300.24 C 477.15 300.13 487.04 302.93 494.14 308.86 C 499.35 313.19 502.32 319.19 502.64 325.97 C 502.81 332.25 503.04 339.21 500.91 345.16 C 496.59 359.07 485.38 370.41 472.07 375.99 C 462.19 380.07 451.86 381.02 441.26 380.51 C 441.38 376.45 442.32 372.57 443.18 368.63 C 447.56 345.91 451.97 323.27 456.60 300.61 Z" fill="#fdfefe" />
<path d="M 438.81 389.56 C 453.93 387.90 470.95 391.97 481.64 403.37 C 488.47 409.94 491.99 419.60 491.70 429.00 C 491.61 436.28 492.35 443.28 489.99 450.09 C 487.15 459.51 479.87 467.14 470.77 470.76 C 458.92 475.52 447.45 474.54 435.00 474.41 C 429.03 473.83 423.05 473.33 417.11 472.51 C 409.35 471.53 402.08 469.27 394.34 468.17 C 394.42 467.36 394.50 466.55 394.58 465.74 C 407.96 457.20 419.18 445.60 426.36 431.37 C 433.18 418.17 436.35 404.10 438.81 389.56 Z" fill="#fdfefe" />
<path d="M 718.00 391.35 C 726.29 391.50 734.79 391.01 742.99 392.27 C 753.78 392.80 764.37 395.71 774.66 397.86 C 774.75 400.54 774.86 403.07 774.15 405.69 C 771.89 413.89 769.13 421.93 766.82 430.10 C 766.35 431.58 766.00 433.21 764.84 434.32 C 762.41 434.60 759.86 434.41 757.42 434.27 C 757.30 428.12 759.13 419.80 755.32 414.59 C 750.36 407.36 742.46 403.36 734.15 401.26 C 725.28 398.69 715.21 399.29 705.97 399.49 C 692.53 400.85 679.51 407.50 669.88 416.88 C 655.50 430.18 645.02 448.07 638.36 466.37 C 633.73 479.38 629.90 492.16 628.56 505.97 C 628.23 513.31 628.22 520.69 628.49 528.03 C 629.26 538.99 632.96 549.64 639.39 558.57 C 644.79 566.26 652.44 572.13 661.27 575.37 C 670.52 579.09 682.05 577.53 692.00 577.81 C 702.81 578.17 713.14 575.86 723.34 572.56 C 730.51 571.00 736.56 566.92 743.81 565.85 C 743.83 569.82 743.29 573.29 742.20 577.08 C 724.08 583.88 706.36 590.05 687.03 592.45 C 676.38 592.91 665.60 593.05 654.94 592.51 C 640.54 590.80 626.28 584.40 616.45 573.55 C 605.97 562.76 600.67 547.80 599.49 533.01 C 599.33 521.29 598.79 509.21 600.78 497.74 C 599.93 497.29 599.08 496.84 598.22 496.39 C 598.55 495.53 598.85 494.67 599.15 493.80 C 599.97 493.67 600.79 493.55 601.61 493.42 C 604.43 477.05 611.00 461.76 619.81 447.75 C 629.73 432.81 642.56 419.63 657.31 409.44 C 668.43 402.06 681.02 396.54 694.16 394.05 C 701.97 391.94 709.92 391.21 718.00 391.35 Z" fill="#201f20" />
<path d="M 548.92 401.57 C 552.26 401.27 555.75 401.27 559.09 401.60 C 565.35 402.47 570.75 406.57 574.15 411.76 C 577.20 416.52 577.02 422.69 576.23 428.07 C 573.55 436.91 566.39 441.39 559.10 446.15 C 561.04 450.76 564.28 453.85 567.18 457.84 C 569.91 461.50 572.67 465.06 576.12 468.09 C 578.34 464.44 579.50 460.49 580.46 456.37 C 584.65 456.17 588.62 456.77 592.69 457.68 C 592.94 463.92 589.91 469.68 587.12 475.09 C 586.44 476.55 585.24 478.30 585.38 479.95 C 589.15 485.61 594.01 489.50 599.15 493.80 C 598.85 494.67 598.55 495.53 598.22 496.39 C 596.63 499.28 594.70 501.86 592.00 503.79 C 586.12 501.52 581.65 495.12 576.96 491.00 C 571.37 494.79 567.36 499.32 560.72 501.51 C 550.82 505.02 537.59 504.72 529.08 497.90 C 523.47 493.30 518.25 487.61 517.43 480.08 C 517.18 474.06 516.51 467.91 519.71 462.55 C 524.60 454.41 531.77 449.66 539.78 444.98 C 536.15 439.03 531.40 434.91 529.90 428.08 C 529.07 423.78 529.14 418.91 531.04 414.87 C 534.19 407.84 541.33 402.68 548.92 401.57 Z" fill="#201f20" />
<path d="M 561.46 414.57 C 565.24 418.74 565.26 424.88 562.54 429.63 C 560.16 433.93 556.26 436.02 552.00 438.11 C 547.51 433.82 542.24 428.53 541.60 422.02 C 542.00 418.88 543.49 415.23 546.31 413.46 C 550.73 410.30 557.58 410.67 561.46 414.57 Z" fill="#fdfefe" />
<path d="M 277.06 429.52 C 275.42 431.47 273.64 433.16 271.39 434.38 C 263.78 438.59 256.25 442.42 247.80 444.69 C 239.78 447.19 231.57 448.64 223.33 450.21 C 216.64 451.42 210.79 454.83 204.07 455.94 C 206.59 451.63 210.46 449.22 214.37 446.35 C 223.15 439.52 233.50 434.62 244.09 431.34 C 254.75 429.25 266.40 426.88 277.06 429.52 Z" fill="#fdfefe" />
<path d="M 280.09 431.03 C 276.02 437.47 269.99 440.80 263.57 444.51 C 254.72 449.52 244.85 452.16 234.87 453.76 C 225.54 455.29 214.42 456.12 206.21 461.13 C 203.37 462.66 202.63 465.22 201.51 468.00 C 200.70 468.28 199.89 468.55 199.08 468.83 C 199.58 466.22 199.88 463.82 201.84 461.84 C 206.95 456.19 215.63 453.51 222.87 451.95 C 237.39 449.58 251.10 447.01 264.40 440.37 C 269.90 437.66 274.54 433.66 280.09 431.03 Z" fill="#13abe6" />
<path d="M 546.81 453.43 C 552.14 459.02 556.56 465.54 561.57 471.45 C 564.21 474.50 566.63 477.65 568.86 481.00 C 564.55 486.62 559.18 491.02 552.07 492.38 C 547.60 492.79 543.30 492.98 539.32 490.59 C 531.10 485.46 527.56 473.98 532.49 465.40 C 535.77 460.10 541.18 455.99 546.81 453.43 Z" fill="#fdfefe" />
<path d="M 200.69 458.96 C 198.91 462.23 197.41 465.55 196.32 469.12 C 200.01 470.33 202.82 470.54 206.66 469.98 C 212.21 469.20 217.17 469.24 222.69 470.21 C 216.10 473.49 209.35 476.47 202.76 479.77 C 195.76 483.36 191.81 488.98 186.01 494.01 C 182.51 488.17 184.57 482.58 186.94 476.80 C 190.13 470.10 194.59 463.33 200.69 458.96 Z" fill="#fdfefe" />
<path d="M 1015.61 476.17 C 1016.60 479.44 1017.31 483.07 1018.98 486.06 C 1020.39 487.54 1022.35 488.55 1024.00 489.73 L 1024.00 1024.00 L 911.40 1024.00 C 911.02 1022.82 910.65 1021.64 910.30 1020.46 C 907.78 1019.84 903.89 1019.86 902.03 1017.86 C 899.59 1015.59 902.19 1012.13 901.60 1009.06 C 901.03 1005.47 901.31 1002.67 902.23 999.11 C 906.15 1000.50 909.94 1002.19 913.70 1003.97 C 914.60 1000.04 913.43 996.60 912.54 992.80 C 914.37 992.92 916.20 993.05 918.03 993.18 C 918.47 990.28 918.71 987.43 918.75 984.50 C 917.40 984.52 915.87 984.29 914.56 984.68 C 913.47 986.18 912.79 988.02 912.01 989.70 C 909.58 988.58 907.26 987.58 905.20 985.83 C 902.60 983.49 900.11 981.51 900.04 977.73 C 898.50 977.84 896.74 978.20 895.23 977.79 C 892.52 975.48 890.81 971.17 887.63 969.58 C 884.00 968.51 879.87 968.89 876.11 968.78 C 875.29 970.43 874.38 971.93 873.26 973.39 C 872.79 971.11 870.86 968.02 873.19 966.18 C 876.68 964.14 881.48 964.13 885.37 963.21 C 893.99 961.33 902.29 962.20 911.00 961.84 C 927.01 961.39 943.03 961.82 959.04 961.54 C 956.97 954.01 957.72 946.69 957.54 939.01 C 957.48 935.82 957.85 932.69 958.23 929.54 C 958.74 925.75 957.65 921.94 957.63 918.00 C 957.53 910.98 958.36 904.06 957.88 897.02 C 957.39 889.68 957.59 882.35 957.59 875.00 C 957.56 852.67 957.71 830.33 957.57 808.00 C 957.54 801.96 958.31 796.05 957.87 790.01 C 957.04 777.98 958.25 766.02 957.61 753.99 C 957.58 736.57 957.46 719.15 957.78 701.72 C 957.09 686.47 958.08 671.25 957.66 656.00 C 957.93 645.34 957.55 634.67 958.23 624.04 C 958.52 618.24 957.65 612.52 957.86 606.72 C 957.93 601.55 958.53 596.45 959.20 591.34 C 959.79 586.77 959.04 582.43 958.95 577.89 C 958.87 574.05 959.93 570.56 960.37 566.81 C 960.76 563.55 959.76 560.31 960.11 557.10 C 960.64 554.47 961.98 551.93 963.06 549.48 C 962.22 547.84 961.26 546.16 960.73 544.39 C 960.51 541.88 961.85 539.47 961.07 536.99 C 959.98 533.14 959.27 529.55 960.78 525.67 C 961.49 523.48 963.91 522.73 965.70 521.63 C 965.31 523.41 964.89 525.19 964.46 526.97 C 965.14 527.99 965.82 529.02 966.50 530.05 C 965.28 530.30 964.06 530.56 962.84 530.82 C 964.03 532.99 965.35 534.68 967.15 536.39 C 967.33 534.93 967.51 533.47 967.68 532.01 C 970.01 533.03 972.20 534.24 974.33 535.61 C 971.69 529.31 969.42 523.40 971.68 516.58 C 972.73 516.93 973.79 517.28 974.85 517.63 C 974.37 515.95 973.89 514.28 973.41 512.61 C 975.26 511.70 977.10 510.80 978.95 509.91 C 976.99 509.40 975.03 508.89 973.08 508.34 C 974.89 505.96 976.63 502.75 979.70 501.91 C 982.97 500.86 986.55 500.54 989.94 500.03 C 989.76 500.78 989.58 501.53 989.40 502.28 C 988.53 502.69 987.65 503.11 986.78 503.53 C 987.26 505.76 987.85 508.01 988.08 510.28 C 988.28 512.36 987.47 514.35 987.37 516.32 C 988.00 517.46 988.91 518.46 989.73 519.47 C 990.78 519.22 991.82 518.97 992.87 518.72 C 993.60 520.85 994.33 522.98 995.07 525.11 C 996.76 524.52 998.45 523.91 1000.13 523.30 C 998.63 519.02 997.17 514.73 995.73 510.43 C 995.03 510.83 994.34 511.24 993.64 511.64 C 993.83 506.40 995.39 501.06 995.12 495.86 C 993.51 493.52 991.41 491.50 989.59 489.30 C 991.10 490.04 992.60 490.79 994.10 491.55 C 993.54 489.52 993.01 487.48 992.54 485.43 C 995.80 486.60 996.49 487.84 997.85 490.85 C 1000.04 487.86 1002.51 485.29 1005.30 482.85 C 1006.01 484.33 1006.70 485.80 1007.39 487.29 C 1009.11 485.35 1011.02 483.63 1012.87 481.83 C 1014.36 480.46 1014.88 478.02 1015.61 476.17 Z" fill="#cdf0f5" />
<path d="M 146.15 523.03 C 152.28 525.33 155.04 530.10 159.89 534.17 C 164.73 538.31 169.50 542.69 174.68 546.33 C 185.96 554.48 198.27 563.05 211.46 567.71 C 217.99 570.40 224.33 573.31 231.23 574.97 C 238.03 576.57 245.03 578.75 252.00 579.24 C 260.36 579.78 268.60 580.86 277.01 580.48 C 284.46 580.49 291.61 578.46 299.06 578.38 C 294.40 580.35 289.60 581.73 285.17 584.27 C 281.39 586.10 277.39 586.78 273.26 587.32 C 266.42 586.75 260.23 588.77 253.52 589.44 C 247.34 590.15 241.23 590.90 235.00 590.98 C 227.32 591.16 220.13 590.11 212.47 589.40 C 203.98 588.54 196.01 586.31 187.90 583.79 C 188.35 582.46 188.79 581.12 189.24 579.79 C 183.34 574.94 176.69 572.84 170.10 568.89 C 161.52 564.26 154.15 557.67 148.07 550.10 C 153.75 551.24 158.61 553.65 164.55 553.32 C 163.69 547.67 159.74 544.90 156.50 540.54 C 152.20 534.83 146.86 530.53 146.15 523.03 Z" fill="#fdfefe" />
<path d="M 476.23 640.20 C 480.04 640.64 483.23 641.70 486.99 641.56 C 489.55 641.51 492.13 640.74 494.69 640.25 C 494.89 647.40 493.32 654.07 492.46 661.12 C 490.77 672.43 489.18 683.66 487.58 694.99 C 487.06 701.72 487.00 708.53 487.43 715.27 C 489.25 715.74 490.96 717.11 492.76 716.02 C 496.79 714.19 499.02 710.89 501.23 707.24 C 505.51 699.96 509.38 692.41 512.66 684.63 C 513.93 681.87 513.60 678.48 513.66 675.47 C 515.73 675.44 517.88 675.34 519.93 675.60 C 522.24 677.16 521.42 679.66 521.16 682.00 C 519.97 687.70 517.97 693.94 517.45 699.99 C 517.10 704.98 517.15 710.03 517.41 715.03 C 518.34 715.63 519.28 716.23 520.22 716.84 C 527.67 713.37 530.73 706.39 534.48 699.56 C 538.66 690.81 543.08 682.30 543.73 672.50 C 546.02 672.45 548.31 672.43 550.60 672.41 C 551.14 680.67 547.77 687.80 547.52 695.97 C 547.42 700.30 547.18 704.71 547.61 709.02 C 547.78 710.83 548.79 712.28 550.16 713.42 C 552.95 714.05 555.27 711.89 557.16 710.15 C 562.65 704.70 566.45 697.20 569.07 690.00 C 572.00 682.96 575.81 676.07 583.21 672.99 C 589.31 670.99 593.71 673.43 599.02 676.01 C 601.80 674.10 604.32 672.42 607.79 672.08 C 607.61 676.52 606.26 680.66 605.61 685.02 C 602.84 703.25 600.36 721.73 597.60 739.96 C 597.17 745.85 597.15 751.78 597.40 757.68 C 594.78 758.53 592.29 758.71 589.54 758.64 C 588.53 750.96 590.53 743.81 590.63 736.22 C 590.86 736.95 591.10 737.68 591.34 738.41 C 591.62 729.93 593.69 721.49 594.67 713.06 C 595.03 709.56 596.44 706.78 594.35 703.53 C 591.79 708.23 589.58 713.02 586.47 717.40 C 583.99 720.97 581.20 724.83 577.00 726.46 C 574.68 726.79 570.40 727.43 568.97 725.06 C 565.04 720.22 565.43 714.71 565.19 708.87 C 561.30 713.43 557.75 720.23 551.99 722.41 C 549.15 722.67 545.08 723.56 543.45 720.51 C 538.45 713.44 541.62 706.49 539.68 698.65 C 536.69 702.70 535.26 707.35 532.74 711.65 C 530.14 716.12 527.12 720.73 523.02 723.96 C 520.96 725.78 518.55 725.78 515.95 725.52 C 512.61 725.15 510.53 720.76 509.69 717.91 C 509.00 712.69 509.60 707.28 509.48 702.02 C 506.06 708.13 502.54 714.64 497.95 719.95 C 496.05 722.08 493.73 724.42 490.99 725.40 C 487.85 725.72 484.70 726.23 482.61 723.33 C 477.58 717.15 479.85 708.34 479.38 700.85 C 472.25 709.69 466.31 718.24 455.83 723.62 C 451.46 725.91 446.73 725.98 441.95 725.32 C 438.10 724.31 435.58 720.59 434.02 717.17 C 431.77 712.53 432.41 707.08 432.34 702.00 C 432.11 694.23 435.46 686.32 440.16 680.24 C 443.77 675.42 449.87 671.77 456.04 672.34 C 459.30 672.17 462.57 673.83 464.29 676.61 C 466.17 679.49 465.67 683.83 465.46 687.11 C 464.58 692.50 459.46 697.13 455.18 700.11 C 450.64 703.34 445.69 703.92 440.31 704.65 C 440.41 708.33 439.93 711.54 442.38 714.64 C 444.86 718.48 450.06 718.01 453.89 716.99 C 462.35 713.76 469.41 705.80 474.66 698.65 C 478.03 693.80 481.91 689.03 482.46 682.94 C 483.68 671.74 486.42 661.21 485.73 649.86 C 483.12 649.47 480.40 649.69 478.50 647.53 C 476.50 645.39 476.56 642.96 476.23 640.20 Z" fill="#201f20" />
<path d="M 290.87 646.10 C 296.06 649.28 300.22 653.25 304.67 657.35 C 309.51 661.87 314.37 666.27 318.69 671.31 C 325.29 678.86 332.36 687.15 336.79 696.19 C 338.53 699.52 338.72 703.00 338.73 706.67 C 336.98 706.62 335.24 706.56 333.50 706.52 C 334.21 705.12 335.21 703.66 335.51 702.10 C 335.18 700.23 334.18 698.41 333.27 696.76 C 328.21 688.10 321.74 681.31 315.09 673.93 C 311.22 669.47 307.24 665.10 303.28 660.72 C 298.90 655.85 294.19 651.87 290.87 646.10 Z" fill="#13abe6" />
<path d="M 776.61 649.64 C 778.96 648.03 781.52 648.67 784.21 648.68 C 780.43 653.78 775.62 658.98 769.83 661.77 L 768.23 660.29 C 770.38 656.46 772.99 652.24 776.61 649.64 Z" fill="#201f20" />
<path d="M 404.99 651.69 C 410.28 651.26 415.75 650.94 420.58 653.46 C 424.86 655.49 427.61 660.25 427.61 664.93 C 427.67 669.64 428.05 674.84 426.19 679.22 C 423.87 685.57 419.12 690.79 413.79 694.80 C 408.44 698.58 402.27 699.84 395.80 699.72 C 394.79 710.27 391.89 720.04 392.33 730.52 C 389.73 731.77 387.33 732.57 384.41 732.79 C 383.46 721.02 387.78 710.63 387.70 698.91 C 384.80 697.28 381.75 695.64 379.73 692.91 C 379.57 691.54 379.48 690.17 379.45 688.78 C 382.69 690.29 385.83 691.92 389.25 693.00 C 390.19 684.41 392.34 676.25 391.66 667.51 C 394.31 666.08 396.43 665.32 399.52 665.30 C 400.61 675.11 396.98 684.05 397.29 693.81 C 400.08 693.67 403.25 693.78 405.88 692.78 C 410.54 691.29 414.43 687.18 417.27 683.35 C 420.55 678.89 419.80 673.14 419.76 667.91 C 419.96 663.44 416.13 659.78 412.05 658.69 C 406.42 658.00 400.82 658.16 395.64 660.69 C 389.07 663.52 385.18 668.82 380.50 673.94 C 379.41 671.01 378.91 668.52 380.76 665.76 C 385.79 657.87 396.06 653.27 404.99 651.69 Z" fill="#201f20" />
<path d="M 658.42 671.87 C 658.40 675.61 658.11 679.28 657.09 682.90 C 654.86 690.56 654.46 698.93 654.45 706.90 C 654.36 709.52 655.85 711.13 657.18 713.20 C 662.75 711.02 665.60 706.52 668.62 701.66 C 672.50 695.29 673.51 688.02 677.65 681.71 C 681.02 676.07 687.10 672.44 693.47 671.26 C 697.71 670.49 701.67 672.40 704.56 675.41 C 708.46 679.22 708.24 686.18 705.56 690.60 C 702.75 695.23 698.65 699.16 694.11 702.08 C 690.09 704.64 685.81 705.06 681.22 705.81 C 681.56 709.34 681.47 713.06 684.40 715.58 C 687.18 717.79 691.60 716.78 694.60 715.56 C 702.86 712.06 709.14 704.43 714.30 697.35 C 716.45 694.25 718.98 690.98 720.19 687.38 C 720.98 684.11 720.44 680.49 720.94 677.15 C 722.21 674.90 725.43 673.77 727.89 673.65 C 730.22 674.68 731.43 676.40 731.43 678.98 C 731.35 685.32 729.62 691.54 729.32 697.89 C 733.80 689.93 737.00 682.26 743.69 675.68 C 746.11 673.37 749.52 671.09 752.95 670.94 C 755.69 671.37 758.41 674.35 758.61 677.11 C 758.48 681.18 755.65 684.54 753.18 687.52 C 751.31 686.52 749.28 684.85 747.16 684.53 C 744.63 685.36 742.54 687.93 740.97 689.99 C 734.65 699.36 729.50 709.81 727.10 720.91 C 726.33 723.32 725.63 726.47 722.85 727.27 C 720.00 728.08 717.77 726.58 717.11 723.78 C 715.58 717.60 717.92 710.18 718.62 703.88 C 712.60 710.96 705.98 718.95 697.84 723.81 C 692.44 726.65 685.15 728.91 679.48 725.53 C 674.99 723.11 672.87 716.59 670.45 712.31 C 666.81 716.90 662.29 722.88 656.49 724.69 C 652.76 725.80 649.51 723.25 647.71 720.20 C 645.28 715.89 645.08 710.00 644.50 705.16 C 640.97 711.84 636.40 717.75 631.61 723.57 C 630.27 725.10 628.90 726.63 626.86 727.18 C 623.30 728.15 619.58 726.43 617.13 723.86 C 614.87 721.43 614.12 718.24 613.82 715.02 C 613.25 708.46 614.72 701.48 615.81 695.01 C 617.07 688.09 618.03 681.12 619.28 674.19 C 622.04 673.97 625.74 672.86 627.95 675.07 C 629.84 676.81 629.26 679.51 629.01 681.77 C 627.17 692.29 622.74 704.60 625.19 715.22 C 627.54 714.59 629.67 714.33 631.27 712.28 C 640.45 700.75 646.23 686.97 648.52 672.44 C 652.21 670.64 654.53 670.73 658.42 671.87 Z" fill="#cdf0f5" />
<path d="M 650.64 672.56 C 652.67 672.51 654.70 672.47 656.73 672.45 C 657.04 679.90 654.61 686.43 653.78 693.79 C 653.29 698.44 652.00 702.85 653.15 707.42 C 653.71 709.72 654.28 712.24 656.48 713.53 C 659.95 714.08 662.30 711.84 664.52 709.55 C 668.91 704.51 672.26 698.73 674.00 692.25 C 676.52 683.69 682.23 675.45 691.13 672.79 C 694.63 672.13 698.79 671.78 701.67 674.32 C 706.34 677.77 706.49 685.21 704.17 690.03 C 699.76 699.17 689.54 704.15 679.62 703.93 C 679.30 708.92 680.18 714.29 684.73 717.16 C 688.70 718.27 693.30 717.89 696.88 715.74 C 705.01 711.30 711.25 704.03 716.32 696.42 C 718.37 693.27 720.86 690.03 722.10 686.47 C 722.81 683.33 722.32 679.85 722.32 676.65 C 724.72 675.81 726.84 675.37 729.40 675.40 C 730.42 685.93 726.19 696.53 726.86 706.94 C 731.82 696.64 735.70 686.29 743.52 677.51 C 746.64 674.36 750.03 671.37 754.83 672.70 C 756.04 673.82 757.15 675.34 757.46 676.98 C 757.07 679.75 755.61 682.59 753.61 684.55 C 751.11 684.56 748.07 682.84 745.70 683.65 C 742.95 685.42 740.72 688.18 738.90 690.86 C 734.60 697.35 731.43 704.19 728.45 711.35 C 726.49 716.02 725.38 720.96 723.36 725.61 C 721.81 725.54 720.26 725.49 718.71 725.43 C 718.14 723.41 717.38 721.62 717.76 719.47 C 718.75 712.41 720.26 705.32 720.60 698.19 C 713.72 707.68 706.80 717.90 695.92 723.17 C 690.51 725.95 683.18 727.12 678.14 722.96 C 673.96 719.71 672.99 712.98 671.58 708.15 C 668.14 712.52 664.75 718.03 660.13 721.16 C 656.86 723.63 651.40 723.34 649.34 719.38 C 645.58 712.98 648.47 704.45 646.48 696.99 C 643.08 701.51 641.62 706.75 638.80 711.57 C 636.47 715.67 633.67 720.01 630.05 723.07 C 628.26 724.51 626.40 725.74 624.00 725.59 C 620.38 725.98 618.30 722.45 616.96 719.64 C 614.06 713.36 616.18 706.84 616.90 700.32 C 618.00 691.93 620.44 683.75 620.66 675.37 C 623.20 675.41 625.41 675.67 627.78 676.63 C 626.65 688.13 621.72 700.31 622.58 711.89 C 622.66 714.53 625.39 717.80 628.21 716.16 C 636.76 710.68 639.93 701.20 644.43 692.60 C 647.71 686.26 649.52 679.58 650.64 672.56 Z" fill="#201f20" />
<path d="M 808.15 672.87 C 814.29 671.05 818.74 673.51 823.94 676.35 C 826.78 673.97 828.77 671.95 832.83 672.27 C 831.73 679.26 829.51 685.81 829.39 692.99 C 829.36 699.34 828.46 705.86 830.75 711.77 C 833.15 711.59 835.24 711.91 837.23 710.29 C 846.04 703.75 851.12 693.12 857.23 684.51 C 860.01 687.76 858.03 690.40 856.47 693.54 C 851.82 701.68 846.45 710.16 839.57 716.58 C 836.56 719.38 833.36 721.99 828.98 721.62 C 825.31 721.95 823.21 718.03 822.42 714.99 C 820.70 709.93 822.49 704.93 820.47 699.96 C 815.55 708.32 811.94 717.59 803.82 723.77 C 800.63 726.23 795.46 726.75 793.00 722.97 C 789.91 718.66 790.06 711.87 789.32 706.78 C 784.49 712.77 780.79 719.82 774.20 724.08 C 770.12 726.76 763.11 726.34 760.99 721.31 C 758.07 715.46 759.67 707.24 760.61 701.02 C 762.07 693.97 761.84 686.48 761.69 679.25 C 764.27 678.36 766.78 678.26 769.48 678.34 C 769.72 684.49 769.86 690.40 768.53 696.46 C 767.09 703.35 766.84 710.52 767.56 717.52 C 769.53 717.40 771.94 717.92 773.57 716.69 C 776.72 714.71 779.33 711.52 781.57 708.59 C 786.54 702.01 790.99 695.06 794.39 687.53 C 797.05 681.43 801.97 675.56 808.15 672.87 Z" fill="#201f20" />
<path d="M 455.91 677.57 C 457.43 678.38 458.52 679.10 458.57 680.98 C 458.78 683.90 458.95 686.81 457.25 689.34 C 453.55 694.90 447.23 699.19 440.30 698.63 C 440.82 692.88 442.72 686.91 446.40 682.38 C 448.66 679.66 452.18 677.05 455.91 677.57 Z" fill="#fdfefe" />
<path d="M 697.42 678.61 C 699.03 680.45 698.65 683.71 698.39 685.97 C 696.14 693.55 688.21 699.14 680.30 698.67 C 680.76 692.22 683.31 685.51 687.77 680.76 C 690.26 678.51 694.29 676.02 697.42 678.61 Z" fill="#fdfefe" />
<path d="M 585.98 679.33 C 590.88 679.01 594.31 682.16 597.99 684.86 C 597.36 687.79 596.42 690.37 595.00 693.00 C 591.58 699.44 587.98 705.85 583.83 711.86 C 582.24 713.94 580.35 716.46 577.95 717.60 C 574.71 718.07 573.48 715.63 572.67 712.97 C 571.78 703.72 573.00 694.37 577.15 686.01 C 578.98 682.76 581.76 678.90 585.98 679.33 Z" fill="#fdfefe" />
<path d="M 809.94 679.31 C 815.21 678.84 819.27 681.45 823.00 684.83 C 821.81 687.91 820.46 690.92 818.84 693.81 C 815.45 699.89 812.00 706.33 807.73 711.83 C 806.20 713.83 804.31 715.50 802.02 716.57 C 799.66 716.28 797.96 714.32 797.60 712.03 C 796.74 702.12 797.37 692.48 803.05 683.99 C 804.72 681.85 806.92 679.04 809.94 679.31 Z" fill="#fdfefe" />
<path d="M 467.21 735.20 C 478.35 734.25 488.34 744.21 489.25 754.98 C 489.28 760.08 487.20 765.04 483.90 768.88 C 479.36 774.27 472.50 777.88 465.86 779.95 C 453.75 783.83 439.73 783.05 427.27 781.44 C 423.63 781.04 420.10 780.12 416.66 778.89 C 423.45 779.21 430.23 779.72 437.02 780.10 C 444.40 779.73 452.18 778.80 459.06 775.97 C 463.14 774.25 466.45 770.30 465.28 765.66 C 463.38 758.80 456.42 752.21 455.68 744.98 C 455.79 739.48 462.18 735.40 467.21 735.20 Z" fill="#13abe6" />
<path d="M 65.11 760.58 C 67.14 765.41 66.44 769.92 66.44 775.00 C 66.32 784.33 66.46 793.67 66.23 803.00 C 65.98 812.05 67.11 820.58 65.94 829.46 C 60.14 826.10 55.65 820.71 53.72 814.26 C 50.92 805.20 49.20 795.77 47.45 786.45 C 46.96 783.04 46.04 778.75 47.24 775.45 C 50.09 771.95 53.43 768.83 56.37 765.39 C 58.74 762.63 61.61 761.34 65.11 760.58 Z" fill="#cdf0f5" />
<path d="M 727.54 763.57 C 729.85 761.77 732.31 762.51 734.87 763.21 C 731.61 766.49 728.40 769.84 724.99 772.96 C 723.22 774.64 721.09 775.03 718.83 775.73 C 720.50 770.91 723.47 766.65 727.54 763.57 Z" fill="#201f20" />
<path d="M 632.10 764.15 C 631.11 767.99 629.88 772.01 625.48 772.95 C 619.68 774.00 613.44 773.23 607.54 773.42 C 605.00 780.76 604.20 788.85 604.24 796.59 C 610.19 796.72 616.12 796.54 622.06 796.26 C 621.13 799.09 621.05 802.33 617.64 803.21 C 612.36 804.12 607.03 803.21 601.74 804.57 C 601.46 813.19 599.24 821.09 600.53 830.00 C 602.94 833.44 607.37 832.54 611.00 832.68 C 615.59 832.85 619.58 831.28 623.91 830.11 C 623.67 833.48 623.09 836.01 619.92 837.70 C 613.76 840.38 606.56 841.07 599.91 840.68 C 596.56 840.57 592.45 838.17 591.67 834.71 C 590.91 828.88 591.85 823.49 592.86 817.78 C 593.73 813.26 593.72 808.87 593.82 804.29 C 591.80 804.38 589.78 804.49 587.76 804.59 C 588.58 802.63 589.14 800.21 590.52 798.58 C 591.95 797.48 593.82 796.86 595.47 796.15 C 597.30 789.03 598.54 781.52 598.70 774.16 C 594.09 773.87 590.41 775.31 586.25 776.99 C 587.19 774.25 588.14 770.53 590.40 768.56 C 592.52 767.20 595.53 767.08 597.97 766.68 C 604.97 766.31 612.03 766.68 619.05 766.55 C 623.54 766.58 627.50 764.86 632.10 764.15 Z" fill="#201f20" />
<path d="M 802.86 764.56 C 802.35 767.34 801.80 769.99 800.15 772.36 C 796.46 777.45 793.36 782.41 786.56 783.20 L 787.64 781.90 L 788.55 781.59 C 794.39 780.24 797.88 774.36 800.38 769.39 C 797.32 771.07 794.30 772.80 791.09 774.20 C 795.49 771.87 799.31 768.05 802.86 764.56 Z" fill="#201f20" />
<path d="M 690.14 765.62 C 688.17 769.81 686.52 773.97 685.96 778.60 C 694.39 779.43 702.75 778.92 711.14 777.97 C 713.08 782.73 710.01 788.15 704.85 788.67 C 697.68 789.36 690.47 788.34 683.28 789.16 C 680.82 797.18 679.61 805.61 678.76 813.96 C 678.47 817.63 678.16 822.02 679.56 825.49 C 680.49 827.55 682.07 828.86 684.43 828.33 C 690.11 827.56 692.22 822.30 695.33 818.23 C 696.13 819.62 697.72 821.31 697.46 823.00 C 697.01 826.50 694.79 829.91 692.67 832.66 C 689.59 836.64 684.88 840.25 679.75 840.81 C 675.18 840.96 671.85 836.53 670.08 832.81 C 666.94 826.66 667.84 819.90 667.77 813.21 C 664.75 815.84 661.75 818.48 658.77 821.17 C 659.04 826.27 659.94 831.97 657.73 836.72 C 655.02 842.82 650.89 848.15 643.93 849.32 C 636.99 850.76 630.63 842.62 632.90 836.15 C 634.80 830.18 639.64 826.96 644.11 823.07 C 645.24 821.84 647.35 820.51 646.38 818.60 C 644.42 812.34 640.95 806.77 639.77 800.01 C 639.08 795.69 639.05 791.41 641.78 787.75 C 643.52 785.42 646.06 782.45 649.01 781.80 C 652.50 782.11 654.52 785.72 654.37 789.00 C 654.56 793.04 650.08 796.48 649.51 800.00 C 650.23 805.18 653.05 810.24 655.16 814.99 C 660.25 811.60 664.78 807.35 668.32 802.37 C 671.14 798.26 671.97 793.82 672.92 789.05 C 669.54 789.11 666.00 789.61 662.65 789.13 C 660.08 787.70 662.05 784.92 663.20 783.21 C 665.80 779.28 671.15 779.90 675.26 779.22 C 676.75 775.01 677.81 769.33 681.07 766.13 C 683.71 763.64 687.04 765.06 690.14 765.62 Z" fill="#cdf0f5" />
<path d="M 765.87 765.34 C 764.02 770.56 761.23 774.62 761.22 780.35 C 769.40 780.14 778.02 781.22 786.03 779.48 C 786.56 780.29 787.10 781.10 787.64 781.90 L 786.56 783.20 C 784.83 785.51 783.24 787.31 780.12 787.39 C 772.95 787.61 765.76 787.31 758.59 787.54 C 756.96 794.29 755.68 801.11 754.64 807.97 C 754.22 813.17 754.16 818.87 754.42 824.08 C 754.47 826.19 755.84 827.85 756.81 829.68 C 758.86 829.66 761.01 829.75 763.04 829.44 C 766.45 827.76 769.13 824.06 771.73 821.38 C 774.39 825.45 770.67 830.02 768.00 833.00 C 764.77 836.16 759.77 840.23 754.99 839.56 C 752.73 839.46 750.75 836.97 748.98 835.68 C 748.18 832.77 747.18 829.86 746.68 826.87 C 746.30 823.25 746.48 819.56 746.31 815.91 C 744.25 818.39 742.33 820.95 740.44 823.56 C 735.64 828.38 731.11 833.89 724.93 836.85 C 720.25 839.23 715.19 840.39 709.98 839.16 C 704.81 837.62 701.88 831.97 700.75 827.07 C 699.93 821.78 700.16 816.25 700.63 810.94 C 702.02 802.66 706.32 794.28 713.10 789.16 C 717.22 786.08 722.13 785.80 727.06 786.54 C 729.22 787.17 731.15 788.67 732.28 790.63 C 734.08 793.54 733.65 797.77 733.30 801.04 C 731.55 807.76 725.89 812.86 719.79 815.75 C 716.09 817.52 712.42 817.67 708.39 818.41 C 708.47 821.26 707.94 824.96 709.59 827.39 C 710.72 828.99 711.73 830.64 713.92 830.67 C 717.91 830.96 722.57 831.24 726.01 828.89 C 731.34 825.55 735.85 820.70 739.93 815.96 C 742.94 812.11 746.31 808.02 748.11 803.44 C 749.64 798.29 750.62 792.87 750.75 787.49 C 747.11 787.45 743.47 787.48 739.84 787.50 C 740.76 785.14 741.29 782.23 743.72 780.92 C 746.84 780.28 750.06 780.35 753.19 779.61 C 754.06 775.66 754.98 770.80 757.62 767.61 C 760.01 765.14 762.71 765.48 765.87 765.34 Z" fill="#201f20" />
<path d="M 524.98 765.33 C 528.82 765.16 532.48 765.97 535.21 768.82 C 537.38 770.71 536.20 773.76 536.09 776.22 C 533.41 775.10 531.32 773.25 528.93 771.69 C 526.09 770.92 522.86 771.09 519.98 771.55 C 517.67 772.57 515.81 774.80 514.69 777.02 C 513.71 782.42 513.90 787.12 517.38 791.57 C 520.80 791.58 524.23 791.51 527.66 791.58 C 527.51 794.08 527.99 796.23 526.35 798.34 C 524.11 802.76 517.79 799.24 514.08 800.76 C 507.15 805.01 502.52 812.75 503.26 821.03 C 502.90 826.43 505.72 831.56 510.94 833.36 C 514.43 833.92 518.54 833.95 522.02 833.35 C 528.40 831.15 533.79 825.86 536.97 820.00 C 538.67 817.17 539.25 813.28 538.20 810.15 C 536.84 808.28 535.09 806.77 533.69 804.90 C 533.37 803.09 533.53 801.17 533.51 799.33 C 535.36 799.47 537.20 799.65 539.02 800.01 C 544.75 801.21 551.15 800.64 556.98 800.36 C 556.52 802.91 555.97 806.03 553.92 807.82 C 551.50 809.24 548.11 809.48 545.37 809.75 C 543.60 815.67 542.13 821.81 541.50 827.97 C 541.29 835.00 540.79 841.55 542.78 848.37 C 540.79 849.76 539.06 850.55 536.66 851.02 C 534.68 846.40 535.40 840.84 536.16 836.01 C 536.67 833.61 536.34 831.94 535.47 829.69 C 532.70 832.20 530.14 835.00 527.08 837.05 C 523.32 839.70 518.51 840.93 513.98 841.31 C 508.70 841.02 503.39 839.30 499.99 835.02 C 494.51 828.69 494.48 818.70 497.27 811.21 C 499.87 804.10 505.74 800.09 511.72 796.01 C 510.24 793.42 508.63 790.94 507.73 788.07 C 507.25 785.08 507.31 781.91 507.63 778.89 C 509.12 770.94 516.97 765.03 524.98 765.33 Z" fill="#201f20" />
<path d="M 688.15 765.31 C 686.91 770.39 684.84 775.13 683.28 780.13 C 691.80 780.84 700.44 780.29 708.99 780.43 C 708.73 783.25 708.86 785.21 705.93 786.48 C 698.55 787.30 690.97 786.32 683.57 786.90 C 682.32 786.87 681.57 788.96 681.24 789.93 C 679.54 795.84 678.59 801.99 677.72 808.06 C 677.26 813.86 675.55 819.32 677.39 825.03 C 678.25 827.74 679.58 830.85 682.99 830.49 C 688.01 830.68 692.07 824.23 695.61 821.34 C 695.51 823.47 695.82 825.62 694.75 827.52 C 691.97 833.03 686.74 837.53 680.86 839.40 C 677.35 840.30 674.40 838.08 672.62 835.25 C 670.97 832.36 670.29 828.82 669.67 825.58 C 668.67 819.46 670.70 814.02 670.42 807.92 C 665.91 811.92 661.98 816.49 657.36 820.37 C 657.36 825.68 658.44 832.07 656.27 836.98 C 654.57 841.05 651.57 844.86 647.52 846.78 C 642.83 848.84 636.97 847.95 634.63 842.95 C 633.95 839.31 633.87 835.32 636.21 832.23 C 639.37 827.74 644.65 824.39 648.84 820.85 C 645.92 811.99 640.56 804.58 641.38 794.94 C 641.35 789.15 644.86 785.45 649.03 781.99 C 651.00 784.01 654.06 785.66 653.51 788.93 C 653.22 792.84 649.36 796.00 647.55 799.23 C 649.43 805.26 652.25 811.14 655.05 816.80 C 661.10 812.50 666.53 806.92 670.81 800.85 C 673.07 797.71 673.63 794.24 674.28 790.51 C 674.39 789.10 674.78 787.81 673.29 787.03 C 670.24 786.49 667.00 786.82 663.92 786.64 C 664.22 785.50 664.55 784.37 664.93 783.26 C 666.88 779.22 672.37 780.76 676.09 780.29 C 677.18 776.58 678.03 772.48 679.99 769.12 C 681.93 766.18 684.86 765.57 688.15 765.31 Z" fill="#201f20" />
<path d="M 800.38 769.39 C 797.88 774.36 794.39 780.24 788.55 781.59 C 788.39 779.52 788.37 777.44 788.41 775.36 C 789.31 774.98 790.20 774.60 791.09 774.20 C 794.30 772.80 797.32 771.07 800.38 769.39 Z" fill="#201f20" />
<path d="M 896.41 786.02 C 894.86 793.09 892.76 800.69 892.45 807.95 C 892.37 814.08 891.68 819.78 893.91 825.66 C 896.26 825.55 898.30 825.92 900.27 824.33 C 910.04 816.92 914.04 807.01 921.12 797.80 C 921.64 798.88 922.13 799.98 922.57 801.09 C 921.63 804.29 919.81 807.32 918.16 810.20 C 913.30 818.60 907.18 827.35 899.40 833.27 C 896.62 835.22 891.59 837.01 888.91 834.08 C 886.25 831.75 885.37 828.47 885.42 825.03 C 885.49 820.79 885.16 816.98 884.26 812.83 C 880.97 818.45 878.57 824.34 874.58 829.57 C 871.97 833.06 868.76 837.05 864.76 838.95 C 861.93 840.24 858.68 839.72 856.75 837.17 C 853.05 831.98 853.42 826.69 853.27 820.64 C 850.18 823.18 847.92 826.35 845.43 829.43 C 841.46 833.91 836.90 838.52 831.03 840.31 C 826.47 841.15 821.61 841.32 817.97 837.98 C 812.60 833.48 812.29 827.20 810.13 820.99 C 806.27 825.47 803.26 830.93 798.93 834.93 C 795.94 837.46 792.07 840.12 787.96 839.60 C 783.90 839.42 781.53 835.68 780.66 832.08 C 779.52 824.70 781.00 818.19 782.20 810.99 C 782.88 805.26 782.71 799.40 782.63 793.64 C 784.86 793.16 787.07 792.65 789.31 792.22 C 791.55 796.91 790.48 803.02 789.76 808.00 C 788.80 815.31 786.62 821.76 787.59 828.96 C 788.00 831.51 790.79 831.94 792.89 831.23 C 797.87 829.01 800.66 825.02 803.80 820.79 C 807.53 815.52 811.14 810.60 813.48 804.53 C 815.91 798.23 820.02 792.57 825.68 788.82 C 829.92 786.05 835.11 785.84 839.99 786.58 C 841.90 787.27 844.66 788.57 844.64 790.94 C 845.19 794.45 844.50 796.65 842.58 799.54 C 841.63 799.55 840.68 799.56 839.72 799.57 C 839.00 797.32 838.40 794.80 837.13 792.79 C 835.19 790.99 832.41 791.33 829.99 791.70 C 824.87 794.48 821.38 800.18 819.72 805.64 C 818.06 810.30 818.27 815.17 818.44 820.07 C 818.76 825.13 821.39 830.10 826.01 832.45 C 829.52 832.88 832.92 832.95 835.98 830.92 C 842.64 826.92 847.61 819.28 851.95 812.99 C 856.81 806.12 857.98 798.63 863.48 792.47 C 866.80 788.82 870.82 785.94 876.00 786.22 C 880.28 786.02 883.28 788.14 887.02 789.81 C 890.04 787.79 892.65 786.15 896.41 786.02 Z" fill="#201f20" />
<path d="M 724.84 791.78 L 726.18 793.13 C 726.94 796.34 726.99 800.36 725.14 803.23 C 721.63 808.98 715.13 812.57 708.39 812.62 C 708.42 807.01 710.72 801.38 713.78 796.75 C 716.11 793.24 720.52 790.34 724.84 791.78 Z" fill="#fdfefe" />
<path d="M 873.97 793.23 C 878.88 792.84 882.02 795.47 885.95 797.83 C 885.60 800.33 884.96 802.52 883.73 804.73 C 879.28 812.88 874.73 821.76 868.38 828.58 C 867.07 830.15 864.86 829.64 863.08 829.51 C 861.94 828.21 861.06 826.72 860.70 825.01 C 859.70 816.25 861.20 807.11 865.35 799.30 C 867.26 796.26 869.92 792.72 873.97 793.23 Z" fill="#fdfefe" />
<path d="M 17.89 805.21 C 18.15 806.10 18.41 806.99 18.67 807.87 C 15.78 811.50 13.68 815.54 11.41 819.56 C 8.80 824.11 3.86 827.39 1.82 832.13 C 0.67 835.85 3.04 838.19 5.01 840.96 C 8.17 844.93 10.55 849.28 13.92 853.04 C 17.87 857.42 22.02 861.63 26.04 865.94 C 30.69 870.76 32.04 877.29 35.56 883.43 C 37.84 888.35 41.37 892.17 45.29 895.84 C 48.04 892.66 50.80 889.65 54.54 887.62 C 58.74 885.30 62.45 882.38 66.08 879.26 C 66.44 882.83 66.65 886.41 66.54 890.00 C 66.08 907.36 66.80 924.74 66.57 942.09 C 66.96 946.64 61.74 947.63 61.74 951.98 C 61.64 954.10 61.94 956.32 62.18 958.42 C 63.23 957.32 64.28 956.21 65.31 955.10 C 66.80 957.83 68.43 961.95 71.36 963.37 C 74.71 962.91 77.79 961.44 81.23 961.31 C 90.48 960.79 99.74 961.53 109.00 961.02 C 125.03 961.37 141.02 960.59 157.05 961.19 C 165.39 961.61 173.67 960.65 182.00 961.03 C 199.95 961.80 218.01 961.11 236.00 961.38 C 243.38 961.31 250.68 961.14 258.02 962.04 C 267.60 962.44 277.20 961.80 286.78 962.38 C 287.12 963.38 287.46 964.39 287.80 965.39 C 286.17 965.87 284.55 966.35 282.92 966.84 C 283.07 968.67 283.65 970.80 282.64 972.47 C 280.56 976.26 275.96 978.79 272.39 981.00 C 272.43 979.26 272.47 977.51 272.51 975.77 C 271.90 976.02 271.29 976.27 270.69 976.52 C 270.31 977.57 269.94 978.62 269.57 979.67 C 268.76 978.49 267.95 977.30 267.15 976.12 C 267.31 978.68 267.89 981.64 267.18 984.14 C 266.16 986.18 263.82 987.66 262.10 989.10 C 261.77 987.33 261.44 985.56 261.08 983.80 C 260.39 985.64 258.93 988.04 259.78 990.00 C 260.88 992.18 263.25 993.83 265.03 995.45 C 264.32 995.98 263.62 996.52 262.91 997.06 C 261.05 996.21 259.20 995.36 257.35 994.49 C 256.98 999.01 257.18 1003.74 256.22 1008.18 C 254.84 1009.09 253.24 1009.72 251.74 1010.40 C 252.66 1011.42 253.60 1012.51 254.66 1013.37 C 256.32 1014.34 258.47 1014.59 260.23 1015.34 C 261.29 1017.82 260.22 1021.44 259.85 1024.00 L 0.00 1024.00 L 0.00 825.72 C 0.83 823.43 1.67 821.02 3.01 818.97 C 4.29 817.60 6.26 816.91 7.52 815.53 C 9.44 812.91 10.54 809.26 12.86 807.00 C 14.27 806.00 16.25 805.69 17.89 805.21 Z" fill="#cdf0f5" />
<path d="M 746.31 815.91 C 746.48 819.56 746.30 823.25 746.68 826.87 C 747.18 829.86 748.18 832.77 748.98 835.68 C 748.04 834.95 747.13 834.42 746.75 833.22 C 745.49 829.44 745.21 825.27 744.77 821.32 C 743.32 822.06 741.86 822.78 740.44 823.56 C 742.33 820.95 744.25 818.39 746.31 815.91 Z" fill="#fdfefe" />
<path d="M 650.58 825.87 C 651.64 830.40 652.20 835.17 648.92 838.97 C 646.92 841.65 643.33 840.44 640.47 840.56 C 640.58 838.34 639.75 835.23 641.36 833.46 C 643.67 830.05 646.94 827.71 650.58 825.87 Z" fill="#fdfefe" />
</svg>